<svg width="300" height="87" viewBox="0 0 300 87" fill="none" xmlns="http://www.w3.org/2000/svg">
<path d="M0 30C0 13.4315 13.4315 0 30 0H270C286.569 0 300 13.4315 300 30V57C300 73.5685 286.569 87 270 87H30C13.4315 87 0 73.5685 0 57V30Z" fill="#3C285A"/>
<path d="M45.5283 58C44.1201 58 43.0469 57.8223 42.3086 57.4668C41.584 57.1113 41.0918 56.5303 40.832 55.7236C40.5859 54.917 40.4629 53.8438 40.4629 52.5039V34.0879C40.4629 32.7207 40.5859 31.6406 40.832 30.8477C41.0918 30.041 41.584 29.4668 42.3086 29.125C43.0469 28.7695 44.1201 28.5918 45.5283 28.5918H55.167C55.4951 28.5918 55.7412 28.6465 55.9053 28.7559C56.2607 29.002 56.6299 29.2959 57.0127 29.6377C57.3955 29.9795 57.7988 30.3896 58.2227 30.8682C58.3594 31.0459 58.4277 31.1895 58.4277 31.2988C58.4277 31.4219 58.3594 31.5586 58.2227 31.709C57.7988 32.1875 57.3955 32.5977 57.0127 32.9395C56.6299 33.2812 56.2607 33.5752 55.9053 33.8213C55.7139 33.9307 55.4678 33.9854 55.167 33.9854H49.4248C48.5225 33.9854 47.9072 34.1768 47.5791 34.5596C47.251 34.9424 47.0869 35.5986 47.0869 36.5283V40.5068H54.4492C54.7773 40.5068 55.0234 40.5615 55.1875 40.6709C55.543 40.917 55.9121 41.2109 56.2949 41.5527C56.6777 41.8945 57.0811 42.3047 57.5049 42.7832C57.6416 42.9609 57.71 43.1045 57.71 43.2139C57.71 43.3369 57.6416 43.4736 57.5049 43.624C57.0811 44.1025 56.6777 44.5127 56.2949 44.8545C55.9121 45.1963 55.543 45.4902 55.1875 45.7363C54.9961 45.8457 54.75 45.9004 54.4492 45.9004H47.0869V50.043C47.0869 50.959 47.251 51.6152 47.5791 52.0117C47.9072 52.4082 48.5225 52.6064 49.4248 52.6064H55.8438C56.1719 52.6064 56.418 52.6611 56.582 52.7705C56.9375 53.0166 57.3066 53.3105 57.6895 53.6523C58.0723 53.9941 58.4756 54.4043 58.8994 54.8828C59.0361 55.0605 59.1045 55.2041 59.1045 55.3135C59.1045 55.4365 59.0361 55.5732 58.8994 55.7236C58.4756 56.2021 58.0723 56.6123 57.6895 56.9541C57.3066 57.2959 56.9375 57.5898 56.582 57.8359C56.3906 57.9453 56.1445 58 55.8438 58H45.5283ZM83.2217 44.9365V56.9131C83.2217 57.3232 83.1328 57.6104 82.9551 57.7744C82.791 57.9248 82.5039 58 82.0938 58H77.8691C77.459 58 77.165 57.9248 76.9873 57.7744C76.8232 57.6104 76.7412 57.3232 76.7412 56.9131V46.0029C76.7412 44.5127 76.4268 43.4258 75.7979 42.7422C75.1689 42.0586 74.3145 41.7168 73.2344 41.7168C72.1543 41.7168 71.3203 41.9492 70.7324 42.4141C70.1582 42.8789 69.7139 43.4668 69.3994 44.1777V56.9131C69.3994 57.3232 69.3105 57.6104 69.1328 57.7744C68.9688 57.9248 68.6816 58 68.2715 58H64.0469C63.6367 58 63.3428 57.9248 63.165 57.7744C63.001 57.6104 62.9189 57.3232 62.9189 56.9131V39.7275C62.9189 39.3994 62.9873 39.1465 63.124 38.9688C63.4111 38.5859 63.7529 38.1963 64.1494 37.7998C64.5596 37.4033 65.0586 36.9795 65.6465 36.5283C65.8242 36.3916 65.9951 36.3232 66.1592 36.3232C66.3096 36.3232 66.4805 36.3916 66.6719 36.5283C67.2461 36.9795 67.7383 37.4102 68.1484 37.8203C68.5586 38.2305 68.9209 38.6543 69.2354 39.0918H69.3379C69.5703 38.791 69.9189 38.4424 70.3838 38.0459C70.8486 37.6357 71.498 37.2734 72.332 36.959C73.1797 36.6445 74.2598 36.4873 75.5723 36.4873C76.8574 36.4873 78.0811 36.7471 79.2432 37.2666C80.4053 37.7861 81.3555 38.6611 82.0938 39.8916C82.8457 41.1221 83.2217 42.8037 83.2217 44.9365ZM96.6543 58.5127C92.0879 58.5127 89.8047 56.1406 89.8047 51.3965V41.7783H87.4873C87.0771 41.7783 86.79 41.6963 86.626 41.5322C86.4756 41.3545 86.4004 41.0605 86.4004 40.6504V38.1279C86.4004 37.7178 86.4756 37.4307 86.626 37.2666C86.79 37.0889 87.0771 37 87.4873 37H89.8047V33.6982C89.8047 33.3701 89.873 33.1172 90.0098 32.9395C90.584 32.1875 91.4248 31.374 92.5322 30.499C92.7236 30.3623 92.8945 30.2939 93.0449 30.2939C93.209 30.2939 93.373 30.3623 93.5371 30.499C94.125 30.9502 94.6172 31.374 95.0137 31.7705C95.4238 32.167 95.7725 32.5566 96.0596 32.9395C96.1963 33.1172 96.2646 33.3701 96.2646 33.6982V37H99.8945C100.305 37 100.585 37.0889 100.735 37.2666C100.899 37.4307 100.981 37.7178 100.981 38.1279V40.6504C100.981 41.0605 100.899 41.3545 100.735 41.5322C100.585 41.6963 100.305 41.7783 99.8945 41.7783H96.2646V50.2686C96.2646 52.4561 97.0576 53.5498 98.6436 53.5498C98.8896 53.5498 99.1152 53.5293 99.3203 53.4883C99.5254 53.4336 99.7031 53.3789 99.8535 53.3242C100.141 53.2148 100.339 53.1738 100.448 53.2012C100.571 53.2285 100.681 53.3789 100.776 53.6523L101.966 56.8311C102.089 57.1729 102.007 57.4189 101.72 57.5693C101.515 57.665 101.016 57.8428 100.223 58.1025C99.4434 58.376 98.2539 58.5127 96.6543 58.5127ZM115.296 58.5127C112.985 58.5127 110.976 58.1436 109.267 57.4053C107.558 56.6533 106.231 55.4912 105.288 53.9189C104.345 52.3467 103.873 50.3164 103.873 47.8281C103.873 44.0957 104.83 41.2725 106.744 39.3584C108.658 37.4443 111.201 36.4873 114.373 36.4873C116.438 36.4873 118.181 36.8564 119.603 37.5947C121.038 38.333 122.125 39.3516 122.863 40.6504C123.615 41.9492 123.991 43.4326 123.991 45.1006C123.991 46.7275 123.574 47.8623 122.74 48.5049C121.906 49.1475 120.689 49.4688 119.09 49.4688H110.292C110.401 50.877 110.914 51.9502 111.83 52.6885C112.76 53.4268 114.018 53.7959 115.604 53.7959C116.861 53.7959 117.866 53.6113 118.618 53.2422C119.384 52.8594 119.917 52.5586 120.218 52.3398C120.478 52.1484 120.771 52.0596 121.1 52.0732C121.359 52.0732 121.729 52.1279 122.207 52.2373C122.699 52.333 123.185 52.5176 123.663 52.791C124.005 52.9688 124.176 53.2148 124.176 53.5293C124.176 53.707 124.142 53.96 124.073 54.2881C124.032 54.4795 123.964 54.7598 123.868 55.1289C123.772 55.4844 123.649 55.8193 123.499 56.1338C123.417 56.2842 123.287 56.4277 123.109 56.5645C122.836 56.7559 122.392 57.0088 121.776 57.3232C121.175 57.6377 120.348 57.9111 119.295 58.1436C118.242 58.3896 116.909 58.5127 115.296 58.5127ZM110.251 45.2646H116.937C117.634 45.2646 117.982 44.9434 117.982 44.3008C117.982 43.3301 117.675 42.5166 117.06 41.8604C116.458 41.1904 115.549 40.8555 114.332 40.8555C113.006 40.8555 112.028 41.2793 111.399 42.127C110.784 42.9746 110.401 44.0205 110.251 45.2646ZM134.983 40.8965H135.065C136.091 38.0527 137.937 36.6309 140.603 36.6309C140.944 36.6309 141.225 36.6514 141.443 36.6924C141.662 36.7197 141.812 36.7471 141.895 36.7744C142.1 36.8428 142.202 37 142.202 37.2461V42.1885C142.202 42.6123 141.956 42.7285 141.464 42.5371C141.3 42.4688 141.061 42.4004 140.746 42.332C140.445 42.25 140.021 42.209 139.475 42.209C138.066 42.209 136.966 42.7285 136.173 43.7676C135.38 44.793 134.983 46.1943 134.983 47.9717V56.9131C134.983 57.3232 134.895 57.6104 134.717 57.7744C134.553 57.9248 134.266 58 133.855 58H129.631C129.221 58 128.927 57.9248 128.749 57.7744C128.585 57.6104 128.503 57.3232 128.503 56.9131V39.7275C128.503 39.3994 128.571 39.1465 128.708 38.9688C128.995 38.5859 129.337 38.1963 129.733 37.7998C130.144 37.4033 130.643 36.9795 131.23 36.5283C131.34 36.4463 131.449 36.3916 131.559 36.3643C131.668 36.3369 131.764 36.3232 131.846 36.3232C132.037 36.3232 132.229 36.3916 132.42 36.5283C133.555 37.417 134.348 38.1758 134.799 38.8047C134.922 38.9688 134.983 39.1602 134.983 39.3789V40.8965ZM167.345 36.4873C168.972 36.4873 170.154 36.624 170.893 36.8975C171.631 37.1572 172.096 37.3623 172.287 37.5127C172.588 37.7041 172.82 37.9502 172.984 38.251C173.08 38.4014 173.189 38.6611 173.312 39.0303C173.436 39.3994 173.524 39.8027 173.579 40.2402C173.647 40.582 173.654 40.8281 173.6 40.9785C173.545 41.1152 173.374 41.2861 173.087 41.4912C172.759 41.71 172.396 41.9082 172 42.0859C171.617 42.25 171.303 42.3662 171.057 42.4346C170.852 42.4893 170.694 42.5029 170.585 42.4756C170.476 42.4482 170.325 42.3662 170.134 42.2295C169.915 42.0791 169.607 41.915 169.211 41.7373C168.814 41.5459 168.268 41.4502 167.57 41.4502C166.682 41.4502 165.834 41.6689 165.027 42.1064C164.234 42.5439 163.585 43.2002 163.079 44.0752C162.587 44.9502 162.341 46.0439 162.341 47.3564C162.341 49.3252 162.854 50.8496 163.879 51.9297C164.918 53.0098 166.306 53.5498 168.042 53.5498C168.931 53.5498 169.669 53.4609 170.257 53.2832C170.845 53.0918 171.31 52.9004 171.651 52.709C171.925 52.5586 172.13 52.5244 172.267 52.6064C172.417 52.6748 172.533 52.8047 172.615 52.9961L174.112 56.3799C174.263 56.7354 174.181 56.9883 173.866 57.1387C173.36 57.3984 172.526 57.6924 171.364 58.0205C170.202 58.3486 168.767 58.5127 167.058 58.5127C163.626 58.5127 160.885 57.6035 158.834 55.7852C156.783 53.9531 155.758 51.2188 155.758 47.582C155.758 45.2578 156.229 43.2686 157.173 41.6143C158.116 39.96 159.456 38.6953 161.192 37.8203C162.929 36.9316 164.979 36.4873 167.345 36.4873ZM187.545 58.5127C184.1 58.5127 181.372 57.5967 179.362 55.7646C177.353 53.9326 176.348 51.2051 176.348 47.582C176.348 43.8633 177.387 41.0879 179.465 39.2559C181.557 37.4102 184.346 36.4873 187.832 36.4873C191.195 36.4873 193.889 37.3965 195.912 39.2148C197.936 41.0195 198.947 43.6855 198.947 47.2129C198.947 50.8906 197.936 53.6934 195.912 55.6211C193.889 57.5488 191.1 58.5127 187.545 58.5127ZM187.75 53.5498C189.254 53.5498 190.389 53.085 191.154 52.1553C191.92 51.2119 192.303 49.6055 192.303 47.3359C192.303 45.1758 191.913 43.6582 191.134 42.7832C190.368 41.8945 189.227 41.4502 187.709 41.4502C186.246 41.4502 185.091 41.9287 184.243 42.8857C183.409 43.8291 182.992 45.3672 182.992 47.5C182.992 49.7285 183.389 51.2939 184.182 52.1963C184.988 53.0986 186.178 53.5498 187.75 53.5498ZM210.78 58.5127C208.962 58.5127 207.41 58.0684 206.125 57.1797C204.854 56.2773 203.883 55.04 203.213 53.4678C202.557 51.8818 202.229 50.0566 202.229 47.9922C202.229 45.2715 202.707 43.0703 203.664 41.3887C204.635 39.6934 205.995 38.4492 207.745 37.6562C209.509 36.8633 211.587 36.4668 213.979 36.4668C214.8 36.4668 215.477 36.5078 216.01 36.5898C216.557 36.6719 216.946 36.7471 217.179 36.8154V29.166C217.179 28.8379 217.247 28.585 217.384 28.4072C217.958 27.6553 218.799 26.8418 219.906 25.9668C220.098 25.8301 220.269 25.7617 220.419 25.7617C220.597 25.7617 220.768 25.8301 220.932 25.9668C221.52 26.418 222.012 26.8418 222.408 27.2383C222.818 27.6348 223.167 28.0244 223.454 28.4072C223.591 28.585 223.659 28.8379 223.659 29.166V57.0566C223.659 57.3164 223.57 57.542 223.393 57.7334C223.215 57.9111 222.989 58 222.716 58H219.66C219.441 58 219.243 57.9727 219.065 57.918C218.901 57.8496 218.744 57.7266 218.594 57.5488L217.322 55.9082H217.179C217.001 56.1816 216.68 56.5303 216.215 56.9541C215.764 57.3643 215.101 57.7266 214.226 58.041C213.364 58.3555 212.216 58.5127 210.78 58.5127ZM212.77 53.2627C214 53.2627 214.964 53.0303 215.661 52.5654C216.372 52.1006 216.878 51.5127 217.179 50.8018V42.209C216.96 42.0723 216.598 41.9082 216.092 41.7168C215.586 41.5254 214.875 41.4297 213.959 41.4297C212.264 41.4297 210.992 41.9834 210.145 43.0908C209.297 44.1982 208.873 45.6885 208.873 47.5615C208.873 49.5029 209.229 50.9385 209.939 51.8682C210.65 52.7979 211.594 53.2627 212.77 53.2627ZM239.491 58.5127C237.181 58.5127 235.171 58.1436 233.462 57.4053C231.753 56.6533 230.427 55.4912 229.483 53.9189C228.54 52.3467 228.068 50.3164 228.068 47.8281C228.068 44.0957 229.025 41.2725 230.939 39.3584C232.854 37.4443 235.396 36.4873 238.568 36.4873C240.633 36.4873 242.376 36.8564 243.798 37.5947C245.233 38.333 246.32 39.3516 247.059 40.6504C247.811 41.9492 248.187 43.4326 248.187 45.1006C248.187 46.7275 247.77 47.8623 246.936 48.5049C246.102 49.1475 244.885 49.4688 243.285 49.4688H234.487C234.597 50.877 235.109 51.9502 236.025 52.6885C236.955 53.4268 238.213 53.7959 239.799 53.7959C241.057 53.7959 242.062 53.6113 242.813 53.2422C243.579 52.8594 244.112 52.5586 244.413 52.3398C244.673 52.1484 244.967 52.0596 245.295 52.0732C245.555 52.0732 245.924 52.1279 246.402 52.2373C246.895 52.333 247.38 52.5176 247.858 52.791C248.2 52.9688 248.371 53.2148 248.371 53.5293C248.371 53.707 248.337 53.96 248.269 54.2881C248.228 54.4795 248.159 54.7598 248.063 55.1289C247.968 55.4844 247.845 55.8193 247.694 56.1338C247.612 56.2842 247.482 56.4277 247.305 56.5645C247.031 56.7559 246.587 57.0088 245.972 57.3232C245.37 57.6377 244.543 57.9111 243.49 58.1436C242.438 58.3896 241.104 58.5127 239.491 58.5127ZM234.446 45.2646H241.132C241.829 45.2646 242.178 44.9434 242.178 44.3008C242.178 43.3301 241.87 42.5166 241.255 41.8604C240.653 41.1904 239.744 40.8555 238.527 40.8555C237.201 40.8555 236.224 41.2793 235.595 42.127C234.979 42.9746 234.597 44.0205 234.446 45.2646ZM252.083 53.4678C252.083 53.2764 252.145 53.1123 252.268 52.9756C252.391 52.8252 252.548 52.627 252.739 52.3809C253.163 51.9023 253.648 51.4033 254.195 50.8838C254.756 50.3506 255.316 49.8379 255.877 49.3457C256.232 49.0586 256.499 48.915 256.677 48.915C256.841 48.915 257.114 49.0586 257.497 49.3457C258.687 50.3574 259.719 51.3691 260.594 52.3809C260.785 52.6133 260.942 52.8047 261.065 52.9551C261.188 53.1055 261.25 53.2764 261.25 53.4678C261.25 53.6592 261.182 53.8301 261.045 53.9805C260.922 54.1309 260.765 54.3359 260.573 54.5957C260.163 55.0605 259.685 55.5527 259.138 56.0723C258.604 56.5918 258.058 57.0977 257.497 57.5898C257.142 57.877 256.868 58.0205 256.677 58.0205C256.513 58.0205 256.232 57.877 255.836 57.5898C255.234 57.0977 254.674 56.5918 254.154 56.0723C253.635 55.5391 253.163 55.0264 252.739 54.5342C252.548 54.3018 252.391 54.1172 252.268 53.9805C252.145 53.8301 252.083 53.6592 252.083 53.4678ZM252.083 40.6914C252.083 40.5 252.145 40.3359 252.268 40.1992C252.391 40.0488 252.548 39.8506 252.739 39.6045C253.163 39.126 253.648 38.627 254.195 38.1074C254.756 37.5742 255.316 37.0615 255.877 36.5693C256.232 36.2822 256.499 36.1387 256.677 36.1387C256.841 36.1387 257.114 36.2822 257.497 36.5693C258.687 37.5811 259.719 38.5928 260.594 39.6045C260.785 39.8369 260.942 40.0283 261.065 40.1787C261.188 40.3291 261.25 40.5 261.25 40.6914C261.25 40.8828 261.182 41.0537 261.045 41.2041C260.922 41.3545 260.765 41.5596 260.573 41.8193C260.163 42.2842 259.685 42.7764 259.138 43.2959C258.604 43.8154 258.058 44.3213 257.497 44.8135C257.142 45.1006 256.868 45.2441 256.677 45.2441C256.513 45.2441 256.232 45.1006 255.836 44.8135C255.234 44.3213 254.674 43.8154 254.154 43.2959C253.635 42.7627 253.163 42.25 252.739 41.7578C252.548 41.5254 252.391 41.3408 252.268 41.2041C252.145 41.0537 252.083 40.8828 252.083 40.6914Z" fill="white"/>
</svg>
