<svg width="300" height="87" viewBox="0 0 300 87" fill="none" xmlns="http://www.w3.org/2000/svg">
<path d="M0 30C0 13.4315 13.4315 0 30 0H270C286.569 0 300 13.4315 300 30V57C300 73.5685 286.569 87 270 87H30C13.4315 87 0 73.5685 0 57V30Z" fill="#3C285A"/>
<path d="M45.5283 58C44.1201 58 43.0469 57.8223 42.3086 57.4668C41.584 57.1113 41.0918 56.5303 40.832 55.7236C40.5859 54.917 40.4629 53.8438 40.4629 52.5039V34.0879C40.4629 32.7207 40.5859 31.6406 40.832 30.8477C41.0918 30.041 41.584 29.4668 42.3086 29.125C43.0469 28.7695 44.1201 28.5918 45.5283 28.5918H55.167C55.4951 28.5918 55.7412 28.6465 55.9053 28.7559C56.2607 29.002 56.6299 29.2959 57.0127 29.6377C57.3955 29.9795 57.7988 30.3896 58.2227 30.8682C58.3594 31.0459 58.4277 31.1895 58.4277 31.2988C58.4277 31.4219 58.3594 31.5586 58.2227 31.709C57.7988 32.1875 57.3955 32.5977 57.0127 32.9395C56.6299 33.2812 56.2607 33.5752 55.9053 33.8213C55.7139 33.9307 55.4678 33.9854 55.167 33.9854H49.4248C48.5225 33.9854 47.9072 34.1768 47.5791 34.5596C47.251 34.9424 47.0869 35.5986 47.0869 36.5283V40.5068H54.4492C54.7773 40.5068 55.0234 40.5615 55.1875 40.6709C55.543 40.917 55.9121 41.2109 56.2949 41.5527C56.6777 41.8945 57.0811 42.3047 57.5049 42.7832C57.6416 42.9609 57.71 43.1045 57.71 43.2139C57.71 43.3369 57.6416 43.4736 57.5049 43.624C57.0811 44.1025 56.6777 44.5127 56.2949 44.8545C55.9121 45.1963 55.543 45.4902 55.1875 45.7363C54.9961 45.8457 54.75 45.9004 54.4492 45.9004H47.0869V50.043C47.0869 50.959 47.251 51.6152 47.5791 52.0117C47.9072 52.4082 48.5225 52.6064 49.4248 52.6064H55.8438C56.1719 52.6064 56.418 52.6611 56.582 52.7705C56.9375 53.0166 57.3066 53.3105 57.6895 53.6523C58.0723 53.9941 58.4756 54.4043 58.8994 54.8828C59.0361 55.0605 59.1045 55.2041 59.1045 55.3135C59.1045 55.4365 59.0361 55.5732 58.8994 55.7236C58.4756 56.2021 58.0723 56.6123 57.6895 56.9541C57.3066 57.2959 56.9375 57.5898 56.582 57.8359C56.3906 57.9453 56.1445 58 55.8438 58H45.5283ZM83.2217 44.9365V56.9131C83.2217 57.3232 83.1328 57.6104 82.9551 57.7744C82.791 57.9248 82.5039 58 82.0938 58H77.8691C77.459 58 77.165 57.9248 76.9873 57.7744C76.8232 57.6104 76.7412 57.3232 76.7412 56.9131V46.0029C76.7412 44.5127 76.4268 43.4258 75.7979 42.7422C75.1689 42.0586 74.3145 41.7168 73.2344 41.7168C72.1543 41.7168 71.3203 41.9492 70.7324 42.4141C70.1582 42.8789 69.7139 43.4668 69.3994 44.1777V56.9131C69.3994 57.3232 69.3105 57.6104 69.1328 57.7744C68.9688 57.9248 68.6816 58 68.2715 58H64.0469C63.6367 58 63.3428 57.9248 63.165 57.7744C63.001 57.6104 62.9189 57.3232 62.9189 56.9131V39.7275C62.9189 39.3994 62.9873 39.1465 63.124 38.9688C63.4111 38.5859 63.7529 38.1963 64.1494 37.7998C64.5596 37.4033 65.0586 36.9795 65.6465 36.5283C65.8242 36.3916 65.9951 36.3232 66.1592 36.3232C66.3096 36.3232 66.4805 36.3916 66.6719 36.5283C67.2461 36.9795 67.7383 37.4102 68.1484 37.8203C68.5586 38.2305 68.9209 38.6543 69.2354 39.0918H69.3379C69.5703 38.791 69.9189 38.4424 70.3838 38.0459C70.8486 37.6357 71.498 37.2734 72.332 36.959C73.1797 36.6445 74.2598 36.4873 75.5723 36.4873C76.8574 36.4873 78.0811 36.7471 79.2432 37.2666C80.4053 37.7861 81.3555 38.6611 82.0938 39.8916C82.8457 41.1221 83.2217 42.8037 83.2217 44.9365ZM96.6543 58.5127C92.0879 58.5127 89.8047 56.1406 89.8047 51.3965V41.7783H87.4873C87.0771 41.7783 86.79 41.6963 86.626 41.5322C86.4756 41.3545 86.4004 41.0605 86.4004 40.6504V38.1279C86.4004 37.7178 86.4756 37.4307 86.626 37.2666C86.79 37.0889 87.0771 37 87.4873 37H89.8047V33.6982C89.8047 33.3701 89.873 33.1172 90.0098 32.9395C90.584 32.1875 91.4248 31.374 92.5322 30.499C92.7236 30.3623 92.8945 30.2939 93.0449 30.2939C93.209 30.2939 93.373 30.3623 93.5371 30.499C94.125 30.9502 94.6172 31.374 95.0137 31.7705C95.4238 32.167 95.7725 32.5566 96.0596 32.9395C96.1963 33.1172 96.2646 33.3701 96.2646 33.6982V37H99.8945C100.305 37 100.585 37.0889 100.735 37.2666C100.899 37.4307 100.981 37.7178 100.981 38.1279V40.6504C100.981 41.0605 100.899 41.3545 100.735 41.5322C100.585 41.6963 100.305 41.7783 99.8945 41.7783H96.2646V50.2686C96.2646 52.4561 97.0576 53.5498 98.6436 53.5498C98.8896 53.5498 99.1152 53.5293 99.3203 53.4883C99.5254 53.4336 99.7031 53.3789 99.8535 53.3242C100.141 53.2148 100.339 53.1738 100.448 53.2012C100.571 53.2285 100.681 53.3789 100.776 53.6523L101.966 56.8311C102.089 57.1729 102.007 57.4189 101.72 57.5693C101.515 57.665 101.016 57.8428 100.223 58.1025C99.4434 58.376 98.2539 58.5127 96.6543 58.5127ZM115.296 58.5127C112.985 58.5127 110.976 58.1436 109.267 57.4053C107.558 56.6533 106.231 55.4912 105.288 53.9189C104.345 52.3467 103.873 50.3164 103.873 47.8281C103.873 44.0957 104.83 41.2725 106.744 39.3584C108.658 37.4443 111.201 36.4873 114.373 36.4873C116.438 36.4873 118.181 36.8564 119.603 37.5947C121.038 38.333 122.125 39.3516 122.863 40.6504C123.615 41.9492 123.991 43.4326 123.991 45.1006C123.991 46.7275 123.574 47.8623 122.74 48.5049C121.906 49.1475 120.689 49.4688 119.09 49.4688H110.292C110.401 50.877 110.914 51.9502 111.83 52.6885C112.76 53.4268 114.018 53.7959 115.604 53.7959C116.861 53.7959 117.866 53.6113 118.618 53.2422C119.384 52.8594 119.917 52.5586 120.218 52.3398C120.478 52.1484 120.771 52.0596 121.1 52.0732C121.359 52.0732 121.729 52.1279 122.207 52.2373C122.699 52.333 123.185 52.5176 123.663 52.791C124.005 52.9688 124.176 53.2148 124.176 53.5293C124.176 53.707 124.142 53.96 124.073 54.2881C124.032 54.4795 123.964 54.7598 123.868 55.1289C123.772 55.4844 123.649 55.8193 123.499 56.1338C123.417 56.2842 123.287 56.4277 123.109 56.5645C122.836 56.7559 122.392 57.0088 121.776 57.3232C121.175 57.6377 120.348 57.9111 119.295 58.1436C118.242 58.3896 116.909 58.5127 115.296 58.5127ZM110.251 45.2646H116.937C117.634 45.2646 117.982 44.9434 117.982 44.3008C117.982 43.3301 117.675 42.5166 117.06 41.8604C116.458 41.1904 115.549 40.8555 114.332 40.8555C113.006 40.8555 112.028 41.2793 111.399 42.127C110.784 42.9746 110.401 44.0205 110.251 45.2646ZM134.983 40.8965H135.065C136.091 38.0527 137.937 36.6309 140.603 36.6309C140.944 36.6309 141.225 36.6514 141.443 36.6924C141.662 36.7197 141.812 36.7471 141.895 36.7744C142.1 36.8428 142.202 37 142.202 37.2461V42.1885C142.202 42.6123 141.956 42.7285 141.464 42.5371C141.3 42.4688 141.061 42.4004 140.746 42.332C140.445 42.25 140.021 42.209 139.475 42.209C138.066 42.209 136.966 42.7285 136.173 43.7676C135.38 44.793 134.983 46.1943 134.983 47.9717V56.9131C134.983 57.3232 134.895 57.6104 134.717 57.7744C134.553 57.9248 134.266 58 133.855 58H129.631C129.221 58 128.927 57.9248 128.749 57.7744C128.585 57.6104 128.503 57.3232 128.503 56.9131V39.7275C128.503 39.3994 128.571 39.1465 128.708 38.9688C128.995 38.5859 129.337 38.1963 129.733 37.7998C130.144 37.4033 130.643 36.9795 131.23 36.5283C131.34 36.4463 131.449 36.3916 131.559 36.3643C131.668 36.3369 131.764 36.3232 131.846 36.3232C132.037 36.3232 132.229 36.3916 132.42 36.5283C133.555 37.417 134.348 38.1758 134.799 38.8047C134.922 38.9688 134.983 39.1602 134.983 39.3789V40.8965ZM177.188 44.9365V56.9131C177.188 57.3232 177.1 57.6104 176.922 57.7744C176.758 57.9248 176.471 58 176.061 58H171.836C171.426 58 171.132 57.9248 170.954 57.7744C170.79 57.6104 170.708 57.3232 170.708 56.9131V46.0029C170.708 44.5127 170.394 43.4258 169.765 42.7422C169.136 42.0586 168.281 41.7168 167.201 41.7168C166.121 41.7168 165.287 41.9492 164.699 42.4141C164.125 42.8789 163.681 43.4668 163.366 44.1777V56.9131C163.366 57.3232 163.277 57.6104 163.1 57.7744C162.936 57.9248 162.648 58 162.238 58H158.014C157.604 58 157.31 57.9248 157.132 57.7744C156.968 57.6104 156.886 57.3232 156.886 56.9131V39.7275C156.886 39.3994 156.954 39.1465 157.091 38.9688C157.378 38.5859 157.72 38.1963 158.116 37.7998C158.526 37.4033 159.025 36.9795 159.613 36.5283C159.791 36.3916 159.962 36.3232 160.126 36.3232C160.276 36.3232 160.447 36.3916 160.639 36.5283C161.213 36.9795 161.705 37.4102 162.115 37.8203C162.525 38.2305 162.888 38.6543 163.202 39.0918H163.305C163.537 38.791 163.886 38.4424 164.351 38.0459C164.815 37.6357 165.465 37.2734 166.299 36.959C167.146 36.6445 168.227 36.4873 169.539 36.4873C170.824 36.4873 172.048 36.7471 173.21 37.2666C174.372 37.7861 175.322 38.6611 176.061 39.8916C176.812 41.1221 177.188 42.8037 177.188 44.9365ZM188.16 58.5127C186.15 58.5127 184.551 57.9521 183.361 56.8311C182.186 55.6963 181.598 54.1377 181.598 52.1553C181.598 51.1299 181.782 50.1797 182.151 49.3047C182.534 48.416 183.19 47.6367 184.12 46.9668C185.063 46.2832 186.376 45.7363 188.058 45.3262C189.753 44.916 191.913 44.6768 194.538 44.6084C194.538 43.3643 194.224 42.4688 193.595 41.9219C192.979 41.375 192.05 41.1016 190.806 41.1016C189.685 41.1016 188.769 41.293 188.058 41.6758C187.347 42.0586 186.902 42.3184 186.725 42.4551C186.533 42.6191 186.301 42.6807 186.027 42.6396C185.658 42.585 185.262 42.4893 184.838 42.3525C184.428 42.2158 183.983 42.0586 183.505 41.8809C183.437 41.8535 183.361 41.8125 183.279 41.7578C183.197 41.6895 183.149 41.5938 183.136 41.4707C183.136 41.4023 183.143 41.3203 183.156 41.2246C183.17 41.1152 183.204 40.9238 183.259 40.6504C183.313 40.377 183.396 40.042 183.505 39.6455C183.614 39.2354 183.717 38.9209 183.812 38.7021C183.936 38.4697 184.141 38.251 184.428 38.0459C184.66 37.8545 185.364 37.5469 186.54 37.123C187.716 36.6992 189.418 36.4873 191.646 36.4873C197.785 36.4873 200.854 39.4746 200.854 45.4492V57.0566C200.854 57.3164 200.779 57.542 200.629 57.7334C200.492 57.9111 200.253 58 199.911 58H196.835C196.616 58 196.418 57.9727 196.24 57.918C196.076 57.8496 195.919 57.7266 195.769 57.5488L194.497 55.9082H194.354C193.725 56.8242 192.877 57.4873 191.811 57.8975C190.758 58.3076 189.541 58.5127 188.16 58.5127ZM190.416 53.7549C191.674 53.7549 192.624 53.4336 193.267 52.791C193.909 52.1484 194.319 51.4854 194.497 50.8018V48.5254C192.597 48.5254 191.168 48.6758 190.211 48.9766C189.268 49.2637 188.639 49.6465 188.324 50.125C188.01 50.5898 187.853 51.0957 187.853 51.6426C187.853 52.4355 188.099 52.9893 188.591 53.3037C189.083 53.6045 189.691 53.7549 190.416 53.7549ZM224.972 39.1533C225.478 38.5381 226.257 37.9434 227.31 37.3691C228.376 36.7812 229.873 36.4873 231.801 36.4873C234.535 36.4873 236.511 37.1914 237.728 38.5996C238.944 40.0078 239.553 42.1201 239.553 44.9365V56.9131C239.553 57.3232 239.464 57.6104 239.286 57.7744C239.122 57.9248 238.835 58 238.425 58H234.2C233.79 58 233.496 57.9248 233.318 57.7744C233.154 57.6104 233.072 57.3232 233.072 56.9131V46.0029C233.072 44.4717 232.792 43.3779 232.231 42.7217C231.671 42.0518 230.83 41.7168 229.709 41.7168C228.711 41.7168 227.918 41.9424 227.33 42.3936C226.756 42.8311 226.346 43.4258 226.1 44.1777V56.9131C226.1 57.3232 226.011 57.6104 225.833 57.7744C225.669 57.9248 225.382 58 224.972 58H220.747C220.337 58 220.043 57.9248 219.865 57.7744C219.701 57.6104 219.619 57.3232 219.619 56.9131V46.0029C219.619 44.5127 219.312 43.4258 218.696 42.7422C218.081 42.0586 217.274 41.7168 216.276 41.7168C215.333 41.7168 214.574 41.9492 214 42.4141C213.426 42.8789 212.981 43.4668 212.667 44.1777V56.9131C212.667 57.3232 212.578 57.6104 212.4 57.7744C212.236 57.9248 211.949 58 211.539 58H207.314C206.904 58 206.61 57.9248 206.433 57.7744C206.269 57.6104 206.187 57.3232 206.187 56.9131V39.7275C206.187 39.3994 206.255 39.1465 206.392 38.9688C206.679 38.5859 207.021 38.1963 207.417 37.7998C207.827 37.4033 208.326 36.9795 208.914 36.5283C209.092 36.3916 209.263 36.3232 209.427 36.3232C209.577 36.3232 209.748 36.3916 209.939 36.5283C210.514 36.9795 211.006 37.4102 211.416 37.8203C211.826 38.2305 212.188 38.6543 212.503 39.0918H212.605C213.07 38.5039 213.795 37.9229 214.779 37.3486C215.764 36.7744 217.172 36.4873 219.004 36.4873C220.754 36.4873 222.053 36.7539 222.9 37.2871C223.748 37.8066 224.438 38.4287 224.972 39.1533ZM255.405 58.5127C253.095 58.5127 251.085 58.1436 249.376 57.4053C247.667 56.6533 246.341 55.4912 245.397 53.9189C244.454 52.3467 243.982 50.3164 243.982 47.8281C243.982 44.0957 244.939 41.2725 246.854 39.3584C248.768 37.4443 251.311 36.4873 254.482 36.4873C256.547 36.4873 258.29 36.8564 259.712 37.5947C261.147 38.333 262.234 39.3516 262.973 40.6504C263.725 41.9492 264.101 43.4326 264.101 45.1006C264.101 46.7275 263.684 47.8623 262.85 48.5049C262.016 49.1475 260.799 49.4688 259.199 49.4688H250.401C250.511 50.877 251.023 51.9502 251.939 52.6885C252.869 53.4268 254.127 53.7959 255.713 53.7959C256.971 53.7959 257.976 53.6113 258.728 53.2422C259.493 52.8594 260.026 52.5586 260.327 52.3398C260.587 52.1484 260.881 52.0596 261.209 52.0732C261.469 52.0732 261.838 52.1279 262.316 52.2373C262.809 52.333 263.294 52.5176 263.772 52.791C264.114 52.9688 264.285 53.2148 264.285 53.5293C264.285 53.707 264.251 53.96 264.183 54.2881C264.142 54.4795 264.073 54.7598 263.978 55.1289C263.882 55.4844 263.759 55.8193 263.608 56.1338C263.526 56.2842 263.396 56.4277 263.219 56.5645C262.945 56.7559 262.501 57.0088 261.886 57.3232C261.284 57.6377 260.457 57.9111 259.404 58.1436C258.352 58.3896 257.019 58.5127 255.405 58.5127ZM250.36 45.2646H257.046C257.743 45.2646 258.092 44.9434 258.092 44.3008C258.092 43.3301 257.784 42.5166 257.169 41.8604C256.567 41.1904 255.658 40.8555 254.441 40.8555C253.115 40.8555 252.138 41.2793 251.509 42.127C250.894 42.9746 250.511 44.0205 250.36 45.2646ZM267.997 53.4678C267.997 53.2764 268.059 53.1123 268.182 52.9756C268.305 52.8252 268.462 52.627 268.653 52.3809C269.077 51.9023 269.562 51.4033 270.109 50.8838C270.67 50.3506 271.23 49.8379 271.791 49.3457C272.146 49.0586 272.413 48.915 272.591 48.915C272.755 48.915 273.028 49.0586 273.411 49.3457C274.601 50.3574 275.633 51.3691 276.508 52.3809C276.699 52.6133 276.856 52.8047 276.979 52.9551C277.103 53.1055 277.164 53.2764 277.164 53.4678C277.164 53.6592 277.096 53.8301 276.959 53.9805C276.836 54.1309 276.679 54.3359 276.487 54.5957C276.077 55.0605 275.599 55.5527 275.052 56.0723C274.519 56.5918 273.972 57.0977 273.411 57.5898C273.056 57.877 272.782 58.0205 272.591 58.0205C272.427 58.0205 272.146 57.877 271.75 57.5898C271.148 57.0977 270.588 56.5918 270.068 56.0723C269.549 55.5391 269.077 55.0264 268.653 54.5342C268.462 54.3018 268.305 54.1172 268.182 53.9805C268.059 53.8301 267.997 53.6592 267.997 53.4678ZM267.997 40.6914C267.997 40.5 268.059 40.3359 268.182 40.1992C268.305 40.0488 268.462 39.8506 268.653 39.6045C269.077 39.126 269.562 38.627 270.109 38.1074C270.67 37.5742 271.23 37.0615 271.791 36.5693C272.146 36.2822 272.413 36.1387 272.591 36.1387C272.755 36.1387 273.028 36.2822 273.411 36.5693C274.601 37.5811 275.633 38.5928 276.508 39.6045C276.699 39.8369 276.856 40.0283 276.979 40.1787C277.103 40.3291 277.164 40.5 277.164 40.6914C277.164 40.8828 277.096 41.0537 276.959 41.2041C276.836 41.3545 276.679 41.5596 276.487 41.8193C276.077 42.2842 275.599 42.7764 275.052 43.2959C274.519 43.8154 273.972 44.3213 273.411 44.8135C273.056 45.1006 272.782 45.2441 272.591 45.2441C272.427 45.2441 272.146 45.1006 271.75 44.8135C271.148 44.3213 270.588 43.8154 270.068 43.2959C269.549 42.7627 269.077 42.25 268.653 41.7578C268.462 41.5254 268.305 41.3408 268.182 41.2041C268.059 41.0537 267.997 40.8828 267.997 40.6914Z" fill="white"/>
</svg>
