<svg width="50" height="49" viewBox="0 0 50 49" fill="none" xmlns="http://www.w3.org/2000/svg">
<path d="M30.3732 46.6692C25.2516 46.516 21.0329 45.4867 16.9964 43.6662C15.7117 43.0877 14.3662 42.6454 13.0555 42.152C11.3193 41.4969 9.80025 40.4931 9.019 38.8343C7.2308 35.0317 5.3558 31.2376 3.96691 27.2818C2.67351 23.5983 3.47212 19.9063 5.79851 16.7587C7.60407 14.3172 8.69782 11.6971 9.48775 8.80475C10.46 5.25735 13.1423 3.29225 16.7881 2.52662C18.4634 2.17784 20.052 2.28843 21.6492 2.89242C23.1336 3.45388 24.67 3.54746 26.2239 3.13062C29.1058 2.35649 31.736 3.15614 34.3141 4.37263C35.5207 4.93409 36.7534 5.52958 38.0468 5.8103C42.3089 6.72905 44.4964 9.4768 45.078 13.4751C45.3645 15.4572 45.1996 17.5244 45.052 19.5405C44.9218 21.3014 45.1127 22.9688 45.6857 24.6277C47.17 28.9322 46.9443 33.1431 44.9131 37.252C43.6718 39.77 41.6405 41.4714 39.1752 42.773C37.4478 43.6832 35.7291 44.619 34.0537 45.6228C32.6996 46.431 31.2499 46.7117 30.3732 46.6692ZM30.3298 45.0869C31.6666 45.1039 32.6822 44.687 34.045 43.6577C34.9652 42.9686 36.0589 42.4923 37.0746 41.9308C38.2725 41.2758 39.6787 40.8334 40.6509 39.9402C44.7829 36.1291 45.7204 31.2461 44.3315 26.1334C43.4374 22.8327 43.1683 19.6681 43.5589 16.3334C44.0624 11.9778 41.6318 8.70267 37.3697 7.54572C35.894 7.1459 34.4791 6.46534 33.0902 5.8103C31.3107 4.97662 29.4791 4.25353 27.5173 4.71291C24.9652 5.30839 22.5346 5.12124 20.0867 4.31308C19.2881 4.04937 18.3853 3.81117 17.5693 3.90475C14.2881 4.27905 11.9877 6.1761 11.1631 9.18756C10.269 12.4627 8.76726 15.3126 6.90962 18.1284C4.98254 21.0547 4.47039 24.3895 5.84191 27.7497C7.19608 31.0759 8.67177 34.3596 10.1301 37.6433C10.8506 39.2766 12.118 40.3655 13.828 40.9865C15.4426 41.5735 17.0746 42.1265 18.6457 42.8155C22.1093 44.3212 25.7811 44.8317 30.3298 45.0869Z" fill="#FFFFFF"/>
<path d="M26.6231 33.628C22.9425 33.7811 19.5658 33.2111 16.9356 30.5229C16.4842 30.0636 16.0588 29.5531 15.7897 28.9832C15.6595 28.7195 15.5467 28.2175 16.0501 27.9453C16.3626 27.7752 16.762 27.9538 17.0137 28.141C17.6474 28.6004 18.1769 29.2044 18.8192 29.6637C21.8401 31.85 25.1821 32.5306 28.8019 31.4927C30.6335 30.9738 31.9095 29.6552 33.038 28.209C33.4547 27.6816 33.9147 26.882 34.6699 27.4349C35.4251 27.9964 34.7481 28.6769 34.3574 29.1873C32.387 31.7564 30.0085 33.645 26.6231 33.628Z" fill="#FFFFFF"/>
<path d="M38.1597 19.6595C38.151 20.6973 37.3438 21.531 36.3889 21.514C35.3993 21.497 34.5747 20.6378 34.6007 19.6595C34.6267 18.5876 35.3906 17.7369 36.3194 17.7539C37.3611 17.7624 38.1771 18.6046 38.1597 19.6595Z" fill="#FFFFFF"/>
<path d="M15.46 21.0376C15.4513 22.0755 14.644 22.9092 13.6892 22.8922C12.6996 22.8751 11.8749 22.0159 11.901 21.0376C11.927 19.9658 12.6909 19.1151 13.6197 19.1321C14.6527 19.1406 15.4687 19.9828 15.46 21.0376Z" fill="#FFFFFF"/>
</svg>
