<svg width="50" height="51" viewBox="0 0 50 51" fill="none" xmlns="http://www.w3.org/2000/svg">
<path d="M3.177 24.3754C3.46346 17.2124 6.40617 10.0936 13.3853 5.19729C15.2517 3.88687 17.4912 3.05458 19.6527 2.26656C30.269 -1.59386 43.3159 5.92333 46.1371 19.6207C48.1596 29.4223 45.7725 38.0462 38.203 44.6337C27.8905 53.6119 12.6041 50.2916 6.18047 37.9134C4.19263 34.0884 3.18568 29.9978 3.177 24.3754ZM6.22388 24.2426C6.24124 30.1926 7.59541 34.6994 10.4166 38.7369C16.4496 47.3785 27.4044 49.3265 35.5294 43.1905C46.5885 34.841 46.9444 16.5395 36.2499 7.70302C29.6267 2.23114 19.5051 2.01864 12.9339 8.71239C8.43742 13.29 6.302 18.8327 6.22388 24.2426Z" fill="#21242C"/>
<path d="M31.0764 34.0619C31.059 35.0536 30.651 36.4171 29.7743 37.6035C28.2639 39.6577 25.4774 39.9588 23.5503 38.2942C21.6146 36.6207 20.9288 33.4067 22.2049 31.1754C23.0295 29.7233 25.3906 27.8817 27.3698 28.5634C29.5486 29.316 31.0764 31.1489 31.0764 34.0619ZM23.6892 34.0088C23.6892 34.7348 23.75 35.2395 24.184 35.9213C25.4254 37.8692 27.7604 37.7187 28.75 35.6379C29.0017 35.1155 29.1406 34.5134 29.2274 33.9291C29.4965 32.0608 28.1337 30.352 26.3629 30.2812C24.974 30.228 23.6892 31.4145 23.6892 34.0088Z" fill="#21242C"/>
<path d="M32.769 15.8667C32.8645 15.2115 33.3072 14.9548 33.6458 14.9193C33.9756 14.8839 34.5138 14.9193 34.7048 15.6454C35.3906 18.6381 35.5642 19.8688 35.5642 22.6225C35.5642 23.8886 34.8437 24.2871 34.592 24.2959C34.2274 24.3048 33.8368 24.11 33.394 23.2777C32.8819 22.3214 32.3697 18.7266 32.769 15.8667Z" fill="#21242C"/>
<path d="M14.4619 17.7524C14.54 17.3717 14.6528 16.8493 15.3125 16.743C15.8594 16.7076 16.1546 17.3362 16.2327 17.6638C16.6841 19.5941 17.0226 21.4269 16.8403 25.1102C16.8056 25.7831 16.6754 26.5092 15.8073 26.5446C14.9393 26.58 14.7917 25.8717 14.6441 25.1987C14.2709 23.4279 14.0799 19.5498 14.4619 17.7524Z" fill="#21242C"/>
</svg>
