<svg width="50" height="50" viewBox="0 0 50 50" fill="none" xmlns="http://www.w3.org/2000/svg">
<path d="M3.177 23.9844C3.46346 16.8751 6.40617 9.89591 13.3853 5.09556C15.2517 3.81084 17.4912 2.99486 19.6527 2.22229C30.269 -1.56243 43.3159 5.81604 46.1371 19.2362C48.1596 28.8456 45.7725 37.3004 38.203 43.7588C27.8905 52.5608 12.6041 49.3056 6.18915 37.1702C4.18395 33.3942 3.19436 29.4532 3.177 23.9844ZM24.7742 45.8681C29.8089 45.7726 33.8714 44.132 37.2135 40.9028C42.7256 35.573 44.7916 28.9584 43.8454 21.4584C43.0989 15.5556 40.3819 10.6598 35.5642 7.03132C31.0242 3.61986 25.8853 2.90806 20.5121 4.09729C18.6544 4.50528 16.8489 5.58167 15.2603 6.69278C5.79853 13.3334 3.33325 27.1442 9.80027 37.0487C13.394 42.5522 18.4461 45.6772 24.7742 45.8681Z" fill="#21242C"/>
<path d="M37.17 28.1684C36.6665 27.8559 36.2238 27.6823 35.9374 27.3611C35.7204 27.1268 35.5207 26.8403 35.6596 26.3802C35.7724 26.007 36.2759 25.9375 36.4929 26.0157C37.8992 26.5712 39.2881 27.1702 40.6336 27.8559C40.8766 27.9775 41.1804 28.4115 40.9721 28.8889C40.7377 29.4184 40.4252 29.4445 39.8697 29.3403C39.5311 29.2796 39.1665 29.1146 38.7412 28.9671C36.5103 34.6875 32.3176 37.9167 26.2065 38.2118C20.2863 38.4983 15.6422 35.7726 11.9096 31.224C11.4322 31.4931 10.9634 31.875 10.4252 32.0226C9.99987 32.1355 9.1405 32.3264 9.03633 31.9098C8.76723 31.2761 9.23598 30.9375 9.5398 30.6945C10.6249 29.7917 11.7707 28.941 12.9686 28.1945C13.3419 27.9601 14.0624 27.6563 14.427 28.1164C14.8957 28.7066 14.4183 29.0886 14.0537 29.4966C13.8974 29.6702 13.7151 29.8264 13.4721 30.0521C17.361 34.4271 22.0138 36.9011 27.9513 35.9202C32.4304 35.1823 35.3992 32.4219 37.17 28.1684Z" fill="#21242C"/>
<path d="M32.7169 17.8126C32.6822 16.9098 32.6128 16.3456 32.7603 15.6511C32.8471 15.2432 33.3072 14.6702 33.6544 14.6268C34.1839 14.5574 34.618 15.0609 34.7482 15.4341C35.5815 17.8039 35.92 20.2605 35.5728 22.7518C35.5121 23.1685 34.9391 23.7848 34.5746 23.8022C34.1926 23.8195 33.5937 23.6286 33.4287 22.9081C33.0294 21.2414 32.743 18.3768 32.7169 17.8126Z" fill="#21242C"/>
<path d="M14.2534 20.7292C14.2534 19.0973 14.2795 18.3594 14.4618 17.4219C14.5312 17.0487 14.7395 16.415 15.2951 16.4237C15.7638 16.3542 16.1545 16.9966 16.2239 17.3178C16.6319 19.3143 16.8402 22.1355 16.8402 24.6181C16.8402 25.2778 16.684 26.007 15.8159 26.033C14.8958 26.0678 14.7222 25.3299 14.6354 24.6268C14.4531 23.1858 14.3142 22.1789 14.2534 20.7292Z" fill="#21242C"/>
</svg>
