<svg width="679" height="150" viewBox="0 0 679 150" fill="none" xmlns="http://www.w3.org/2000/svg">
<g clip-path="url(#clip0_140_3915)">
<g clip-path="url(#clip1_140_3915)">
<path d="M4 20C4 11.1634 11.1634 4 20 4H93V146H20C11.1634 146 4 138.837 4 130V20Z" fill="#FFB100" stroke="#FFB100" stroke-width="8"/>
<path d="M50.3203 105.977C46.0755 105.977 42.7292 105.625 40.2812 104.922C37.8333 104.193 36.0365 103.516 34.8906 102.891C34.1094 102.5 33.9141 101.862 34.3047 100.977L37 94.6094C37.2865 93.9323 37.599 93.5547 37.9375 93.4766C38.276 93.3984 38.7448 93.5026 39.3438 93.7891C40.3854 94.2839 41.7786 94.8047 43.5234 95.3516C45.2943 95.8724 47.3646 96.1328 49.7344 96.1328C52.6771 96.1328 55.0078 95.5208 56.7266 94.2969C58.4714 93.0729 59.3438 91.25 59.3438 88.8281C59.3438 86.3281 58.25 84.4401 56.0625 83.1641C53.901 81.862 50.9193 81.2109 47.1172 81.2109H46.2188C45.5938 81.2109 45.125 81.1068 44.8125 80.8984C44.1354 80.4557 43.4323 79.9349 42.7031 79.3359C42 78.7109 41.2318 77.9557 40.3984 77.0703C40.138 76.7318 40.0078 76.4714 40.0078 76.2891C40.0078 76.0547 40.138 75.7943 40.3984 75.5078C41.2318 74.6224 42 73.8802 42.7031 73.2812C43.4323 72.6562 44.1354 72.1224 44.8125 71.6797C45.1771 71.4714 45.6458 71.3672 46.2188 71.3672H46.7266C54.0182 71.3672 57.6641 69.0104 57.6641 64.2969C57.6641 60.026 55.0208 57.8906 49.7344 57.8906C47.9115 57.8906 46.2318 58.125 44.6953 58.5938C43.1589 59.0625 41.9219 59.5312 40.9844 60C40.3854 60.2865 39.9167 60.3906 39.5781 60.3125C39.2656 60.2083 38.9661 59.8438 38.6797 59.2188L36.0625 53.2422C35.6979 52.3828 35.8932 51.7318 36.6484 51.2891C37.7943 50.6901 39.6302 50 42.1562 49.2188C44.6823 48.4375 47.9896 48.0469 52.0781 48.0469C55.4896 48.0469 58.5625 48.5677 61.2969 49.6094C64.0312 50.651 66.2057 52.2005 67.8203 54.2578C69.4349 56.3151 70.2422 58.8802 70.2422 61.9531C70.2422 69.2708 66.5312 73.8542 59.1094 75.7031V75.8984C62.9115 76.3932 65.9974 77.7865 68.3672 80.0781C70.737 82.3698 71.9219 85.3385 71.9219 88.9844C71.9219 92.7344 70.9844 95.8724 69.1094 98.3984C67.2604 100.924 64.7083 102.826 61.4531 104.102C58.1979 105.352 54.487 105.977 50.3203 105.977Z" fill="white"/>
</g>
<mask id="path-3-inside-1_140_3915" fill="white">
<path d="M97 0H659C670.046 0 679 8.95431 679 20V130C679 141.046 670.046 150 659 150H97V0Z"/>
</mask>
<path d="M97 0H659C670.046 0 679 8.95431 679 20V130C679 141.046 670.046 150 659 150H97V0Z" fill="white"/>
<path d="M97 -8H659C674.464 -8 687 4.53603 687 20H671C671 13.3726 665.627 8 659 8H97V-8ZM687 130C687 145.464 674.464 158 659 158H97V142H659C665.627 142 671 136.627 671 130H687ZM97 150V0V150ZM659 -8C674.464 -8 687 4.53603 687 20V130C687 145.464 674.464 158 659 158V142C665.627 142 671 136.627 671 130V20C671 13.3726 665.627 8 659 8V-8Z" fill="#FFB100" mask="url(#path-3-inside-1_140_3915)"/>
</g>
<defs>
<clipPath id="clip0_140_3915">
<rect width="679" height="150" fill="white"/>
</clipPath>
<clipPath id="clip1_140_3915">
<rect width="97" height="150" fill="white"/>
</clipPath>
</defs>
</svg>
