<svg width="679" height="150" viewBox="0 0 679 150" fill="none" xmlns="http://www.w3.org/2000/svg">
<g clip-path="url(#clip0_1_56)">
<g clip-path="url(#clip1_1_56)">
<path d="M20 4H93V146H20C11.1634 146 4 138.837 4 130V20C4 11.1634 11.1634 4 20 4Z" fill="#D92916" stroke="#D92916" stroke-width="8"/>
<path d="M35.3203 101.68V100.781C35.3203 97.9167 35.7891 95.3385 36.7266 93.0469C37.6641 90.7292 38.875 88.6589 40.3594 86.8359C41.8698 84.987 43.4844 83.3594 45.2031 81.9531C46.9219 80.5208 48.5625 79.2448 50.125 78.125C53.4062 75.7812 55.8802 73.6458 57.5469 71.7188C59.2396 69.7656 60.0859 67.5781 60.0859 65.1562C60.0859 60.3125 57.4297 57.8906 52.1172 57.8906C50.0078 57.8906 48.1458 58.2292 46.5312 58.9062C44.9167 59.5833 43.6146 60.2604 42.625 60.9375C42.0521 61.3281 41.5964 61.4974 41.2578 61.4453C40.9193 61.3932 40.5677 61.0417 40.2031 60.3906L36.8828 54.5703C36.4141 53.763 36.5573 53.099 37.3125 52.5781C38.7708 51.5885 40.8802 50.5859 43.6406 49.5703C46.4271 48.5547 50.0469 48.0469 54.5 48.0469C60.2031 48.0469 64.6562 49.4792 67.8594 52.3438C71.0625 55.2083 72.6641 59.0755 72.6641 63.9453C72.6641 67.3568 71.987 70.2995 70.6328 72.7734C69.2786 75.2474 67.5208 77.4349 65.3594 79.3359C63.1979 81.237 60.8802 83.0469 58.4062 84.7656C55.8802 86.5104 53.6536 88.2422 51.7266 89.9609C49.7995 91.6797 48.8359 93.2812 48.8359 94.7656H69.0703C69.6953 94.7656 70.1641 94.8698 70.4766 95.0781C71.1536 95.5469 71.8568 96.1068 72.5859 96.7578C73.3151 97.4089 74.0833 98.1901 74.8906 99.1016C75.151 99.4401 75.2812 99.7005 75.2812 99.8828C75.2812 100.117 75.151 100.378 74.8906 100.664C74.0833 101.576 73.3151 102.357 72.5859 103.008C71.8568 103.659 71.1536 104.219 70.4766 104.688C70.112 104.896 69.6432 105 69.0703 105H38.2109C37.0911 105 36.3229 104.714 35.9062 104.141C35.5156 103.542 35.3203 102.721 35.3203 101.68Z" fill="white"/>
</g>
<mask id="path-3-inside-1_1_56" fill="white">
<path d="M97 0H659C670.046 0 679 8.95431 679 20V130C679 141.046 670.046 150 659 150H97V0Z"/>
</mask>
<path d="M97 0H659C670.046 0 679 8.95431 679 20V130C679 141.046 670.046 150 659 150H97V0Z" fill="white"/>
<path d="M97 -8H659C674.464 -8 687 4.53603 687 20H671C671 13.3726 665.627 8 659 8H97V-8ZM687 130C687 145.464 674.464 158 659 158H97V142H659C665.627 142 671 136.627 671 130H687ZM97 150V0V150ZM659 -8C674.464 -8 687 4.53603 687 20V130C687 145.464 674.464 158 659 158V142C665.627 142 671 136.627 671 130V20C671 13.3726 665.627 8 659 8V-8Z" fill="#D92916" mask="url(#path-3-inside-1_1_56)"/>
</g>
<path d="M146.736 48.4H139.76V68H135.456V48.4H128.48V44.864H146.736V48.4ZM152.81 53.344C153.45 52.7467 154.154 52.2613 154.922 51.888C155.69 51.5147 156.592 51.328 157.626 51.328C158.522 51.328 159.317 51.4827 160.01 51.792C160.704 52.0907 161.28 52.5173 161.738 53.072C162.208 53.616 162.56 54.272 162.794 55.04C163.04 55.7973 163.162 56.6347 163.162 57.552V68H159.21V57.552C159.21 56.5493 158.981 55.776 158.522 55.232C158.064 54.6773 157.365 54.4 156.426 54.4C155.744 54.4 155.104 54.5547 154.506 54.864C153.909 55.1733 153.344 55.5947 152.81 56.128V68H148.858V44.224H152.81V53.344ZM177.497 57.904C177.497 57.392 177.422 56.912 177.273 56.464C177.134 56.0053 176.921 55.6053 176.633 55.264C176.345 54.9227 175.977 54.656 175.529 54.464C175.091 54.2613 174.579 54.16 173.993 54.16C172.851 54.16 171.95 54.4853 171.289 55.136C170.638 55.7867 170.222 56.7093 170.041 57.904H177.497ZM169.961 60.288C170.025 61.1307 170.174 61.8613 170.409 62.48C170.643 63.088 170.953 63.5947 171.337 64C171.721 64.3947 172.174 64.6933 172.697 64.896C173.23 65.088 173.817 65.184 174.457 65.184C175.097 65.184 175.646 65.1093 176.105 64.96C176.574 64.8107 176.979 64.6453 177.321 64.464C177.673 64.2827 177.977 64.1173 178.233 63.968C178.499 63.8187 178.755 63.744 179.001 63.744C179.331 63.744 179.577 63.8667 179.737 64.112L180.873 65.552C180.435 66.064 179.945 66.496 179.401 66.848C178.857 67.1893 178.286 67.4667 177.689 67.68C177.102 67.8827 176.499 68.0267 175.881 68.112C175.273 68.1973 174.681 68.24 174.105 68.24C172.963 68.24 171.902 68.0533 170.921 67.68C169.939 67.296 169.086 66.736 168.361 66C167.635 65.2533 167.065 64.336 166.649 63.248C166.233 62.1493 166.025 60.88 166.025 59.44C166.025 58.32 166.206 57.2693 166.569 56.288C166.931 55.296 167.449 54.4373 168.121 53.712C168.803 52.976 169.63 52.3947 170.601 51.968C171.582 51.5413 172.686 51.328 173.913 51.328C174.947 51.328 175.902 51.4933 176.777 51.824C177.651 52.1547 178.403 52.64 179.033 53.28C179.662 53.9093 180.153 54.688 180.505 55.616C180.867 56.5333 181.049 57.584 181.049 58.768C181.049 59.3653 180.985 59.7707 180.857 59.984C180.729 60.1867 180.483 60.288 180.121 60.288H169.961ZM192.948 68V54.56L191.524 54.336C191.214 54.272 190.964 54.1653 190.772 54.016C190.59 53.856 190.5 53.632 190.5 53.344V51.728H192.948V50.512C192.948 49.5733 193.086 48.7307 193.364 47.984C193.652 47.2373 194.057 46.6027 194.58 46.08C195.113 45.5573 195.758 45.1573 196.516 44.88C197.273 44.6027 198.126 44.464 199.076 44.464C199.833 44.464 200.537 44.5653 201.188 44.768L201.108 46.752C201.097 46.9013 201.054 47.024 200.98 47.12C200.905 47.2053 200.804 47.2747 200.676 47.328C200.558 47.3707 200.42 47.4027 200.26 47.424C200.1 47.4347 199.929 47.44 199.748 47.44C199.278 47.44 198.857 47.4933 198.484 47.6C198.121 47.696 197.812 47.872 197.556 48.128C197.3 48.3733 197.102 48.704 196.964 49.12C196.836 49.5253 196.772 50.032 196.772 50.64V51.728H201.044V54.544H196.9V68H192.948ZM210.091 51.328C211.307 51.328 212.411 51.5253 213.403 51.92C214.406 52.3147 215.259 52.8747 215.963 53.6C216.678 54.3253 217.227 55.2107 217.611 56.256C217.995 57.3013 218.187 58.4693 218.187 59.76C218.187 61.0613 217.995 62.2347 217.611 63.28C217.227 64.3253 216.678 65.216 215.963 65.952C215.259 66.688 214.406 67.2533 213.403 67.648C212.411 68.0427 211.307 68.24 210.091 68.24C208.864 68.24 207.75 68.0427 206.747 67.648C205.744 67.2533 204.886 66.688 204.171 65.952C203.467 65.216 202.918 64.3253 202.523 63.28C202.139 62.2347 201.947 61.0613 201.947 59.76C201.947 58.4693 202.139 57.3013 202.523 56.256C202.918 55.2107 203.467 54.3253 204.171 53.6C204.886 52.8747 205.744 52.3147 206.747 51.92C207.75 51.5253 208.864 51.328 210.091 51.328ZM210.091 65.2C211.456 65.2 212.464 64.7413 213.115 63.824C213.776 62.9067 214.107 61.5627 214.107 59.792C214.107 58.0213 213.776 56.672 213.115 55.744C212.464 54.816 211.456 54.352 210.091 54.352C208.704 54.352 207.675 54.8213 207.003 55.76C206.342 56.688 206.011 58.032 206.011 59.792C206.011 61.552 206.342 62.896 207.003 63.824C207.675 64.7413 208.704 65.2 210.091 65.2ZM224.93 54.432C225.442 53.4507 226.05 52.6827 226.754 52.128C227.458 51.5627 228.29 51.28 229.25 51.28C230.007 51.28 230.615 51.4453 231.074 51.776L230.818 54.736C230.765 54.928 230.685 55.0667 230.578 55.152C230.482 55.2267 230.349 55.264 230.178 55.264C230.018 55.264 229.778 55.2373 229.458 55.184C229.149 55.1307 228.845 55.104 228.546 55.104C228.109 55.104 227.719 55.168 227.378 55.296C227.037 55.424 226.727 55.6107 226.45 55.856C226.183 56.0907 225.943 56.3787 225.73 56.72C225.527 57.0613 225.335 57.4507 225.154 57.888V68H221.202V51.584H223.522C223.927 51.584 224.21 51.6587 224.37 51.808C224.53 51.9467 224.637 52.2027 224.69 52.576L224.93 54.432ZM244.431 55.056C244.313 55.2053 244.196 55.3227 244.079 55.408C243.972 55.4933 243.812 55.536 243.599 55.536C243.396 55.536 243.199 55.4773 243.007 55.36C242.815 55.232 242.585 55.0933 242.319 54.944C242.052 54.784 241.732 54.6453 241.359 54.528C240.996 54.4 240.543 54.336 239.999 54.336C239.305 54.336 238.697 54.464 238.175 54.72C237.652 54.9653 237.215 55.3227 236.863 55.792C236.521 56.2613 236.265 56.832 236.095 57.504C235.924 58.1653 235.839 58.9173 235.839 59.76C235.839 60.6347 235.929 61.4133 236.111 62.096C236.303 62.7787 236.575 63.3547 236.927 63.824C237.279 64.2827 237.705 64.6347 238.207 64.88C238.708 65.1147 239.273 65.232 239.903 65.232C240.532 65.232 241.039 65.1573 241.423 65.008C241.817 64.848 242.148 64.6773 242.415 64.496C242.681 64.304 242.911 64.1333 243.103 63.984C243.305 63.824 243.529 63.744 243.775 63.744C244.095 63.744 244.335 63.8667 244.495 64.112L245.631 65.552C245.193 66.064 244.719 66.496 244.207 66.848C243.695 67.1893 243.161 67.4667 242.607 67.68C242.063 67.8827 241.497 68.0267 240.911 68.112C240.335 68.1973 239.759 68.24 239.183 68.24C238.169 68.24 237.215 68.0533 236.319 67.68C235.423 67.296 234.639 66.7413 233.967 66.016C233.295 65.2907 232.761 64.4053 232.367 63.36C231.983 62.304 231.791 61.104 231.791 59.76C231.791 58.5547 231.961 57.44 232.303 56.416C232.655 55.3813 233.167 54.4907 233.839 53.744C234.511 52.9867 235.343 52.3947 236.335 51.968C237.327 51.5413 238.468 51.328 239.759 51.328C240.985 51.328 242.057 51.5253 242.975 51.92C243.903 52.3147 244.735 52.88 245.471 53.616L244.431 55.056ZM258.403 57.904C258.403 57.392 258.328 56.912 258.179 56.464C258.04 56.0053 257.827 55.6053 257.539 55.264C257.251 54.9227 256.883 54.656 256.435 54.464C255.998 54.2613 255.486 54.16 254.899 54.16C253.758 54.16 252.856 54.4853 252.195 55.136C251.544 55.7867 251.128 56.7093 250.947 57.904H258.403ZM250.867 60.288C250.931 61.1307 251.08 61.8613 251.315 62.48C251.55 63.088 251.859 63.5947 252.243 64C252.627 64.3947 253.08 64.6933 253.603 64.896C254.136 65.088 254.723 65.184 255.363 65.184C256.003 65.184 256.552 65.1093 257.011 64.96C257.48 64.8107 257.886 64.6453 258.227 64.464C258.579 64.2827 258.883 64.1173 259.139 63.968C259.406 63.8187 259.662 63.744 259.907 63.744C260.238 63.744 260.483 63.8667 260.643 64.112L261.779 65.552C261.342 66.064 260.851 66.496 260.307 66.848C259.763 67.1893 259.192 67.4667 258.595 67.68C258.008 67.8827 257.406 68.0267 256.787 68.112C256.179 68.1973 255.587 68.24 255.011 68.24C253.87 68.24 252.808 68.0533 251.827 67.68C250.846 67.296 249.992 66.736 249.267 66C248.542 65.2533 247.971 64.336 247.555 63.248C247.139 62.1493 246.931 60.88 246.931 59.44C246.931 58.32 247.112 57.2693 247.475 56.288C247.838 55.296 248.355 54.4373 249.027 53.712C249.71 52.976 250.536 52.3947 251.507 51.968C252.488 51.5413 253.592 51.328 254.819 51.328C255.854 51.328 256.808 51.4933 257.683 51.824C258.558 52.1547 259.31 52.64 259.939 53.28C260.568 53.9093 261.059 54.688 261.411 55.616C261.774 56.5333 261.955 57.584 261.955 58.768C261.955 59.3653 261.891 59.7707 261.763 59.984C261.635 60.1867 261.39 60.288 261.027 60.288H250.867ZM278.174 68.256C276.745 68.256 275.646 67.856 274.878 67.056C274.121 66.2453 273.742 65.1307 273.742 63.712V54.544H272.062C271.849 54.544 271.667 54.4747 271.518 54.336C271.369 54.1973 271.294 53.9893 271.294 53.712V52.144L273.934 51.712L274.766 47.232C274.819 47.0187 274.921 46.8533 275.07 46.736C275.219 46.6187 275.411 46.56 275.646 46.56H277.694V51.728H282.078V54.544H277.694V63.44C277.694 63.952 277.817 64.352 278.062 64.64C278.318 64.928 278.665 65.072 279.102 65.072C279.347 65.072 279.55 65.0453 279.71 64.992C279.881 64.928 280.025 64.864 280.142 64.8C280.27 64.736 280.382 64.6773 280.478 64.624C280.574 64.56 280.67 64.528 280.766 64.528C280.883 64.528 280.979 64.56 281.054 64.624C281.129 64.6773 281.209 64.7627 281.294 64.88L282.478 66.8C281.902 67.28 281.241 67.6427 280.494 67.888C279.747 68.1333 278.974 68.256 278.174 68.256ZM288.56 53.344C289.2 52.7467 289.904 52.2613 290.672 51.888C291.44 51.5147 292.342 51.328 293.376 51.328C294.272 51.328 295.067 51.4827 295.76 51.792C296.454 52.0907 297.03 52.5173 297.488 53.072C297.958 53.616 298.31 54.272 298.544 55.04C298.79 55.7973 298.912 56.6347 298.912 57.552V68H294.96V57.552C294.96 56.5493 294.731 55.776 294.272 55.232C293.814 54.6773 293.115 54.4 292.176 54.4C291.494 54.4 290.854 54.5547 290.256 54.864C289.659 55.1733 289.094 55.5947 288.56 56.128V68H284.608V44.224H288.56V53.344ZM311.343 60.992C310.201 61.0453 309.241 61.1467 308.463 61.296C307.684 61.4347 307.06 61.616 306.591 61.84C306.121 62.064 305.785 62.3253 305.583 62.624C305.38 62.9227 305.279 63.248 305.279 63.6C305.279 64.2933 305.481 64.7893 305.887 65.088C306.303 65.3867 306.841 65.536 307.503 65.536C308.313 65.536 309.012 65.392 309.599 65.104C310.196 64.8053 310.777 64.3573 311.343 63.76V60.992ZM302.287 53.872C304.175 52.144 306.447 51.28 309.103 51.28C310.063 51.28 310.921 51.44 311.679 51.76C312.436 52.0693 313.076 52.5067 313.599 53.072C314.121 53.6267 314.516 54.2933 314.783 55.072C315.06 55.8507 315.199 56.704 315.199 57.632V68H313.407C313.033 68 312.745 67.9467 312.543 67.84C312.34 67.7227 312.18 67.4933 312.063 67.152L311.711 65.968C311.295 66.3413 310.889 66.672 310.495 66.96C310.1 67.2373 309.689 67.472 309.263 67.664C308.836 67.856 308.377 68 307.887 68.096C307.407 68.2027 306.873 68.256 306.287 68.256C305.593 68.256 304.953 68.1653 304.367 67.984C303.78 67.792 303.273 67.5093 302.847 67.136C302.42 66.7627 302.089 66.2987 301.855 65.744C301.62 65.1893 301.503 64.544 301.503 63.808C301.503 63.392 301.572 62.9813 301.711 62.576C301.849 62.16 302.073 61.7653 302.383 61.392C302.703 61.0187 303.113 60.6667 303.615 60.336C304.116 60.0053 304.729 59.7173 305.455 59.472C306.191 59.2267 307.044 59.0293 308.015 58.88C308.985 58.72 310.095 58.624 311.343 58.592V57.632C311.343 56.5333 311.108 55.7227 310.639 55.2C310.169 54.6667 309.492 54.4 308.607 54.4C307.967 54.4 307.433 54.4747 307.007 54.624C306.591 54.7733 306.223 54.944 305.903 55.136C305.583 55.3173 305.289 55.4827 305.023 55.632C304.767 55.7813 304.479 55.856 304.159 55.856C303.881 55.856 303.647 55.7867 303.455 55.648C303.263 55.4987 303.108 55.328 302.991 55.136L302.287 53.872ZM324.174 68.256C322.745 68.256 321.646 67.856 320.878 67.056C320.121 66.2453 319.742 65.1307 319.742 63.712V54.544H318.062C317.849 54.544 317.667 54.4747 317.518 54.336C317.369 54.1973 317.294 53.9893 317.294 53.712V52.144L319.934 51.712L320.766 47.232C320.819 47.0187 320.921 46.8533 321.07 46.736C321.219 46.6187 321.411 46.56 321.646 46.56H323.694V51.728H328.078V54.544H323.694V63.44C323.694 63.952 323.817 64.352 324.062 64.64C324.318 64.928 324.665 65.072 325.102 65.072C325.347 65.072 325.55 65.0453 325.71 64.992C325.881 64.928 326.025 64.864 326.142 64.8C326.27 64.736 326.382 64.6773 326.478 64.624C326.574 64.56 326.67 64.528 326.766 64.528C326.883 64.528 326.979 64.56 327.054 64.624C327.129 64.6773 327.209 64.7627 327.294 64.88L328.478 66.8C327.902 67.28 327.241 67.6427 326.494 67.888C325.747 68.1333 324.974 68.256 324.174 68.256ZM342.342 53.344C342.982 52.7467 343.686 52.2613 344.454 51.888C345.222 51.5147 346.123 51.328 347.158 51.328C348.054 51.328 348.848 51.4827 349.542 51.792C350.235 52.0907 350.811 52.5173 351.27 53.072C351.739 53.616 352.091 54.272 352.326 55.04C352.571 55.7973 352.694 56.6347 352.694 57.552V68H348.742V57.552C348.742 56.5493 348.512 55.776 348.054 55.232C347.595 54.6773 346.896 54.4 345.958 54.4C345.275 54.4 344.635 54.5547 344.038 54.864C343.44 55.1733 342.875 55.5947 342.342 56.128V68H338.39V44.224H342.342V53.344ZM363.716 51.328C364.932 51.328 366.036 51.5253 367.028 51.92C368.031 52.3147 368.884 52.8747 369.588 53.6C370.303 54.3253 370.852 55.2107 371.236 56.256C371.62 57.3013 371.812 58.4693 371.812 59.76C371.812 61.0613 371.62 62.2347 371.236 63.28C370.852 64.3253 370.303 65.216 369.588 65.952C368.884 66.688 368.031 67.2533 367.028 67.648C366.036 68.0427 364.932 68.24 363.716 68.24C362.489 68.24 361.375 68.0427 360.372 67.648C359.369 67.2533 358.511 66.688 357.796 65.952C357.092 65.216 356.543 64.3253 356.148 63.28C355.764 62.2347 355.572 61.0613 355.572 59.76C355.572 58.4693 355.764 57.3013 356.148 56.256C356.543 55.2107 357.092 54.3253 357.796 53.6C358.511 52.8747 359.369 52.3147 360.372 51.92C361.375 51.5253 362.489 51.328 363.716 51.328ZM363.716 65.2C365.081 65.2 366.089 64.7413 366.74 63.824C367.401 62.9067 367.732 61.5627 367.732 59.792C367.732 58.0213 367.401 56.672 366.74 55.744C366.089 54.816 365.081 54.352 363.716 54.352C362.329 54.352 361.3 54.8213 360.628 55.76C359.967 56.688 359.636 58.032 359.636 59.792C359.636 61.552 359.967 62.896 360.628 63.824C361.3 64.7413 362.329 65.2 363.716 65.2ZM378.827 44.224V68H374.875V44.224H378.827ZM393.069 55.776C392.621 55.232 392.13 54.848 391.597 54.624C391.074 54.4 390.509 54.288 389.901 54.288C389.303 54.288 388.765 54.4 388.285 54.624C387.805 54.848 387.394 55.1893 387.053 55.648C386.711 56.096 386.45 56.672 386.269 57.376C386.087 58.0693 385.997 58.8907 385.997 59.84C385.997 60.8 386.071 61.616 386.221 62.288C386.381 62.9493 386.605 63.4933 386.893 63.92C387.181 64.336 387.533 64.64 387.949 64.832C388.365 65.0133 388.829 65.104 389.341 65.104C390.162 65.104 390.861 64.9333 391.437 64.592C392.013 64.2507 392.557 63.7653 393.069 63.136V55.776ZM397.021 44.224V68H394.605C394.082 68 393.751 67.76 393.613 67.28L393.277 65.696C392.615 66.4533 391.853 67.0667 390.989 67.536C390.135 68.0053 389.138 68.24 387.997 68.24C387.101 68.24 386.279 68.0533 385.533 67.68C384.786 67.3067 384.141 66.768 383.597 66.064C383.063 65.3493 382.647 64.4693 382.349 63.424C382.061 62.3787 381.917 61.184 381.917 59.84C381.917 58.624 382.082 57.4933 382.413 56.448C382.743 55.4027 383.218 54.496 383.837 53.728C384.455 52.96 385.197 52.3627 386.061 51.936C386.925 51.4987 387.895 51.28 388.973 51.28C389.89 51.28 390.674 51.424 391.325 51.712C391.975 52 392.557 52.3893 393.069 52.88V44.224H397.021ZM410.937 54.784C410.83 54.9547 410.718 55.0773 410.601 55.152C410.483 55.216 410.334 55.248 410.153 55.248C409.961 55.248 409.753 55.1947 409.529 55.088C409.315 54.9813 409.065 54.864 408.777 54.736C408.489 54.5973 408.158 54.4747 407.785 54.368C407.422 54.2613 406.99 54.208 406.489 54.208C405.71 54.208 405.097 54.3733 404.649 54.704C404.211 55.0347 403.993 55.4667 403.993 56C403.993 56.352 404.105 56.6507 404.329 56.896C404.563 57.1307 404.867 57.3387 405.241 57.52C405.625 57.7013 406.057 57.8667 406.537 58.016C407.017 58.1547 407.502 58.3093 407.993 58.48C408.494 58.6507 408.985 58.848 409.465 59.072C409.945 59.2853 410.371 59.5627 410.745 59.904C411.129 60.2347 411.433 60.6347 411.657 61.104C411.891 61.5733 412.009 62.1387 412.009 62.8C412.009 63.5893 411.865 64.32 411.577 64.992C411.299 65.6533 410.883 66.2293 410.329 66.72C409.774 67.2 409.086 67.5787 408.265 67.856C407.454 68.1227 406.515 68.256 405.449 68.256C404.883 68.256 404.329 68.2027 403.785 68.096C403.251 68 402.734 67.8613 402.233 67.68C401.742 67.4987 401.283 67.2853 400.857 67.04C400.441 66.7947 400.073 66.528 399.753 66.24L400.665 64.736C400.782 64.5547 400.921 64.416 401.081 64.32C401.241 64.224 401.443 64.176 401.689 64.176C401.934 64.176 402.163 64.2453 402.377 64.384C402.601 64.5227 402.857 64.672 403.145 64.832C403.433 64.992 403.769 65.1413 404.153 65.28C404.547 65.4187 405.043 65.488 405.641 65.488C406.11 65.488 406.51 65.4347 406.841 65.328C407.182 65.2107 407.459 65.0613 407.673 64.88C407.897 64.6987 408.057 64.4907 408.153 64.256C408.259 64.0107 408.313 63.76 408.313 63.504C408.313 63.12 408.195 62.8053 407.961 62.56C407.737 62.3147 407.433 62.1013 407.049 61.92C406.675 61.7387 406.243 61.5787 405.753 61.44C405.273 61.2907 404.777 61.1307 404.265 60.96C403.763 60.7893 403.267 60.592 402.777 60.368C402.297 60.1333 401.865 59.84 401.481 59.488C401.107 59.136 400.803 58.704 400.569 58.192C400.345 57.68 400.233 57.0613 400.233 56.336C400.233 55.664 400.366 55.024 400.633 54.416C400.899 53.808 401.289 53.28 401.801 52.832C402.323 52.3733 402.969 52.0107 403.737 51.744C404.515 51.4667 405.411 51.328 406.425 51.328C407.555 51.328 408.585 51.5147 409.513 51.888C410.441 52.2613 411.214 52.752 411.833 53.36L410.937 54.784ZM426.717 63.744C427.165 64.288 427.65 64.672 428.173 64.896C428.706 65.12 429.282 65.232 429.901 65.232C430.498 65.232 431.037 65.12 431.517 64.896C431.997 64.672 432.402 64.3307 432.733 63.872C433.074 63.4133 433.335 62.8373 433.517 62.144C433.698 61.44 433.789 60.6133 433.789 59.664C433.789 58.704 433.709 57.8933 433.549 57.232C433.399 56.56 433.181 56.016 432.893 55.6C432.605 55.184 432.253 54.88 431.837 54.688C431.431 54.496 430.967 54.4 430.445 54.4C429.623 54.4 428.925 54.576 428.349 54.928C427.773 55.2693 427.229 55.7547 426.717 56.384V63.744ZM426.509 53.824C427.181 53.0667 427.943 52.4533 428.797 51.984C429.65 51.5147 430.653 51.28 431.805 51.28C432.701 51.28 433.517 51.4667 434.253 51.84C434.999 52.2133 435.639 52.7573 436.173 53.472C436.717 54.176 437.133 55.0507 437.421 56.096C437.719 57.1307 437.869 58.32 437.869 59.664C437.869 60.8907 437.703 62.0267 437.373 63.072C437.042 64.1173 436.567 65.024 435.949 65.792C435.341 66.56 434.599 67.1627 433.725 67.6C432.861 68.0267 431.89 68.24 430.812 68.24C429.895 68.24 429.111 68.1013 428.461 67.824C427.81 67.536 427.229 67.1413 426.717 66.64V73.36H422.765V51.584H425.181C425.693 51.584 426.029 51.824 426.189 52.304L426.509 53.824ZM444.68 54.432C445.192 53.4507 445.8 52.6827 446.504 52.128C447.208 51.5627 448.04 51.28 449 51.28C449.757 51.28 450.365 51.4453 450.824 51.776L450.568 54.736C450.515 54.928 450.435 55.0667 450.328 55.152C450.232 55.2267 450.099 55.264 449.928 55.264C449.768 55.264 449.528 55.2373 449.208 55.184C448.899 55.1307 448.595 55.104 448.296 55.104C447.859 55.104 447.469 55.168 447.128 55.296C446.787 55.424 446.477 55.6107 446.2 55.856C445.933 56.0907 445.693 56.3787 445.48 56.72C445.277 57.0613 445.085 57.4507 444.904 57.888V68H440.952V51.584H443.272C443.677 51.584 443.96 51.6587 444.12 51.808C444.28 51.9467 444.387 52.2027 444.44 52.576L444.68 54.432ZM459.685 51.328C460.901 51.328 462.005 51.5253 462.997 51.92C463.999 52.3147 464.853 52.8747 465.557 53.6C466.271 54.3253 466.821 55.2107 467.205 56.256C467.589 57.3013 467.781 58.4693 467.781 59.76C467.781 61.0613 467.589 62.2347 467.205 63.28C466.821 64.3253 466.271 65.216 465.557 65.952C464.853 66.688 463.999 67.2533 462.997 67.648C462.005 68.0427 460.901 68.24 459.685 68.24C458.458 68.24 457.343 68.0427 456.341 67.648C455.338 67.2533 454.479 66.688 453.765 65.952C453.061 65.216 452.511 64.3253 452.117 63.28C451.733 62.2347 451.541 61.0613 451.541 59.76C451.541 58.4693 451.733 57.3013 452.117 56.256C452.511 55.2107 453.061 54.3253 453.765 53.6C454.479 52.8747 455.338 52.3147 456.341 51.92C457.343 51.5253 458.458 51.328 459.685 51.328ZM459.685 65.2C461.05 65.2 462.058 64.7413 462.709 63.824C463.37 62.9067 463.701 61.5627 463.701 59.792C463.701 58.0213 463.37 56.672 462.709 55.744C462.058 54.816 461.05 54.352 459.685 54.352C458.298 54.352 457.269 54.8213 456.597 55.76C455.935 56.688 455.605 58.032 455.605 59.792C455.605 61.552 455.935 62.896 456.597 63.824C457.269 64.7413 458.298 65.2 459.685 65.2ZM475.955 68.256C474.526 68.256 473.427 67.856 472.659 67.056C471.902 66.2453 471.523 65.1307 471.523 63.712V54.544H469.843C469.63 54.544 469.449 54.4747 469.299 54.336C469.15 54.1973 469.075 53.9893 469.075 53.712V52.144L471.715 51.712L472.547 47.232C472.601 47.0187 472.702 46.8533 472.851 46.736C473.001 46.6187 473.193 46.56 473.427 46.56H475.475V51.728H479.859V54.544H475.475V63.44C475.475 63.952 475.598 64.352 475.843 64.64C476.099 64.928 476.446 65.072 476.883 65.072C477.129 65.072 477.331 65.0453 477.491 64.992C477.662 64.928 477.806 64.864 477.923 64.8C478.051 64.736 478.163 64.6773 478.259 64.624C478.355 64.56 478.451 64.528 478.547 64.528C478.665 64.528 478.761 64.56 478.835 64.624C478.91 64.6773 478.99 64.7627 479.075 64.88L480.259 66.8C479.683 67.28 479.022 67.6427 478.275 67.888C477.529 68.1333 476.755 68.256 475.955 68.256ZM489.529 51.328C490.745 51.328 491.849 51.5253 492.841 51.92C493.843 52.3147 494.697 52.8747 495.401 53.6C496.115 54.3253 496.664 55.2107 497.049 56.256C497.433 57.3013 497.625 58.4693 497.625 59.76C497.625 61.0613 497.433 62.2347 497.049 63.28C496.664 64.3253 496.115 65.216 495.401 65.952C494.697 66.688 493.843 67.2533 492.841 67.648C491.849 68.0427 490.745 68.24 489.529 68.24C488.302 68.24 487.187 68.0427 486.185 67.648C485.182 67.2533 484.323 66.688 483.609 65.952C482.905 65.216 482.355 64.3253 481.961 63.28C481.577 62.2347 481.385 61.0613 481.385 59.76C481.385 58.4693 481.577 57.3013 481.961 56.256C482.355 55.2107 482.905 54.3253 483.609 53.6C484.323 52.8747 485.182 52.3147 486.185 51.92C487.187 51.5253 488.302 51.328 489.529 51.328ZM489.529 65.2C490.894 65.2 491.902 64.7413 492.553 63.824C493.214 62.9067 493.545 61.5627 493.545 59.792C493.545 58.0213 493.214 56.672 492.553 55.744C491.902 54.816 490.894 54.352 489.529 54.352C488.142 54.352 487.113 54.8213 486.441 55.76C485.779 56.688 485.449 58.032 485.449 59.792C485.449 61.552 485.779 62.896 486.441 63.824C487.113 64.7413 488.142 65.2 489.529 65.2ZM504.336 53.6C504.666 53.2693 505.013 52.9653 505.376 52.688C505.749 52.4 506.138 52.16 506.544 51.968C506.96 51.7653 507.402 51.6107 507.872 51.504C508.341 51.3867 508.853 51.328 509.408 51.328C510.304 51.328 511.098 51.4827 511.792 51.792C512.485 52.0907 513.061 52.5173 513.52 53.072C513.989 53.616 514.341 54.272 514.576 55.04C514.821 55.7973 514.944 56.6347 514.944 57.552V68H510.992V57.552C510.992 56.5493 510.762 55.776 510.304 55.232C509.845 54.6773 509.146 54.4 508.208 54.4C507.525 54.4 506.885 54.5547 506.288 54.864C505.69 55.1733 505.125 55.5947 504.592 56.128V68H500.64V51.584H503.056C503.568 51.584 503.904 51.824 504.064 52.304L504.336 53.6ZM528.718 54.784C528.611 54.9547 528.499 55.0773 528.382 55.152C528.265 55.216 528.115 55.248 527.934 55.248C527.742 55.248 527.534 55.1947 527.31 55.088C527.097 54.9813 526.846 54.864 526.558 54.736C526.27 54.5973 525.939 54.4747 525.566 54.368C525.203 54.2613 524.771 54.208 524.27 54.208C523.491 54.208 522.878 54.3733 522.43 54.704C521.993 55.0347 521.774 55.4667 521.774 56C521.774 56.352 521.886 56.6507 522.11 56.896C522.345 57.1307 522.649 57.3387 523.022 57.52C523.406 57.7013 523.838 57.8667 524.318 58.016C524.798 58.1547 525.283 58.3093 525.774 58.48C526.275 58.6507 526.766 58.848 527.246 59.072C527.726 59.2853 528.153 59.5627 528.526 59.904C528.91 60.2347 529.214 60.6347 529.438 61.104C529.673 61.5733 529.79 62.1387 529.79 62.8C529.79 63.5893 529.646 64.32 529.358 64.992C529.081 65.6533 528.665 66.2293 528.11 66.72C527.555 67.2 526.867 67.5787 526.046 67.856C525.235 68.1227 524.297 68.256 523.23 68.256C522.665 68.256 522.11 68.2027 521.566 68.096C521.033 68 520.515 67.8613 520.014 67.68C519.523 67.4987 519.065 67.2853 518.638 67.04C518.222 66.7947 517.854 66.528 517.534 66.24L518.446 64.736C518.563 64.5547 518.702 64.416 518.862 64.32C519.022 64.224 519.225 64.176 519.47 64.176C519.715 64.176 519.945 64.2453 520.158 64.384C520.382 64.5227 520.638 64.672 520.926 64.832C521.214 64.992 521.55 65.1413 521.934 65.28C522.329 65.4187 522.825 65.488 523.422 65.488C523.891 65.488 524.291 65.4347 524.622 65.328C524.963 65.2107 525.241 65.0613 525.454 64.88C525.678 64.6987 525.838 64.4907 525.934 64.256C526.041 64.0107 526.094 63.76 526.094 63.504C526.094 63.12 525.977 62.8053 525.742 62.56C525.518 62.3147 525.214 62.1013 524.83 61.92C524.457 61.7387 524.025 61.5787 523.534 61.44C523.054 61.2907 522.558 61.1307 522.046 60.96C521.545 60.7893 521.049 60.592 520.558 60.368C520.078 60.1333 519.646 59.84 519.262 59.488C518.889 59.136 518.585 58.704 518.35 58.192C518.126 57.68 518.014 57.0613 518.014 56.336C518.014 55.664 518.147 55.024 518.414 54.416C518.681 53.808 519.07 53.28 519.582 52.832C520.105 52.3733 520.75 52.0107 521.518 51.744C522.297 51.4667 523.193 51.328 524.206 51.328C525.337 51.328 526.366 51.5147 527.294 51.888C528.222 52.2613 528.995 52.752 529.614 53.36L528.718 54.784ZM549.218 60.992C548.076 61.0453 547.116 61.1467 546.338 61.296C545.559 61.4347 544.935 61.616 544.466 61.84C543.996 62.064 543.66 62.3253 543.458 62.624C543.255 62.9227 543.154 63.248 543.154 63.6C543.154 64.2933 543.356 64.7893 543.762 65.088C544.178 65.3867 544.716 65.536 545.378 65.536C546.188 65.536 546.887 65.392 547.474 65.104C548.071 64.8053 548.652 64.3573 549.218 63.76V60.992ZM540.162 53.872C542.05 52.144 544.322 51.28 546.978 51.28C547.938 51.28 548.796 51.44 549.554 51.76C550.311 52.0693 550.951 52.5067 551.474 53.072C551.996 53.6267 552.391 54.2933 552.658 55.072C552.935 55.8507 553.074 56.704 553.074 57.632V68H551.282C550.908 68 550.62 67.9467 550.418 67.84C550.215 67.7227 550.055 67.4933 549.938 67.152L549.586 65.968C549.17 66.3413 548.764 66.672 548.37 66.96C547.975 67.2373 547.564 67.472 547.138 67.664C546.711 67.856 546.252 68 545.762 68.096C545.282 68.2027 544.748 68.256 544.162 68.256C543.468 68.256 542.828 68.1653 542.242 67.984C541.655 67.792 541.148 67.5093 540.722 67.136C540.295 66.7627 539.964 66.2987 539.73 65.744C539.495 65.1893 539.378 64.544 539.378 63.808C539.378 63.392 539.447 62.9813 539.586 62.576C539.724 62.16 539.948 61.7653 540.258 61.392C540.578 61.0187 540.988 60.6667 541.49 60.336C541.991 60.0053 542.604 59.7173 543.33 59.472C544.066 59.2267 544.919 59.0293 545.89 58.88C546.86 58.72 547.97 58.624 549.218 58.592V57.632C549.218 56.5333 548.983 55.7227 548.514 55.2C548.044 54.6667 547.367 54.4 546.482 54.4C545.842 54.4 545.308 54.4747 544.882 54.624C544.466 54.7733 544.098 54.944 543.778 55.136C543.458 55.3173 543.164 55.4827 542.898 55.632C542.642 55.7813 542.354 55.856 542.034 55.856C541.756 55.856 541.522 55.7867 541.33 55.648C541.138 55.4987 540.983 55.328 540.866 55.136L540.162 53.872ZM560.492 53.6C560.822 53.2693 561.169 52.9653 561.532 52.688C561.905 52.4 562.294 52.16 562.7 51.968C563.116 51.7653 563.558 51.6107 564.028 51.504C564.497 51.3867 565.009 51.328 565.564 51.328C566.46 51.328 567.254 51.4827 567.948 51.792C568.641 52.0907 569.217 52.5173 569.676 53.072C570.145 53.616 570.497 54.272 570.732 55.04C570.977 55.7973 571.1 56.6347 571.1 57.552V68H567.148V57.552C567.148 56.5493 566.918 55.776 566.46 55.232C566.001 54.6773 565.302 54.4 564.364 54.4C563.681 54.4 563.041 54.5547 562.444 54.864C561.846 55.1733 561.281 55.5947 560.748 56.128V68H556.796V51.584H559.212C559.724 51.584 560.06 51.824 560.22 52.304L560.492 53.6ZM585.162 55.776C584.714 55.232 584.224 54.848 583.69 54.624C583.168 54.4 582.602 54.288 581.994 54.288C581.397 54.288 580.858 54.4 580.378 54.624C579.898 54.848 579.488 55.1893 579.146 55.648C578.805 56.096 578.544 56.672 578.362 57.376C578.181 58.0693 578.09 58.8907 578.09 59.84C578.09 60.8 578.165 61.616 578.314 62.288C578.474 62.9493 578.698 63.4933 578.986 63.92C579.274 64.336 579.626 64.64 580.042 64.832C580.458 65.0133 580.922 65.104 581.434 65.104C582.256 65.104 582.954 64.9333 583.53 64.592C584.106 64.2507 584.65 63.7653 585.162 63.136V55.776ZM589.114 44.224V68H586.698C586.176 68 585.845 67.76 585.706 67.28L585.37 65.696C584.709 66.4533 583.946 67.0667 583.082 67.536C582.229 68.0053 581.232 68.24 580.09 68.24C579.194 68.24 578.373 68.0533 577.626 67.68C576.88 67.3067 576.234 66.768 575.69 66.064C575.157 65.3493 574.741 64.4693 574.442 63.424C574.154 62.3787 574.01 61.184 574.01 59.84C574.01 58.624 574.176 57.4933 574.506 56.448C574.837 55.4027 575.312 54.496 575.93 53.728C576.549 52.96 577.29 52.3627 578.154 51.936C579.018 51.4987 579.989 51.28 581.066 51.28C581.984 51.28 582.768 51.424 583.418 51.712C584.069 52 584.65 52.3893 585.162 52.88V44.224H589.114ZM133.648 91.6C133.979 91.2693 134.325 90.9653 134.688 90.688C135.061 90.4 135.451 90.16 135.856 89.968C136.272 89.7653 136.715 89.6107 137.184 89.504C137.653 89.3867 138.165 89.328 138.72 89.328C139.616 89.328 140.411 89.4827 141.104 89.792C141.797 90.0907 142.373 90.5173 142.832 91.072C143.301 91.616 143.653 92.272 143.888 93.04C144.133 93.7973 144.256 94.6347 144.256 95.552V106H140.304V95.552C140.304 94.5493 140.075 93.776 139.616 93.232C139.157 92.6773 138.459 92.4 137.52 92.4C136.837 92.4 136.197 92.5547 135.6 92.864C135.003 93.1733 134.437 93.5947 133.904 94.128V106H129.952V89.584H132.368C132.88 89.584 133.216 89.824 133.376 90.304L133.648 91.6ZM158.591 95.904C158.591 95.392 158.516 94.912 158.367 94.464C158.228 94.0053 158.015 93.6053 157.727 93.264C157.439 92.9227 157.071 92.656 156.623 92.464C156.185 92.2613 155.673 92.16 155.087 92.16C153.945 92.16 153.044 92.4853 152.383 93.136C151.732 93.7867 151.316 94.7093 151.135 95.904H158.591ZM151.055 98.288C151.119 99.1307 151.268 99.8613 151.503 100.48C151.737 101.088 152.047 101.595 152.431 102C152.815 102.395 153.268 102.693 153.791 102.896C154.324 103.088 154.911 103.184 155.551 103.184C156.191 103.184 156.74 103.109 157.199 102.96C157.668 102.811 158.073 102.645 158.415 102.464C158.767 102.283 159.071 102.117 159.327 101.968C159.593 101.819 159.849 101.744 160.095 101.744C160.425 101.744 160.671 101.867 160.831 102.112L161.967 103.552C161.529 104.064 161.039 104.496 160.495 104.848C159.951 105.189 159.38 105.467 158.783 105.68C158.196 105.883 157.593 106.027 156.975 106.112C156.367 106.197 155.775 106.24 155.199 106.24C154.057 106.24 152.996 106.053 152.015 105.68C151.033 105.296 150.18 104.736 149.455 104C148.729 103.253 148.159 102.336 147.743 101.248C147.327 100.149 147.118 98.88 147.118 97.44C147.118 96.32 147.3 95.2693 147.663 94.288C148.025 93.296 148.543 92.4373 149.215 91.712C149.897 90.976 150.724 90.3947 151.695 89.968C152.676 89.5413 153.78 89.328 155.007 89.328C156.041 89.328 156.996 89.4933 157.871 89.824C158.745 90.1547 159.497 90.64 160.127 91.28C160.756 91.9093 161.247 92.688 161.599 93.616C161.961 94.5333 162.142 95.584 162.142 96.768C162.142 97.3653 162.079 97.7707 161.951 97.984C161.823 98.1867 161.577 98.288 161.215 98.288H151.055ZM179.252 89.584V106H176.836C176.314 106 175.983 105.76 175.844 105.28L175.572 103.968C174.9 104.651 174.159 105.205 173.348 105.632C172.538 106.048 171.583 106.256 170.484 106.256C169.588 106.256 168.794 106.107 168.1 105.808C167.418 105.499 166.842 105.067 166.372 104.512C165.903 103.957 165.546 103.301 165.3 102.544C165.066 101.776 164.948 100.933 164.948 100.016V89.584H168.9V100.016C168.9 101.019 169.13 101.797 169.588 102.352C170.058 102.896 170.756 103.168 171.684 103.168C172.367 103.168 173.007 103.019 173.604 102.72C174.202 102.411 174.767 101.989 175.3 101.456V89.584H179.252ZM188.643 106.256C187.213 106.256 186.115 105.856 185.347 105.056C184.589 104.245 184.211 103.131 184.211 101.712V92.544H182.531C182.317 92.544 182.136 92.4747 181.987 92.336C181.837 92.1973 181.763 91.9893 181.763 91.712V90.144L184.403 89.712L185.235 85.232C185.288 85.0187 185.389 84.8533 185.539 84.736C185.688 84.6187 185.88 84.56 186.115 84.56H188.163V89.728H192.547V92.544H188.163V101.44C188.163 101.952 188.285 102.352 188.531 102.64C188.787 102.928 189.133 103.072 189.571 103.072C189.816 103.072 190.019 103.045 190.179 102.992C190.349 102.928 190.493 102.864 190.611 102.8C190.739 102.736 190.851 102.677 190.947 102.624C191.043 102.56 191.139 102.528 191.235 102.528C191.352 102.528 191.448 102.56 191.523 102.624C191.597 102.677 191.677 102.763 191.763 102.88L192.947 104.8C192.371 105.28 191.709 105.643 190.963 105.888C190.216 106.133 189.443 106.256 188.643 106.256ZM198.805 92.432C199.317 91.4507 199.925 90.6827 200.629 90.128C201.333 89.5627 202.165 89.28 203.125 89.28C203.882 89.28 204.49 89.4453 204.949 89.776L204.693 92.736C204.64 92.928 204.56 93.0667 204.453 93.152C204.357 93.2267 204.224 93.264 204.053 93.264C203.893 93.264 203.653 93.2373 203.333 93.184C203.024 93.1307 202.72 93.104 202.421 93.104C201.984 93.104 201.594 93.168 201.253 93.296C200.912 93.424 200.602 93.6107 200.325 93.856C200.058 94.0907 199.818 94.3787 199.605 94.72C199.402 95.0613 199.21 95.4507 199.029 95.888V106H195.077V89.584H197.397C197.802 89.584 198.085 89.6587 198.245 89.808C198.405 89.9467 198.512 90.2027 198.565 90.576L198.805 92.432ZM213.81 89.328C215.026 89.328 216.13 89.5253 217.122 89.92C218.124 90.3147 218.978 90.8747 219.682 91.6C220.396 92.3253 220.946 93.2107 221.33 94.256C221.714 95.3013 221.906 96.4693 221.906 97.76C221.906 99.0613 221.714 100.235 221.33 101.28C220.946 102.325 220.396 103.216 219.682 103.952C218.978 104.688 218.124 105.253 217.122 105.648C216.13 106.043 215.026 106.24 213.81 106.24C212.583 106.24 211.468 106.043 210.466 105.648C209.463 105.253 208.604 104.688 207.89 103.952C207.186 103.216 206.636 102.325 206.242 101.28C205.858 100.235 205.666 99.0613 205.666 97.76C205.666 96.4693 205.858 95.3013 206.242 94.256C206.636 93.2107 207.186 92.3253 207.89 91.6C208.604 90.8747 209.463 90.3147 210.466 89.92C211.468 89.5253 212.583 89.328 213.81 89.328ZM213.81 103.2C215.175 103.2 216.183 102.741 216.834 101.824C217.495 100.907 217.826 99.5627 217.826 97.792C217.826 96.0213 217.495 94.672 216.834 93.744C216.183 92.816 215.175 92.352 213.81 92.352C212.423 92.352 211.394 92.8213 210.722 93.76C210.06 94.688 209.73 96.032 209.73 97.792C209.73 99.552 210.06 100.896 210.722 101.824C211.394 102.741 212.423 103.2 213.81 103.2ZM228.617 91.6C228.947 91.2693 229.294 90.9653 229.657 90.688C230.03 90.4 230.419 90.16 230.825 89.968C231.241 89.7653 231.683 89.6107 232.153 89.504C232.622 89.3867 233.134 89.328 233.689 89.328C234.585 89.328 235.379 89.4827 236.073 89.792C236.766 90.0907 237.342 90.5173 237.801 91.072C238.27 91.616 238.622 92.272 238.857 93.04C239.102 93.7973 239.225 94.6347 239.225 95.552V106H235.273V95.552C235.273 94.5493 235.043 93.776 234.585 93.232C234.126 92.6773 233.427 92.4 232.489 92.4C231.806 92.4 231.166 92.5547 230.569 92.864C229.971 93.1733 229.406 93.5947 228.873 94.128V106H224.921V89.584H227.337C227.849 89.584 228.185 89.824 228.345 90.304L228.617 91.6ZM252.999 92.784C252.893 92.9547 252.781 93.0773 252.663 93.152C252.546 93.216 252.397 93.248 252.215 93.248C252.023 93.248 251.815 93.1947 251.591 93.088C251.378 92.9813 251.127 92.864 250.839 92.736C250.551 92.5973 250.221 92.4747 249.847 92.368C249.485 92.2613 249.053 92.208 248.551 92.208C247.773 92.208 247.159 92.3733 246.711 92.704C246.274 93.0347 246.055 93.4667 246.055 94C246.055 94.352 246.167 94.6507 246.391 94.896C246.626 95.1307 246.93 95.3387 247.303 95.52C247.687 95.7013 248.119 95.8667 248.599 96.016C249.079 96.1547 249.565 96.3093 250.055 96.48C250.557 96.6507 251.047 96.848 251.527 97.072C252.007 97.2853 252.434 97.5627 252.807 97.904C253.191 98.2347 253.495 98.6347 253.719 99.104C253.954 99.5733 254.071 100.139 254.071 100.8C254.071 101.589 253.927 102.32 253.639 102.992C253.362 103.653 252.946 104.229 252.391 104.72C251.837 105.2 251.149 105.579 250.327 105.856C249.517 106.123 248.578 106.256 247.511 106.256C246.946 106.256 246.391 106.203 245.847 106.096C245.314 106 244.797 105.861 244.295 105.68C243.805 105.499 243.346 105.285 242.919 105.04C242.503 104.795 242.135 104.528 241.815 104.24L242.727 102.736C242.845 102.555 242.983 102.416 243.143 102.32C243.303 102.224 243.506 102.176 243.751 102.176C243.997 102.176 244.226 102.245 244.439 102.384C244.663 102.523 244.919 102.672 245.207 102.832C245.495 102.992 245.831 103.141 246.215 103.28C246.61 103.419 247.106 103.488 247.703 103.488C248.173 103.488 248.573 103.435 248.903 103.328C249.245 103.211 249.522 103.061 249.735 102.88C249.959 102.699 250.119 102.491 250.215 102.256C250.322 102.011 250.375 101.76 250.375 101.504C250.375 101.12 250.258 100.805 250.023 100.56C249.799 100.315 249.495 100.101 249.111 99.92C248.738 99.7387 248.306 99.5787 247.815 99.44C247.335 99.2907 246.839 99.1307 246.327 98.96C245.826 98.7893 245.33 98.592 244.839 98.368C244.359 98.1333 243.927 97.84 243.543 97.488C243.17 97.136 242.866 96.704 242.631 96.192C242.407 95.68 242.295 95.0613 242.295 94.336C242.295 93.664 242.429 93.024 242.695 92.416C242.962 91.808 243.351 91.28 243.863 90.832C244.386 90.3733 245.031 90.0107 245.799 89.744C246.578 89.4667 247.474 89.328 248.487 89.328C249.618 89.328 250.647 89.5147 251.575 89.888C252.503 90.2613 253.277 90.752 253.895 91.36L252.999 92.784ZM270.299 106.256C268.87 106.256 267.771 105.856 267.003 105.056C266.246 104.245 265.867 103.131 265.867 101.712V92.544H264.187C263.974 92.544 263.792 92.4747 263.643 92.336C263.494 92.1973 263.419 91.9893 263.419 91.712V90.144L266.059 89.712L266.891 85.232C266.944 85.0187 267.046 84.8533 267.195 84.736C267.344 84.6187 267.536 84.56 267.771 84.56H269.819V89.728H274.203V92.544H269.819V101.44C269.819 101.952 269.942 102.352 270.187 102.64C270.443 102.928 270.79 103.072 271.227 103.072C271.472 103.072 271.675 103.045 271.835 102.992C272.006 102.928 272.15 102.864 272.267 102.8C272.395 102.736 272.507 102.677 272.603 102.624C272.699 102.56 272.795 102.528 272.891 102.528C273.008 102.528 273.104 102.56 273.179 102.624C273.254 102.677 273.334 102.763 273.419 102.88L274.603 104.8C274.027 105.28 273.366 105.643 272.619 105.888C271.872 106.133 271.099 106.256 270.299 106.256ZM283.872 89.328C285.088 89.328 286.192 89.5253 287.184 89.92C288.187 90.3147 289.04 90.8747 289.744 91.6C290.459 92.3253 291.008 93.2107 291.392 94.256C291.776 95.3013 291.968 96.4693 291.968 97.76C291.968 99.0613 291.776 100.235 291.392 101.28C291.008 102.325 290.459 103.216 289.744 103.952C289.04 104.688 288.187 105.253 287.184 105.648C286.192 106.043 285.088 106.24 283.872 106.24C282.646 106.24 281.531 106.043 280.528 105.648C279.526 105.253 278.667 104.688 277.952 103.952C277.248 103.216 276.699 102.325 276.304 101.28C275.92 100.235 275.728 99.0613 275.728 97.76C275.728 96.4693 275.92 95.3013 276.304 94.256C276.699 93.2107 277.248 92.3253 277.952 91.6C278.667 90.8747 279.526 90.3147 280.528 89.92C281.531 89.5253 282.646 89.328 283.872 89.328ZM283.872 103.2C285.238 103.2 286.246 102.741 286.896 101.824C287.558 100.907 287.888 99.5627 287.888 97.792C287.888 96.0213 287.558 94.672 286.896 93.744C286.246 92.816 285.238 92.352 283.872 92.352C282.486 92.352 281.456 92.8213 280.784 93.76C280.123 94.688 279.792 96.032 279.792 97.792C279.792 99.552 280.123 100.896 280.784 101.824C281.456 102.741 282.486 103.2 283.872 103.2ZM300.858 97.392C301.349 97.392 301.776 97.328 302.138 97.2C302.501 97.0613 302.8 96.8747 303.034 96.64C303.28 96.4053 303.461 96.1227 303.578 95.792C303.706 95.4613 303.77 95.0987 303.77 94.704C303.77 93.8933 303.525 93.2533 303.034 92.784C302.554 92.304 301.829 92.064 300.858 92.064C299.888 92.064 299.157 92.304 298.666 92.784C298.186 93.2533 297.946 93.8933 297.946 94.704C297.946 95.088 298.005 95.4453 298.122 95.776C298.25 96.1067 298.432 96.3947 298.666 96.64C298.912 96.8747 299.216 97.0613 299.578 97.2C299.952 97.328 300.378 97.392 300.858 97.392ZM305.322 106.736C305.322 106.416 305.226 106.155 305.034 105.952C304.842 105.749 304.581 105.595 304.25 105.488C303.92 105.371 303.53 105.285 303.082 105.232C302.645 105.179 302.176 105.141 301.674 105.12C301.184 105.088 300.672 105.061 300.138 105.04C299.616 105.019 299.104 104.976 298.602 104.912C298.165 105.157 297.808 105.445 297.53 105.776C297.264 106.107 297.13 106.491 297.13 106.928C297.13 107.216 297.2 107.483 297.338 107.728C297.488 107.984 297.717 108.203 298.026 108.384C298.346 108.565 298.757 108.704 299.258 108.8C299.76 108.907 300.373 108.96 301.098 108.96C301.834 108.96 302.469 108.901 303.002 108.784C303.536 108.677 303.973 108.523 304.314 108.32C304.666 108.128 304.922 107.893 305.082 107.616C305.242 107.349 305.322 107.056 305.322 106.736ZM309.258 90.144V91.616C309.258 92.0853 308.976 92.3733 308.41 92.48L306.938 92.752C307.162 93.3173 307.274 93.936 307.274 94.608C307.274 95.4187 307.109 96.1547 306.778 96.816C306.458 97.4667 306.01 98.0213 305.434 98.48C304.858 98.9387 304.176 99.296 303.386 99.552C302.608 99.7973 301.765 99.92 300.858 99.92C300.538 99.92 300.229 99.904 299.93 99.872C299.632 99.84 299.338 99.7973 299.05 99.744C298.538 100.053 298.282 100.4 298.282 100.784C298.282 101.115 298.432 101.36 298.73 101.52C299.04 101.669 299.445 101.776 299.946 101.84C300.448 101.904 301.018 101.947 301.658 101.968C302.298 101.979 302.954 102.011 303.626 102.064C304.298 102.117 304.954 102.213 305.594 102.352C306.234 102.48 306.805 102.688 307.306 102.976C307.808 103.264 308.208 103.659 308.506 104.16C308.816 104.651 308.97 105.285 308.97 106.064C308.97 106.789 308.789 107.493 308.426 108.176C308.074 108.859 307.557 109.467 306.874 110C306.202 110.533 305.37 110.96 304.378 111.28C303.397 111.611 302.277 111.776 301.018 111.776C299.781 111.776 298.704 111.653 297.786 111.408C296.869 111.173 296.106 110.853 295.498 110.448C294.89 110.053 294.437 109.595 294.138 109.072C293.84 108.549 293.69 108.005 293.69 107.44C293.69 106.672 293.92 106.032 294.378 105.52C294.848 104.997 295.488 104.581 296.298 104.272C295.861 104.048 295.514 103.749 295.258 103.376C295.002 103.003 294.874 102.512 294.874 101.904C294.874 101.659 294.917 101.408 295.002 101.152C295.098 100.885 295.232 100.624 295.402 100.368C295.584 100.112 295.808 99.872 296.074 99.648C296.341 99.4133 296.656 99.2053 297.018 99.024C296.186 98.576 295.53 97.9787 295.05 97.232C294.581 96.4853 294.346 95.6107 294.346 94.608C294.346 93.7973 294.506 93.0667 294.826 92.416C295.157 91.7547 295.61 91.1947 296.186 90.736C296.773 90.2667 297.461 89.9093 298.25 89.664C299.05 89.4187 299.92 89.296 300.858 89.296C301.562 89.296 302.224 89.3707 302.842 89.52C303.461 89.6587 304.026 89.8667 304.538 90.144H309.258ZM322.059 95.904C322.059 95.392 321.985 94.912 321.835 94.464C321.697 94.0053 321.483 93.6053 321.195 93.264C320.907 92.9227 320.539 92.656 320.091 92.464C319.654 92.2613 319.142 92.16 318.555 92.16C317.414 92.16 316.513 92.4853 315.851 93.136C315.201 93.7867 314.785 94.7093 314.603 95.904H322.059ZM314.523 98.288C314.587 99.1307 314.737 99.8613 314.971 100.48C315.206 101.088 315.515 101.595 315.899 102C316.283 102.395 316.737 102.693 317.259 102.896C317.793 103.088 318.379 103.184 319.019 103.184C319.659 103.184 320.209 103.109 320.667 102.96C321.137 102.811 321.542 102.645 321.883 102.464C322.235 102.283 322.539 102.117 322.795 101.968C323.062 101.819 323.318 101.744 323.563 101.744C323.894 101.744 324.139 101.867 324.299 102.112L325.435 103.552C324.998 104.064 324.507 104.496 323.963 104.848C323.419 105.189 322.849 105.467 322.251 105.68C321.665 105.883 321.062 106.027 320.443 106.112C319.835 106.197 319.243 106.24 318.667 106.24C317.526 106.24 316.465 106.053 315.483 105.68C314.502 105.296 313.649 104.736 312.923 104C312.198 103.253 311.627 102.336 311.211 101.248C310.795 100.149 310.587 98.88 310.587 97.44C310.587 96.32 310.769 95.2693 311.131 94.288C311.494 93.296 312.011 92.4373 312.683 91.712C313.366 90.976 314.193 90.3947 315.163 89.968C316.145 89.5413 317.249 89.328 318.475 89.328C319.51 89.328 320.465 89.4933 321.339 89.824C322.214 90.1547 322.966 90.64 323.595 91.28C324.225 91.9093 324.715 92.688 325.067 93.616C325.43 94.5333 325.611 95.584 325.611 96.768C325.611 97.3653 325.547 97.7707 325.419 97.984C325.291 98.1867 325.046 98.288 324.683 98.288H314.523ZM333.893 106.256C332.463 106.256 331.365 105.856 330.597 105.056C329.839 104.245 329.461 103.131 329.461 101.712V92.544H327.781C327.567 92.544 327.386 92.4747 327.237 92.336C327.087 92.1973 327.013 91.9893 327.013 91.712V90.144L329.653 89.712L330.485 85.232C330.538 85.0187 330.639 84.8533 330.789 84.736C330.938 84.6187 331.13 84.56 331.365 84.56H333.413V89.728H337.797V92.544H333.413V101.44C333.413 101.952 333.535 102.352 333.781 102.64C334.037 102.928 334.383 103.072 334.821 103.072C335.066 103.072 335.269 103.045 335.429 102.992C335.599 102.928 335.743 102.864 335.861 102.8C335.989 102.736 336.101 102.677 336.197 102.624C336.293 102.56 336.389 102.528 336.485 102.528C336.602 102.528 336.698 102.56 336.773 102.624C336.847 102.677 336.927 102.763 337.013 102.88L338.197 104.8C337.621 105.28 336.959 105.643 336.213 105.888C335.466 106.133 334.693 106.256 333.893 106.256ZM344.279 91.344C344.919 90.7467 345.623 90.2613 346.391 89.888C347.159 89.5147 348.06 89.328 349.095 89.328C349.991 89.328 350.786 89.4827 351.479 89.792C352.172 90.0907 352.748 90.5173 353.207 91.072C353.676 91.616 354.028 92.272 354.263 93.04C354.508 93.7973 354.631 94.6347 354.631 95.552V106H350.679V95.552C350.679 94.5493 350.45 93.776 349.991 93.232C349.532 92.6773 348.834 92.4 347.895 92.4C347.212 92.4 346.572 92.5547 345.975 92.864C345.378 93.1733 344.812 93.5947 344.279 94.128V106H340.327V82.224H344.279V91.344ZM368.966 95.904C368.966 95.392 368.891 94.912 368.742 94.464C368.603 94.0053 368.39 93.6053 368.102 93.264C367.814 92.9227 367.446 92.656 366.998 92.464C366.56 92.2613 366.048 92.16 365.462 92.16C364.32 92.16 363.419 92.4853 362.758 93.136C362.107 93.7867 361.691 94.7093 361.51 95.904H368.966ZM361.43 98.288C361.494 99.1307 361.643 99.8613 361.878 100.48C362.112 101.088 362.422 101.595 362.806 102C363.19 102.395 363.643 102.693 364.166 102.896C364.699 103.088 365.286 103.184 365.926 103.184C366.566 103.184 367.115 103.109 367.574 102.96C368.043 102.811 368.448 102.645 368.79 102.464C369.142 102.283 369.446 102.117 369.702 101.968C369.968 101.819 370.224 101.744 370.47 101.744C370.8 101.744 371.046 101.867 371.206 102.112L372.342 103.552C371.904 104.064 371.414 104.496 370.87 104.848C370.326 105.189 369.755 105.467 369.158 105.68C368.571 105.883 367.968 106.027 367.35 106.112C366.742 106.197 366.15 106.24 365.574 106.24C364.432 106.24 363.371 106.053 362.39 105.68C361.408 105.296 360.555 104.736 359.83 104C359.104 103.253 358.534 102.336 358.118 101.248C357.702 100.149 357.493 98.88 357.493 97.44C357.493 96.32 357.675 95.2693 358.038 94.288C358.4 93.296 358.918 92.4373 359.59 91.712C360.272 90.976 361.099 90.3947 362.07 89.968C363.051 89.5413 364.155 89.328 365.382 89.328C366.416 89.328 367.371 89.4933 368.246 89.824C369.12 90.1547 369.872 90.64 370.502 91.28C371.131 91.9093 371.622 92.688 371.974 93.616C372.336 94.5333 372.517 95.584 372.517 96.768C372.517 97.3653 372.454 97.7707 372.326 97.984C372.198 98.1867 371.952 98.288 371.59 98.288H361.43ZM379.211 92.432C379.723 91.4507 380.331 90.6827 381.035 90.128C381.739 89.5627 382.571 89.28 383.531 89.28C384.289 89.28 384.897 89.4453 385.355 89.776L385.099 92.736C385.046 92.928 384.966 93.0667 384.859 93.152C384.763 93.2267 384.63 93.264 384.459 93.264C384.299 93.264 384.059 93.2373 383.739 93.184C383.43 93.1307 383.126 93.104 382.827 93.104C382.39 93.104 382.001 93.168 381.659 93.296C381.318 93.424 381.009 93.6107 380.731 93.856C380.465 94.0907 380.225 94.3787 380.011 94.72C379.809 95.0613 379.617 95.4507 379.435 95.888V106H375.483V89.584H377.803C378.209 89.584 378.491 89.6587 378.651 89.808C378.811 89.9467 378.918 90.2027 378.971 90.576L379.211 92.432ZM398.611 89.584V106H394.643V89.584H398.611ZM399.155 84.8C399.155 85.1413 399.085 85.4613 398.947 85.76C398.808 86.0587 398.621 86.32 398.387 86.544C398.163 86.768 397.896 86.9493 397.587 87.088C397.277 87.216 396.947 87.28 396.595 87.28C396.253 87.28 395.928 87.216 395.619 87.088C395.32 86.9493 395.059 86.768 394.835 86.544C394.611 86.32 394.429 86.0587 394.291 85.76C394.163 85.4613 394.099 85.1413 394.099 84.8C394.099 84.448 394.163 84.1173 394.291 83.808C394.429 83.4987 394.611 83.232 394.835 83.008C395.059 82.784 395.32 82.608 395.619 82.48C395.928 82.3413 396.253 82.272 396.595 82.272C396.947 82.272 397.277 82.3413 397.587 82.48C397.896 82.608 398.163 82.784 398.387 83.008C398.621 83.232 398.808 83.4987 398.947 83.808C399.085 84.1173 399.155 84.448 399.155 84.8ZM406.336 91.6C406.666 91.2693 407.013 90.9653 407.376 90.688C407.749 90.4 408.138 90.16 408.544 89.968C408.96 89.7653 409.402 89.6107 409.872 89.504C410.341 89.3867 410.853 89.328 411.408 89.328C412.304 89.328 413.098 89.4827 413.792 89.792C414.485 90.0907 415.061 90.5173 415.52 91.072C415.989 91.616 416.341 92.272 416.576 93.04C416.821 93.7973 416.944 94.6347 416.944 95.552V106H412.992V95.552C412.992 94.5493 412.762 93.776 412.304 93.232C411.845 92.6773 411.146 92.4 410.208 92.4C409.525 92.4 408.885 92.5547 408.288 92.864C407.69 93.1733 407.125 93.5947 406.592 94.128V106H402.64V89.584H405.056C405.568 89.584 405.904 89.824 406.064 90.304L406.336 91.6ZM433.955 106.256C432.526 106.256 431.427 105.856 430.659 105.056C429.902 104.245 429.523 103.131 429.523 101.712V92.544H427.843C427.63 92.544 427.449 92.4747 427.299 92.336C427.15 92.1973 427.075 91.9893 427.075 91.712V90.144L429.715 89.712L430.547 85.232C430.601 85.0187 430.702 84.8533 430.851 84.736C431.001 84.6187 431.193 84.56 431.427 84.56H433.475V89.728H437.859V92.544H433.475V101.44C433.475 101.952 433.598 102.352 433.843 102.64C434.099 102.928 434.446 103.072 434.883 103.072C435.129 103.072 435.331 103.045 435.491 102.992C435.662 102.928 435.806 102.864 435.923 102.8C436.051 102.736 436.163 102.677 436.259 102.624C436.355 102.56 436.451 102.528 436.547 102.528C436.665 102.528 436.761 102.56 436.835 102.624C436.91 102.677 436.99 102.763 437.075 102.88L438.259 104.8C437.683 105.28 437.022 105.643 436.275 105.888C435.529 106.133 434.755 106.256 433.955 106.256ZM444.342 91.344C444.982 90.7467 445.686 90.2613 446.454 89.888C447.222 89.5147 448.123 89.328 449.158 89.328C450.054 89.328 450.848 89.4827 451.542 89.792C452.235 90.0907 452.811 90.5173 453.27 91.072C453.739 91.616 454.091 92.272 454.326 93.04C454.571 93.7973 454.694 94.6347 454.694 95.552V106H450.742V95.552C450.742 94.5493 450.512 93.776 450.054 93.232C449.595 92.6773 448.896 92.4 447.958 92.4C447.275 92.4 446.635 92.5547 446.038 92.864C445.44 93.1733 444.875 93.5947 444.342 94.128V106H440.39V82.224H444.342V91.344ZM469.028 95.904C469.028 95.392 468.953 94.912 468.804 94.464C468.665 94.0053 468.452 93.6053 468.164 93.264C467.876 92.9227 467.508 92.656 467.06 92.464C466.623 92.2613 466.111 92.16 465.524 92.16C464.383 92.16 463.481 92.4853 462.82 93.136C462.169 93.7867 461.753 94.7093 461.572 95.904H469.028ZM461.492 98.288C461.556 99.1307 461.705 99.8613 461.94 100.48C462.175 101.088 462.484 101.595 462.868 102C463.252 102.395 463.705 102.693 464.228 102.896C464.761 103.088 465.348 103.184 465.988 103.184C466.628 103.184 467.177 103.109 467.636 102.96C468.105 102.811 468.511 102.645 468.852 102.464C469.204 102.283 469.508 102.117 469.764 101.968C470.031 101.819 470.287 101.744 470.532 101.744C470.863 101.744 471.108 101.867 471.268 102.112L472.404 103.552C471.967 104.064 471.476 104.496 470.932 104.848C470.388 105.189 469.817 105.467 469.22 105.68C468.633 105.883 468.031 106.027 467.412 106.112C466.804 106.197 466.212 106.24 465.636 106.24C464.495 106.24 463.433 106.053 462.452 105.68C461.471 105.296 460.617 104.736 459.892 104C459.167 103.253 458.596 102.336 458.18 101.248C457.764 100.149 457.556 98.88 457.556 97.44C457.556 96.32 457.737 95.2693 458.1 94.288C458.463 93.296 458.98 92.4373 459.652 91.712C460.335 90.976 461.161 90.3947 462.132 89.968C463.113 89.5413 464.217 89.328 465.444 89.328C466.479 89.328 467.433 89.4933 468.308 89.824C469.183 90.1547 469.935 90.64 470.564 91.28C471.193 91.9093 471.684 92.688 472.036 93.616C472.399 94.5333 472.58 95.584 472.58 96.768C472.58 97.3653 472.516 97.7707 472.388 97.984C472.26 98.1867 472.015 98.288 471.652 98.288H461.492ZM487.023 91.6C487.354 91.2693 487.7 90.9653 488.063 90.688C488.436 90.4 488.826 90.16 489.231 89.968C489.647 89.7653 490.09 89.6107 490.559 89.504C491.028 89.3867 491.54 89.328 492.095 89.328C492.991 89.328 493.786 89.4827 494.479 89.792C495.172 90.0907 495.748 90.5173 496.207 91.072C496.676 91.616 497.028 92.272 497.263 93.04C497.508 93.7973 497.631 94.6347 497.631 95.552V106H493.679V95.552C493.679 94.5493 493.45 93.776 492.991 93.232C492.532 92.6773 491.834 92.4 490.895 92.4C490.212 92.4 489.572 92.5547 488.975 92.864C488.378 93.1733 487.812 93.5947 487.279 94.128V106H483.327V89.584H485.743C486.255 89.584 486.591 89.824 486.751 90.304L487.023 91.6ZM515.534 89.584V106H513.118C512.595 106 512.264 105.76 512.126 105.28L511.854 103.968C511.182 104.651 510.44 105.205 509.63 105.632C508.819 106.048 507.864 106.256 506.766 106.256C505.87 106.256 505.075 106.107 504.382 105.808C503.699 105.499 503.123 105.067 502.654 104.512C502.184 103.957 501.827 103.301 501.582 102.544C501.347 101.776 501.23 100.933 501.23 100.016V89.584H505.182V100.016C505.182 101.019 505.411 101.797 505.87 102.352C506.339 102.896 507.038 103.168 507.966 103.168C508.648 103.168 509.288 103.019 509.886 102.72C510.483 102.411 511.048 101.989 511.582 101.456V89.584H515.534ZM531.212 93.056C531.095 93.2053 530.977 93.3227 530.86 93.408C530.753 93.4933 530.593 93.536 530.38 93.536C530.177 93.536 529.98 93.4773 529.788 93.36C529.596 93.232 529.367 93.0933 529.1 92.944C528.833 92.784 528.513 92.6453 528.14 92.528C527.777 92.4 527.324 92.336 526.78 92.336C526.087 92.336 525.479 92.464 524.956 92.72C524.433 92.9653 523.996 93.3227 523.644 93.792C523.303 94.2613 523.047 94.832 522.876 95.504C522.705 96.1653 522.62 96.9173 522.62 97.76C522.62 98.6347 522.711 99.4133 522.892 100.096C523.084 100.779 523.356 101.355 523.708 101.824C524.06 102.283 524.487 102.635 524.988 102.88C525.489 103.115 526.055 103.232 526.684 103.232C527.313 103.232 527.82 103.157 528.204 103.008C528.599 102.848 528.929 102.677 529.196 102.496C529.463 102.304 529.692 102.133 529.884 101.984C530.087 101.824 530.311 101.744 530.556 101.744C530.876 101.744 531.116 101.867 531.276 102.112L532.412 103.552C531.975 104.064 531.5 104.496 530.988 104.848C530.476 105.189 529.943 105.467 529.388 105.68C528.844 105.883 528.279 106.027 527.692 106.112C527.116 106.197 526.54 106.24 525.964 106.24C524.951 106.24 523.996 106.053 523.1 105.68C522.204 105.296 521.42 104.741 520.748 104.016C520.076 103.291 519.543 102.405 519.148 101.36C518.764 100.304 518.572 99.104 518.572 97.76C518.572 96.5547 518.743 95.44 519.084 94.416C519.436 93.3813 519.948 92.4907 520.62 91.744C521.292 90.9867 522.124 90.3947 523.116 89.968C524.108 89.5413 525.249 89.328 526.54 89.328C527.767 89.328 528.839 89.5253 529.756 89.92C530.684 90.3147 531.516 90.88 532.252 91.616L531.212 93.056ZM538.89 82.224V106H534.938V82.224H538.89ZM553.403 95.904C553.403 95.392 553.328 94.912 553.179 94.464C553.04 94.0053 552.827 93.6053 552.539 93.264C552.251 92.9227 551.883 92.656 551.435 92.464C550.998 92.2613 550.486 92.16 549.899 92.16C548.758 92.16 547.856 92.4853 547.195 93.136C546.544 93.7867 546.128 94.7093 545.947 95.904H553.403ZM545.867 98.288C545.931 99.1307 546.08 99.8613 546.315 100.48C546.55 101.088 546.859 101.595 547.243 102C547.627 102.395 548.08 102.693 548.603 102.896C549.136 103.088 549.723 103.184 550.363 103.184C551.003 103.184 551.552 103.109 552.011 102.96C552.48 102.811 552.886 102.645 553.227 102.464C553.579 102.283 553.883 102.117 554.139 101.968C554.406 101.819 554.662 101.744 554.907 101.744C555.238 101.744 555.483 101.867 555.643 102.112L556.779 103.552C556.342 104.064 555.851 104.496 555.307 104.848C554.763 105.189 554.192 105.467 553.595 105.68C553.008 105.883 552.406 106.027 551.787 106.112C551.179 106.197 550.587 106.24 550.011 106.24C548.87 106.24 547.808 106.053 546.827 105.68C545.846 105.296 544.992 104.736 544.267 104C543.542 103.253 542.971 102.336 542.555 101.248C542.139 100.149 541.931 98.88 541.931 97.44C541.931 96.32 542.112 95.2693 542.475 94.288C542.838 93.296 543.355 92.4373 544.027 91.712C544.71 90.976 545.536 90.3947 546.507 89.968C547.488 89.5413 548.592 89.328 549.819 89.328C550.854 89.328 551.808 89.4933 552.683 89.824C553.558 90.1547 554.31 90.64 554.939 91.28C555.568 91.9093 556.059 92.688 556.411 93.616C556.774 94.5333 556.955 95.584 556.955 96.768C556.955 97.3653 556.891 97.7707 556.763 97.984C556.635 98.1867 556.39 98.288 556.027 98.288H545.867ZM574.065 89.584V106H571.649C571.126 106 570.795 105.76 570.657 105.28L570.385 103.968C569.713 104.651 568.971 105.205 568.161 105.632C567.35 106.048 566.395 106.256 565.297 106.256C564.401 106.256 563.606 106.107 562.913 105.808C562.23 105.499 561.654 105.067 561.185 104.512C560.715 103.957 560.358 103.301 560.113 102.544C559.878 101.776 559.761 100.933 559.761 100.016V89.584H563.713V100.016C563.713 101.019 563.942 101.797 564.401 102.352C564.87 102.896 565.569 103.168 566.497 103.168C567.179 103.168 567.819 103.019 568.417 102.72C569.014 102.411 569.579 101.989 570.113 101.456V89.584H574.065ZM587.999 92.784C587.893 92.9547 587.781 93.0773 587.663 93.152C587.546 93.216 587.397 93.248 587.215 93.248C587.023 93.248 586.815 93.1947 586.591 93.088C586.378 92.9813 586.127 92.864 585.839 92.736C585.551 92.5973 585.221 92.4747 584.847 92.368C584.485 92.2613 584.053 92.208 583.551 92.208C582.773 92.208 582.159 92.3733 581.711 92.704C581.274 93.0347 581.055 93.4667 581.055 94C581.055 94.352 581.167 94.6507 581.391 94.896C581.626 95.1307 581.93 95.3387 582.303 95.52C582.687 95.7013 583.119 95.8667 583.599 96.016C584.079 96.1547 584.565 96.3093 585.055 96.48C585.557 96.6507 586.047 96.848 586.527 97.072C587.007 97.2853 587.434 97.5627 587.807 97.904C588.191 98.2347 588.495 98.6347 588.719 99.104C588.954 99.5733 589.071 100.139 589.071 100.8C589.071 101.589 588.927 102.32 588.639 102.992C588.362 103.653 587.946 104.229 587.391 104.72C586.837 105.2 586.149 105.579 585.327 105.856C584.517 106.123 583.578 106.256 582.511 106.256C581.946 106.256 581.391 106.203 580.847 106.096C580.314 106 579.797 105.861 579.295 105.68C578.805 105.499 578.346 105.285 577.919 105.04C577.503 104.795 577.135 104.528 576.815 104.24L577.727 102.736C577.845 102.555 577.983 102.416 578.143 102.32C578.303 102.224 578.506 102.176 578.751 102.176C578.997 102.176 579.226 102.245 579.439 102.384C579.663 102.523 579.919 102.672 580.207 102.832C580.495 102.992 580.831 103.141 581.215 103.28C581.61 103.419 582.106 103.488 582.703 103.488C583.173 103.488 583.573 103.435 583.903 103.328C584.245 103.211 584.522 103.061 584.735 102.88C584.959 102.699 585.119 102.491 585.215 102.256C585.322 102.011 585.375 101.76 585.375 101.504C585.375 101.12 585.258 100.805 585.023 100.56C584.799 100.315 584.495 100.101 584.111 99.92C583.738 99.7387 583.306 99.5787 582.815 99.44C582.335 99.2907 581.839 99.1307 581.327 98.96C580.826 98.7893 580.33 98.592 579.839 98.368C579.359 98.1333 578.927 97.84 578.543 97.488C578.17 97.136 577.866 96.704 577.631 96.192C577.407 95.68 577.295 95.0613 577.295 94.336C577.295 93.664 577.429 93.024 577.695 92.416C577.962 91.808 578.351 91.28 578.863 90.832C579.386 90.3733 580.031 90.0107 580.799 89.744C581.578 89.4667 582.474 89.328 583.487 89.328C584.618 89.328 585.647 89.5147 586.575 89.888C587.503 90.2613 588.277 90.752 588.895 91.36L587.999 92.784ZM591.47 103.824C591.47 103.493 591.528 103.179 591.646 102.88C591.774 102.581 591.944 102.325 592.158 102.112C592.371 101.899 592.627 101.728 592.926 101.6C593.224 101.472 593.544 101.408 593.886 101.408C594.227 101.408 594.542 101.472 594.83 101.6C595.128 101.728 595.384 101.899 595.598 102.112C595.822 102.325 595.998 102.581 596.126 102.88C596.254 103.179 596.318 103.493 596.318 103.824C596.318 104.165 596.254 104.485 596.126 104.784C595.998 105.072 595.822 105.323 595.598 105.536C595.384 105.749 595.128 105.915 594.83 106.032C594.542 106.16 594.227 106.224 593.886 106.224C593.544 106.224 593.224 106.16 592.926 106.032C592.627 105.915 592.371 105.749 592.158 105.536C591.944 105.323 591.774 105.072 591.646 104.784C591.528 104.485 591.47 104.165 591.47 103.824Z" fill="#21242C"/>
<defs>
<clipPath id="clip0_1_56">
<rect width="679" height="150" fill="white"/>
</clipPath>
<clipPath id="clip1_1_56">
<rect width="97" height="150" fill="white"/>
</clipPath>
</defs>
</svg>
