<svg width="679" height="150" viewBox="0 0 679 150" fill="none" xmlns="http://www.w3.org/2000/svg">
<g clip-path="url(#clip0_140_3909)">
<g clip-path="url(#clip1_140_3909)">
<path d="M4 20C4 11.1634 11.1634 4 20 4H93V146H20C11.1634 146 4 138.837 4 130V20Z" fill="#D92916" stroke="#D92916" stroke-width="8"/>
<path d="M35.3203 101.68V100.781C35.3203 97.9167 35.7891 95.3385 36.7266 93.0469C37.6641 90.7292 38.875 88.6589 40.3594 86.8359C41.8698 84.987 43.4844 83.3594 45.2031 81.9531C46.9219 80.5208 48.5625 79.2448 50.125 78.125C53.4062 75.7812 55.8802 73.6458 57.5469 71.7188C59.2396 69.7656 60.0859 67.5781 60.0859 65.1562C60.0859 60.3125 57.4297 57.8906 52.1172 57.8906C50.0078 57.8906 48.1458 58.2292 46.5312 58.9062C44.9167 59.5833 43.6146 60.2604 42.625 60.9375C42.0521 61.3281 41.5964 61.4974 41.2578 61.4453C40.9193 61.3932 40.5677 61.0417 40.2031 60.3906L36.8828 54.5703C36.4141 53.763 36.5573 53.099 37.3125 52.5781C38.7708 51.5885 40.8802 50.5859 43.6406 49.5703C46.4271 48.5547 50.0469 48.0469 54.5 48.0469C60.2031 48.0469 64.6562 49.4792 67.8594 52.3438C71.0625 55.2083 72.6641 59.0755 72.6641 63.9453C72.6641 67.3568 71.987 70.2995 70.6328 72.7734C69.2786 75.2474 67.5208 77.4349 65.3594 79.3359C63.1979 81.237 60.8802 83.0469 58.4062 84.7656C55.8802 86.5104 53.6536 88.2422 51.7266 89.9609C49.7995 91.6797 48.8359 93.2812 48.8359 94.7656H69.0703C69.6953 94.7656 70.1641 94.8698 70.4766 95.0781C71.1536 95.5469 71.8568 96.1068 72.5859 96.7578C73.3151 97.4089 74.0833 98.1901 74.8906 99.1016C75.151 99.4401 75.2812 99.7005 75.2812 99.8828C75.2812 100.117 75.151 100.378 74.8906 100.664C74.0833 101.576 73.3151 102.357 72.5859 103.008C71.8568 103.659 71.1536 104.219 70.4766 104.688C70.112 104.896 69.6432 105 69.0703 105H38.2109C37.0911 105 36.3229 104.714 35.9062 104.141C35.5156 103.542 35.3203 102.721 35.3203 101.68Z" fill="white"/>
</g>
<mask id="path-3-inside-1_140_3909" fill="white">
<path d="M97 0H659C670.046 0 679 8.95431 679 20V130C679 141.046 670.046 150 659 150H97V0Z"/>
</mask>
<path d="M97 0H659C670.046 0 679 8.95431 679 20V130C679 141.046 670.046 150 659 150H97V0Z" fill="white"/>
<path d="M97 -8H659C674.464 -8 687 4.53603 687 20H671C671 13.3726 665.627 8 659 8H97V-8ZM687 130C687 145.464 674.464 158 659 158H97V142H659C665.627 142 671 136.627 671 130H687ZM97 150V0V150ZM659 -8C674.464 -8 687 4.53603 687 20V130C687 145.464 674.464 158 659 158V142C665.627 142 671 136.627 671 130V20C671 13.3726 665.627 8 659 8V-8Z" fill="#D92916" mask="url(#path-3-inside-1_140_3909)"/>
</g>
<defs>
<clipPath id="clip0_140_3909">
<rect width="679" height="150" fill="white"/>
</clipPath>
<clipPath id="clip1_140_3909">
<rect width="97" height="150" fill="white"/>
</clipPath>
</defs>
</svg>
