<svg width="679" height="150" viewBox="0 0 679 150" fill="none" xmlns="http://www.w3.org/2000/svg">
<g clip-path="url(#clip0_1_57)">
<g clip-path="url(#clip1_1_57)">
<path d="M20 4H93V146H20C11.1634 146 4 138.837 4 130V20C4 11.1634 11.1634 4 20 4Z" fill="#FFB100" stroke="#FFB100" stroke-width="8"/>
<path d="M50.3203 105.977C46.0755 105.977 42.7292 105.625 40.2812 104.922C37.8333 104.193 36.0365 103.516 34.8906 102.891C34.1094 102.5 33.9141 101.862 34.3047 100.977L37 94.6094C37.2865 93.9323 37.599 93.5547 37.9375 93.4766C38.276 93.3984 38.7448 93.5026 39.3438 93.7891C40.3854 94.2839 41.7786 94.8047 43.5234 95.3516C45.2943 95.8724 47.3646 96.1328 49.7344 96.1328C52.6771 96.1328 55.0078 95.5208 56.7266 94.2969C58.4714 93.0729 59.3438 91.25 59.3438 88.8281C59.3438 86.3281 58.25 84.4401 56.0625 83.1641C53.901 81.862 50.9193 81.2109 47.1172 81.2109H46.2188C45.5938 81.2109 45.125 81.1068 44.8125 80.8984C44.1354 80.4557 43.4323 79.9349 42.7031 79.3359C42 78.7109 41.2318 77.9557 40.3984 77.0703C40.138 76.7318 40.0078 76.4714 40.0078 76.2891C40.0078 76.0547 40.138 75.7943 40.3984 75.5078C41.2318 74.6224 42 73.8802 42.7031 73.2812C43.4323 72.6562 44.1354 72.1224 44.8125 71.6797C45.1771 71.4714 45.6458 71.3672 46.2188 71.3672H46.7266C54.0182 71.3672 57.6641 69.0104 57.6641 64.2969C57.6641 60.026 55.0208 57.8906 49.7344 57.8906C47.9115 57.8906 46.2318 58.125 44.6953 58.5938C43.1589 59.0625 41.9219 59.5312 40.9844 60C40.3854 60.2865 39.9167 60.3906 39.5781 60.3125C39.2656 60.2083 38.9661 59.8438 38.6797 59.2188L36.0625 53.2422C35.6979 52.3828 35.8932 51.7318 36.6484 51.2891C37.7943 50.6901 39.6302 50 42.1562 49.2188C44.6823 48.4375 47.9896 48.0469 52.0781 48.0469C55.4896 48.0469 58.5625 48.5677 61.2969 49.6094C64.0312 50.651 66.2057 52.2005 67.8203 54.2578C69.4349 56.3151 70.2422 58.8802 70.2422 61.9531C70.2422 69.2708 66.5312 73.8542 59.1094 75.7031V75.8984C62.9115 76.3932 65.9974 77.7865 68.3672 80.0781C70.737 82.3698 71.9219 85.3385 71.9219 88.9844C71.9219 92.7344 70.9844 95.8724 69.1094 98.3984C67.2604 100.924 64.7083 102.826 61.4531 104.102C58.1979 105.352 54.487 105.977 50.3203 105.977Z" fill="white"/>
</g>
<mask id="path-3-inside-1_1_57" fill="white">
<path d="M97 0H659C670.046 0 679 8.95431 679 20V130C679 141.046 670.046 150 659 150H97V0Z"/>
</mask>
<path d="M97 0H659C670.046 0 679 8.95431 679 20V130C679 141.046 670.046 150 659 150H97V0Z" fill="white"/>
<path d="M97 -8H659C674.464 -8 687 4.53603 687 20H671C671 13.3726 665.627 8 659 8H97V-8ZM687 130C687 145.464 674.464 158 659 158H97V142H659C665.627 142 671 136.627 671 130H687ZM97 150V0V150ZM659 -8C674.464 -8 687 4.53603 687 20V130C687 145.464 674.464 158 659 158V142C665.627 142 671 136.627 671 130V20C671 13.3726 665.627 8 659 8V-8Z" fill="#FFB100" mask="url(#path-3-inside-1_1_57)"/>
</g>
<path d="M146.736 29.4H139.76V49H135.456V29.4H128.48V25.864H146.736V29.4ZM152.81 34.344C153.45 33.7467 154.154 33.2613 154.922 32.888C155.69 32.5147 156.592 32.328 157.626 32.328C158.522 32.328 159.317 32.4827 160.01 32.792C160.704 33.0907 161.28 33.5173 161.738 34.072C162.208 34.616 162.56 35.272 162.794 36.04C163.04 36.7973 163.162 37.6347 163.162 38.552V49H159.21V38.552C159.21 37.5493 158.981 36.776 158.522 36.232C158.064 35.6773 157.365 35.4 156.426 35.4C155.744 35.4 155.104 35.5547 154.506 35.864C153.909 36.1733 153.344 36.5947 152.81 37.128V49H148.858V25.224H152.81V34.344ZM177.497 38.904C177.497 38.392 177.422 37.912 177.273 37.464C177.134 37.0053 176.921 36.6053 176.633 36.264C176.345 35.9227 175.977 35.656 175.529 35.464C175.091 35.2613 174.579 35.16 173.993 35.16C172.851 35.16 171.95 35.4853 171.289 36.136C170.638 36.7867 170.222 37.7093 170.041 38.904H177.497ZM169.961 41.288C170.025 42.1307 170.174 42.8613 170.409 43.48C170.643 44.088 170.953 44.5947 171.337 45C171.721 45.3947 172.174 45.6933 172.697 45.896C173.23 46.088 173.817 46.184 174.457 46.184C175.097 46.184 175.646 46.1093 176.105 45.96C176.574 45.8107 176.979 45.6453 177.321 45.464C177.673 45.2827 177.977 45.1173 178.233 44.968C178.499 44.8187 178.755 44.744 179.001 44.744C179.331 44.744 179.577 44.8667 179.737 45.112L180.873 46.552C180.435 47.064 179.945 47.496 179.401 47.848C178.857 48.1893 178.286 48.4667 177.689 48.68C177.102 48.8827 176.499 49.0267 175.881 49.112C175.273 49.1973 174.681 49.24 174.105 49.24C172.963 49.24 171.902 49.0533 170.921 48.68C169.939 48.296 169.086 47.736 168.361 47C167.635 46.2533 167.065 45.336 166.649 44.248C166.233 43.1493 166.025 41.88 166.025 40.44C166.025 39.32 166.206 38.2693 166.569 37.288C166.931 36.296 167.449 35.4373 168.121 34.712C168.803 33.976 169.63 33.3947 170.601 32.968C171.582 32.5413 172.686 32.328 173.913 32.328C174.947 32.328 175.902 32.4933 176.777 32.824C177.651 33.1547 178.403 33.64 179.033 34.28C179.662 34.9093 180.153 35.688 180.505 36.616C180.867 37.5333 181.049 38.584 181.049 39.768C181.049 40.3653 180.985 40.7707 180.857 40.984C180.729 41.1867 180.483 41.288 180.121 41.288H169.961ZM195.748 44.744C196.196 45.288 196.681 45.672 197.204 45.896C197.737 46.12 198.313 46.232 198.932 46.232C199.529 46.232 200.068 46.12 200.548 45.896C201.028 45.672 201.433 45.3307 201.764 44.872C202.105 44.4133 202.366 43.8373 202.548 43.144C202.729 42.44 202.82 41.6133 202.82 40.664C202.82 39.704 202.74 38.8933 202.58 38.232C202.43 37.56 202.212 37.016 201.924 36.6C201.636 36.184 201.284 35.88 200.868 35.688C200.462 35.496 199.998 35.4 199.476 35.4C198.654 35.4 197.956 35.576 197.38 35.928C196.804 36.2693 196.26 36.7547 195.748 37.384V44.744ZM195.54 34.824C196.212 34.0667 196.974 33.4533 197.828 32.984C198.681 32.5147 199.684 32.28 200.836 32.28C201.732 32.28 202.548 32.4667 203.284 32.84C204.03 33.2133 204.67 33.7573 205.204 34.472C205.748 35.176 206.164 36.0507 206.452 37.096C206.75 38.1307 206.9 39.32 206.9 40.664C206.9 41.8907 206.734 43.0267 206.404 44.072C206.073 45.1173 205.598 46.024 204.98 46.792C204.372 47.56 203.63 48.1627 202.756 48.6C201.892 49.0267 200.921 49.24 199.844 49.24C198.926 49.24 198.142 49.1013 197.492 48.824C196.841 48.536 196.26 48.1413 195.748 47.64V54.36H191.796V32.584H194.212C194.724 32.584 195.06 32.824 195.22 33.304L195.54 34.824ZM213.711 35.432C214.223 34.4507 214.831 33.6827 215.535 33.128C216.239 32.5627 217.071 32.28 218.031 32.28C218.789 32.28 219.397 32.4453 219.855 32.776L219.599 35.736C219.546 35.928 219.466 36.0667 219.359 36.152C219.263 36.2267 219.13 36.264 218.959 36.264C218.799 36.264 218.559 36.2373 218.239 36.184C217.93 36.1307 217.626 36.104 217.327 36.104C216.89 36.104 216.501 36.168 216.159 36.296C215.818 36.424 215.509 36.6107 215.231 36.856C214.965 37.0907 214.725 37.3787 214.511 37.72C214.309 38.0613 214.117 38.4507 213.935 38.888V49H209.983V32.584H212.303C212.709 32.584 212.991 32.6587 213.151 32.808C213.311 32.9467 213.418 33.2027 213.471 33.576L213.711 35.432ZM228.716 32.328C229.932 32.328 231.036 32.5253 232.028 32.92C233.031 33.3147 233.884 33.8747 234.588 34.6C235.303 35.3253 235.852 36.2107 236.236 37.256C236.62 38.3013 236.812 39.4693 236.812 40.76C236.812 42.0613 236.62 43.2347 236.236 44.28C235.852 45.3253 235.303 46.216 234.588 46.952C233.884 47.688 233.031 48.2533 232.028 48.648C231.036 49.0427 229.932 49.24 228.716 49.24C227.489 49.24 226.375 49.0427 225.372 48.648C224.369 48.2533 223.511 47.688 222.796 46.952C222.092 46.216 221.543 45.3253 221.148 44.28C220.764 43.2347 220.572 42.0613 220.572 40.76C220.572 39.4693 220.764 38.3013 221.148 37.256C221.543 36.2107 222.092 35.3253 222.796 34.6C223.511 33.8747 224.369 33.3147 225.372 32.92C226.375 32.5253 227.489 32.328 228.716 32.328ZM228.716 46.2C230.081 46.2 231.089 45.7413 231.74 44.824C232.401 43.9067 232.732 42.5627 232.732 40.792C232.732 39.0213 232.401 37.672 231.74 36.744C231.089 35.816 230.081 35.352 228.716 35.352C227.329 35.352 226.3 35.8213 225.628 36.76C224.967 37.688 224.636 39.032 224.636 40.792C224.636 42.552 224.967 43.896 225.628 44.824C226.3 45.7413 227.329 46.2 228.716 46.2ZM251.587 36.056C251.47 36.2053 251.352 36.3227 251.235 36.408C251.128 36.4933 250.968 36.536 250.755 36.536C250.552 36.536 250.355 36.4773 250.163 36.36C249.971 36.232 249.742 36.0933 249.475 35.944C249.208 35.784 248.888 35.6453 248.515 35.528C248.152 35.4 247.699 35.336 247.155 35.336C246.462 35.336 245.854 35.464 245.331 35.72C244.808 35.9653 244.371 36.3227 244.019 36.792C243.678 37.2613 243.422 37.832 243.251 38.504C243.08 39.1653 242.995 39.9173 242.995 40.76C242.995 41.6347 243.086 42.4133 243.267 43.096C243.459 43.7787 243.731 44.3547 244.083 44.824C244.435 45.2827 244.862 45.6347 245.363 45.88C245.864 46.1147 246.43 46.232 247.059 46.232C247.688 46.232 248.195 46.1573 248.579 46.008C248.974 45.848 249.304 45.6773 249.571 45.496C249.838 45.304 250.067 45.1333 250.259 44.984C250.462 44.824 250.686 44.744 250.931 44.744C251.251 44.744 251.491 44.8667 251.651 45.112L252.787 46.552C252.35 47.064 251.875 47.496 251.363 47.848C250.851 48.1893 250.318 48.4667 249.763 48.68C249.219 48.8827 248.654 49.0267 248.067 49.112C247.491 49.1973 246.915 49.24 246.339 49.24C245.326 49.24 244.371 49.0533 243.475 48.68C242.579 48.296 241.795 47.7413 241.123 47.016C240.451 46.2907 239.918 45.4053 239.523 44.36C239.139 43.304 238.947 42.104 238.947 40.76C238.947 39.5547 239.118 38.44 239.459 37.416C239.811 36.3813 240.323 35.4907 240.995 34.744C241.667 33.9867 242.499 33.3947 243.491 32.968C244.483 32.5413 245.624 32.328 246.915 32.328C248.142 32.328 249.214 32.5253 250.131 32.92C251.059 33.3147 251.891 33.88 252.627 34.616L251.587 36.056ZM265.559 38.904C265.559 38.392 265.485 37.912 265.335 37.464C265.197 37.0053 264.983 36.6053 264.695 36.264C264.407 35.9227 264.039 35.656 263.591 35.464C263.154 35.2613 262.642 35.16 262.055 35.16C260.914 35.16 260.013 35.4853 259.351 36.136C258.701 36.7867 258.285 37.7093 258.103 38.904H265.559ZM258.023 41.288C258.087 42.1307 258.237 42.8613 258.471 43.48C258.706 44.088 259.015 44.5947 259.399 45C259.783 45.3947 260.237 45.6933 260.759 45.896C261.293 46.088 261.879 46.184 262.519 46.184C263.159 46.184 263.709 46.1093 264.167 45.96C264.637 45.8107 265.042 45.6453 265.383 45.464C265.735 45.2827 266.039 45.1173 266.295 44.968C266.562 44.8187 266.818 44.744 267.063 44.744C267.394 44.744 267.639 44.8667 267.799 45.112L268.935 46.552C268.498 47.064 268.007 47.496 267.463 47.848C266.919 48.1893 266.349 48.4667 265.751 48.68C265.165 48.8827 264.562 49.0267 263.943 49.112C263.335 49.1973 262.743 49.24 262.167 49.24C261.026 49.24 259.965 49.0533 258.983 48.68C258.002 48.296 257.149 47.736 256.423 47C255.698 46.2533 255.127 45.336 254.711 44.248C254.295 43.1493 254.087 41.88 254.087 40.44C254.087 39.32 254.269 38.2693 254.631 37.288C254.994 36.296 255.511 35.4373 256.183 34.712C256.866 33.976 257.693 33.3947 258.663 32.968C259.645 32.5413 260.749 32.328 261.975 32.328C263.01 32.328 263.965 32.4933 264.839 32.824C265.714 33.1547 266.466 33.64 267.095 34.28C267.725 34.9093 268.215 35.688 268.567 36.616C268.93 37.5333 269.111 38.584 269.111 39.768C269.111 40.3653 269.047 40.7707 268.919 40.984C268.791 41.1867 268.546 41.288 268.183 41.288H258.023ZM282.093 35.784C281.986 35.9547 281.874 36.0773 281.757 36.152C281.64 36.216 281.49 36.248 281.309 36.248C281.117 36.248 280.909 36.1947 280.685 36.088C280.472 35.9813 280.221 35.864 279.933 35.736C279.645 35.5973 279.314 35.4747 278.941 35.368C278.578 35.2613 278.146 35.208 277.645 35.208C276.866 35.208 276.253 35.3733 275.805 35.704C275.368 36.0347 275.149 36.4667 275.149 37C275.149 37.352 275.261 37.6507 275.485 37.896C275.72 38.1307 276.024 38.3387 276.397 38.52C276.781 38.7013 277.213 38.8667 277.693 39.016C278.173 39.1547 278.658 39.3093 279.149 39.48C279.65 39.6507 280.141 39.848 280.621 40.072C281.101 40.2853 281.528 40.5627 281.901 40.904C282.285 41.2347 282.589 41.6347 282.813 42.104C283.048 42.5733 283.165 43.1387 283.165 43.8C283.165 44.5893 283.021 45.32 282.733 45.992C282.456 46.6533 282.04 47.2293 281.485 47.72C280.93 48.2 280.242 48.5787 279.421 48.856C278.61 49.1227 277.672 49.256 276.605 49.256C276.04 49.256 275.485 49.2027 274.941 49.096C274.408 49 273.89 48.8613 273.389 48.68C272.898 48.4987 272.44 48.2853 272.013 48.04C271.597 47.7947 271.229 47.528 270.909 47.24L271.821 45.736C271.938 45.5547 272.077 45.416 272.237 45.32C272.397 45.224 272.6 45.176 272.845 45.176C273.09 45.176 273.32 45.2453 273.533 45.384C273.757 45.5227 274.013 45.672 274.301 45.832C274.589 45.992 274.925 46.1413 275.309 46.28C275.704 46.4187 276.2 46.488 276.797 46.488C277.266 46.488 277.666 46.4347 277.997 46.328C278.338 46.2107 278.616 46.0613 278.829 45.88C279.053 45.6987 279.213 45.4907 279.309 45.256C279.416 45.0107 279.469 44.76 279.469 44.504C279.469 44.12 279.352 43.8053 279.117 43.56C278.893 43.3147 278.589 43.1013 278.205 42.92C277.832 42.7387 277.4 42.5787 276.909 42.44C276.429 42.2907 275.933 42.1307 275.421 41.96C274.92 41.7893 274.424 41.592 273.933 41.368C273.453 41.1333 273.021 40.84 272.637 40.488C272.264 40.136 271.96 39.704 271.725 39.192C271.501 38.68 271.389 38.0613 271.389 37.336C271.389 36.664 271.522 36.024 271.789 35.416C272.056 34.808 272.445 34.28 272.957 33.832C273.48 33.3733 274.125 33.0107 274.893 32.744C275.672 32.4667 276.568 32.328 277.581 32.328C278.712 32.328 279.741 32.5147 280.669 32.888C281.597 33.2613 282.37 33.752 282.989 34.36L282.093 35.784ZM296.156 35.784C296.049 35.9547 295.937 36.0773 295.82 36.152C295.702 36.216 295.553 36.248 295.372 36.248C295.18 36.248 294.972 36.1947 294.748 36.088C294.534 35.9813 294.284 35.864 293.996 35.736C293.708 35.5973 293.377 35.4747 293.003 35.368C292.641 35.2613 292.209 35.208 291.708 35.208C290.929 35.208 290.316 35.3733 289.868 35.704C289.43 36.0347 289.212 36.4667 289.212 37C289.212 37.352 289.324 37.6507 289.548 37.896C289.782 38.1307 290.086 38.3387 290.46 38.52C290.844 38.7013 291.276 38.8667 291.756 39.016C292.236 39.1547 292.721 39.3093 293.212 39.48C293.713 39.6507 294.204 39.848 294.684 40.072C295.164 40.2853 295.59 40.5627 295.964 40.904C296.348 41.2347 296.652 41.6347 296.876 42.104C297.11 42.5733 297.228 43.1387 297.228 43.8C297.228 44.5893 297.084 45.32 296.796 45.992C296.518 46.6533 296.102 47.2293 295.548 47.72C294.993 48.2 294.305 48.5787 293.484 48.856C292.673 49.1227 291.734 49.256 290.668 49.256C290.102 49.256 289.548 49.2027 289.004 49.096C288.47 49 287.953 48.8613 287.452 48.68C286.961 48.4987 286.502 48.2853 286.076 48.04C285.66 47.7947 285.292 47.528 284.972 47.24L285.884 45.736C286.001 45.5547 286.14 45.416 286.299 45.32C286.459 45.224 286.662 45.176 286.908 45.176C287.153 45.176 287.382 45.2453 287.596 45.384C287.82 45.5227 288.076 45.672 288.364 45.832C288.652 45.992 288.988 46.1413 289.372 46.28C289.766 46.4187 290.262 46.488 290.86 46.488C291.329 46.488 291.729 46.4347 292.06 46.328C292.401 46.2107 292.678 46.0613 292.892 45.88C293.116 45.6987 293.275 45.4907 293.372 45.256C293.478 45.0107 293.532 44.76 293.532 44.504C293.532 44.12 293.414 43.8053 293.18 43.56C292.956 43.3147 292.652 43.1013 292.267 42.92C291.894 42.7387 291.462 42.5787 290.972 42.44C290.492 42.2907 289.996 42.1307 289.484 41.96C288.982 41.7893 288.486 41.592 287.996 41.368C287.516 41.1333 287.084 40.84 286.7 40.488C286.326 40.136 286.022 39.704 285.788 39.192C285.564 38.68 285.452 38.0613 285.452 37.336C285.452 36.664 285.585 36.024 285.852 35.416C286.118 34.808 286.508 34.28 287.02 33.832C287.542 33.3733 288.188 33.0107 288.956 32.744C289.734 32.4667 290.63 32.328 291.644 32.328C292.774 32.328 293.804 32.5147 294.732 32.888C295.66 33.2613 296.433 33.752 297.052 34.36L296.156 35.784ZM311.935 44.744C312.383 45.288 312.869 45.672 313.391 45.896C313.925 46.12 314.485 46.232 315.071 46.232C315.679 46.232 316.223 46.1253 316.703 45.912C317.194 45.688 317.61 45.3467 317.951 44.888C318.293 44.4187 318.554 43.8267 318.735 43.112C318.917 42.3867 319.007 41.5227 319.007 40.52C319.007 38.7173 318.709 37.416 318.111 36.616C317.514 35.8053 316.655 35.4 315.535 35.4C314.778 35.4 314.117 35.576 313.551 35.928C312.986 36.2693 312.447 36.7547 311.935 37.384V44.744ZM311.935 34.6C312.597 33.9067 313.327 33.3573 314.127 32.952C314.938 32.536 315.861 32.328 316.895 32.328C317.845 32.328 318.698 32.5147 319.455 32.888C320.223 33.2613 320.874 33.8 321.407 34.504C321.951 35.1973 322.367 36.04 322.655 37.032C322.943 38.024 323.087 39.1387 323.087 40.376C323.087 41.7093 322.922 42.92 322.591 44.008C322.261 45.096 321.786 46.0293 321.167 46.808C320.559 47.576 319.823 48.1733 318.959 48.6C318.095 49.0267 317.135 49.24 316.079 49.24C315.567 49.24 315.103 49.1867 314.687 49.08C314.271 48.984 313.887 48.8453 313.535 48.664C313.183 48.4827 312.858 48.264 312.559 48.008C312.271 47.7413 311.994 47.448 311.727 47.128L311.551 48.232C311.487 48.5093 311.375 48.7067 311.215 48.824C311.066 48.9413 310.858 49 310.591 49H307.983V25.224H311.935V34.6ZM340.583 32.584L331.639 53.512C331.521 53.7893 331.367 53.9973 331.175 54.136C330.993 54.2853 330.711 54.36 330.327 54.36H327.383L330.455 47.768L323.815 32.584H327.287C327.596 32.584 327.836 32.6587 328.007 32.808C328.188 32.9573 328.321 33.128 328.407 33.32L331.895 41.832C332.012 42.12 332.108 42.408 332.183 42.696C332.268 42.984 332.348 43.2773 332.423 43.576C332.519 43.2773 332.615 42.984 332.711 42.696C332.807 42.3973 332.913 42.104 333.031 41.816L336.327 33.32C336.412 33.1067 336.551 32.9307 336.743 32.792C336.945 32.6533 337.169 32.584 337.415 32.584H340.583ZM372.298 32.584L367.082 49H363.914C363.552 49 363.301 48.7653 363.162 48.296L360.218 38.808C360.122 38.488 360.032 38.1733 359.946 37.864C359.872 37.544 359.808 37.224 359.754 36.904C359.69 37.224 359.616 37.5493 359.53 37.88C359.456 38.2 359.37 38.52 359.274 38.84L356.282 48.296C356.154 48.7653 355.872 49 355.434 49H352.394L347.194 32.584H350.346C350.634 32.584 350.88 32.6533 351.082 32.792C351.285 32.9307 351.418 33.1067 351.482 33.32L353.834 42.088C353.952 42.568 354.053 43.0373 354.138 43.496C354.234 43.9547 354.314 44.4133 354.378 44.872C354.496 44.4133 354.618 43.9547 354.746 43.496C354.885 43.0373 355.029 42.568 355.178 42.088L357.898 33.288C357.962 33.0747 358.085 32.8987 358.266 32.76C358.458 32.6213 358.688 32.552 358.954 32.552H360.698C360.976 32.552 361.21 32.6213 361.402 32.76C361.605 32.8987 361.738 33.0747 361.802 33.288L364.442 42.088C364.581 42.568 364.709 43.0427 364.826 43.512C364.954 43.9707 365.077 44.4293 365.194 44.888C365.333 43.9813 365.53 43.048 365.786 42.088L368.202 33.32C368.277 33.1067 368.41 32.9307 368.602 32.792C368.794 32.6533 369.024 32.584 369.29 32.584H372.298ZM378.498 34.344C379.138 33.7467 379.842 33.2613 380.61 32.888C381.378 32.5147 382.279 32.328 383.314 32.328C384.21 32.328 385.004 32.4827 385.698 32.792C386.391 33.0907 386.967 33.5173 387.426 34.072C387.895 34.616 388.247 35.272 388.482 36.04C388.727 36.7973 388.85 37.6347 388.85 38.552V49H384.898V38.552C384.898 37.5493 384.668 36.776 384.21 36.232C383.751 35.6773 383.052 35.4 382.114 35.4C381.431 35.4 380.791 35.5547 380.194 35.864C379.596 36.1733 379.031 36.5947 378.498 37.128V49H374.546V25.224H378.498V34.344ZM396.704 32.584V49H392.736V32.584H396.704ZM397.248 27.8C397.248 28.1413 397.179 28.4613 397.04 28.76C396.902 29.0587 396.715 29.32 396.48 29.544C396.256 29.768 395.99 29.9493 395.68 30.088C395.371 30.216 395.04 30.28 394.688 30.28C394.347 30.28 394.022 30.216 393.712 30.088C393.414 29.9493 393.152 29.768 392.928 29.544C392.704 29.32 392.523 29.0587 392.384 28.76C392.256 28.4613 392.192 28.1413 392.192 27.8C392.192 27.448 392.256 27.1173 392.384 26.808C392.523 26.4987 392.704 26.232 392.928 26.008C393.152 25.784 393.414 25.608 393.712 25.48C394.022 25.3413 394.347 25.272 394.688 25.272C395.04 25.272 395.371 25.3413 395.68 25.48C395.99 25.608 396.256 25.784 396.48 26.008C396.715 26.232 396.902 26.4987 397.04 26.808C397.179 27.1173 397.248 27.448 397.248 27.8ZM412.493 36.056C412.376 36.2053 412.259 36.3227 412.141 36.408C412.035 36.4933 411.875 36.536 411.661 36.536C411.459 36.536 411.261 36.4773 411.069 36.36C410.877 36.232 410.648 36.0933 410.381 35.944C410.115 35.784 409.795 35.6453 409.421 35.528C409.059 35.4 408.605 35.336 408.061 35.336C407.368 35.336 406.76 35.464 406.237 35.72C405.715 35.9653 405.277 36.3227 404.925 36.792C404.584 37.2613 404.328 37.832 404.157 38.504C403.987 39.1653 403.901 39.9173 403.901 40.76C403.901 41.6347 403.992 42.4133 404.173 43.096C404.365 43.7787 404.637 44.3547 404.989 44.824C405.341 45.2827 405.768 45.6347 406.269 45.88C406.771 46.1147 407.336 46.232 407.965 46.232C408.595 46.232 409.101 46.1573 409.485 46.008C409.88 45.848 410.211 45.6773 410.477 45.496C410.744 45.304 410.973 45.1333 411.165 44.984C411.368 44.824 411.592 44.744 411.837 44.744C412.157 44.744 412.397 44.8667 412.557 45.112L413.693 46.552C413.256 47.064 412.781 47.496 412.269 47.848C411.757 48.1893 411.224 48.4667 410.669 48.68C410.125 48.8827 409.56 49.0267 408.973 49.112C408.397 49.1973 407.821 49.24 407.245 49.24C406.232 49.24 405.277 49.0533 404.381 48.68C403.485 48.296 402.701 47.7413 402.029 47.016C401.357 46.2907 400.824 45.4053 400.429 44.36C400.045 43.304 399.853 42.104 399.853 40.76C399.853 39.5547 400.024 38.44 400.365 37.416C400.717 36.3813 401.229 35.4907 401.901 34.744C402.573 33.9867 403.405 33.3947 404.397 32.968C405.389 32.5413 406.531 32.328 407.821 32.328C409.048 32.328 410.12 32.5253 411.037 32.92C411.965 33.3147 412.797 33.88 413.533 34.616L412.493 36.056ZM420.123 34.344C420.763 33.7467 421.467 33.2613 422.235 32.888C423.003 32.5147 423.904 32.328 424.939 32.328C425.835 32.328 426.629 32.4827 427.323 32.792C428.016 33.0907 428.592 33.5173 429.051 34.072C429.52 34.616 429.872 35.272 430.107 36.04C430.352 36.7973 430.475 37.6347 430.475 38.552V49H426.523V38.552C426.523 37.5493 426.293 36.776 425.835 36.232C425.376 35.6773 424.677 35.4 423.739 35.4C423.056 35.4 422.416 35.5547 421.819 35.864C421.221 36.1733 420.656 36.5947 420.123 37.128V49H416.171V25.224H420.123V34.344ZM450.687 41.992C449.545 42.0453 448.585 42.1467 447.807 42.296C447.028 42.4347 446.404 42.616 445.935 42.84C445.465 43.064 445.129 43.3253 444.927 43.624C444.724 43.9227 444.623 44.248 444.623 44.6C444.623 45.2933 444.825 45.7893 445.231 46.088C445.647 46.3867 446.185 46.536 446.847 46.536C447.657 46.536 448.356 46.392 448.943 46.104C449.54 45.8053 450.121 45.3573 450.687 44.76V41.992ZM441.631 34.872C443.519 33.144 445.791 32.28 448.447 32.28C449.407 32.28 450.265 32.44 451.023 32.76C451.78 33.0693 452.42 33.5067 452.943 34.072C453.465 34.6267 453.86 35.2933 454.127 36.072C454.404 36.8507 454.543 37.704 454.543 38.632V49H452.751C452.377 49 452.089 48.9467 451.887 48.84C451.684 48.7227 451.524 48.4933 451.407 48.152L451.055 46.968C450.639 47.3413 450.233 47.672 449.839 47.96C449.444 48.2373 449.033 48.472 448.607 48.664C448.18 48.856 447.721 49 447.231 49.096C446.751 49.2027 446.217 49.256 445.631 49.256C444.937 49.256 444.297 49.1653 443.711 48.984C443.124 48.792 442.617 48.5093 442.191 48.136C441.764 47.7627 441.433 47.2987 441.199 46.744C440.964 46.1893 440.847 45.544 440.847 44.808C440.847 44.392 440.916 43.9813 441.055 43.576C441.193 43.16 441.417 42.7653 441.727 42.392C442.047 42.0187 442.457 41.6667 442.959 41.336C443.46 41.0053 444.073 40.7173 444.799 40.472C445.535 40.2267 446.388 40.0293 447.359 39.88C448.329 39.72 449.439 39.624 450.687 39.592V38.632C450.687 37.5333 450.452 36.7227 449.983 36.2C449.513 35.6667 448.836 35.4 447.951 35.4C447.311 35.4 446.777 35.4747 446.351 35.624C445.935 35.7733 445.567 35.944 445.247 36.136C444.927 36.3173 444.633 36.4827 444.367 36.632C444.111 36.7813 443.823 36.856 443.503 36.856C443.225 36.856 442.991 36.7867 442.799 36.648C442.607 36.4987 442.452 36.328 442.335 36.136L441.631 34.872ZM469.998 44.744C470.446 45.288 470.931 45.672 471.454 45.896C471.987 46.12 472.563 46.232 473.182 46.232C473.779 46.232 474.318 46.12 474.798 45.896C475.278 45.672 475.683 45.3307 476.014 44.872C476.355 44.4133 476.616 43.8373 476.798 43.144C476.979 42.44 477.07 41.6133 477.07 40.664C477.07 39.704 476.99 38.8933 476.83 38.232C476.68 37.56 476.462 37.016 476.174 36.6C475.886 36.184 475.534 35.88 475.118 35.688C474.712 35.496 474.248 35.4 473.726 35.4C472.904 35.4 472.206 35.576 471.63 35.928C471.054 36.2693 470.51 36.7547 469.998 37.384V44.744ZM469.79 34.824C470.462 34.0667 471.224 33.4533 472.078 32.984C472.931 32.5147 473.934 32.28 475.086 32.28C475.982 32.28 476.798 32.4667 477.534 32.84C478.28 33.2133 478.92 33.7573 479.454 34.472C479.998 35.176 480.414 36.0507 480.702 37.096C481 38.1307 481.15 39.32 481.15 40.664C481.15 41.8907 480.984 43.0267 480.654 44.072C480.323 45.1173 479.848 46.024 479.23 46.792C478.622 47.56 477.88 48.1627 477.006 48.6C476.142 49.0267 475.171 49.24 474.094 49.24C473.176 49.24 472.392 49.1013 471.742 48.824C471.091 48.536 470.51 48.1413 469.998 47.64V54.36H466.046V32.584H468.462C468.974 32.584 469.31 32.824 469.47 33.304L469.79 34.824ZM492.905 41.992C491.764 42.0453 490.804 42.1467 490.025 42.296C489.247 42.4347 488.623 42.616 488.153 42.84C487.684 43.064 487.348 43.3253 487.145 43.624C486.943 43.9227 486.841 44.248 486.841 44.6C486.841 45.2933 487.044 45.7893 487.449 46.088C487.865 46.3867 488.404 46.536 489.065 46.536C489.876 46.536 490.575 46.392 491.161 46.104C491.759 45.8053 492.34 45.3573 492.905 44.76V41.992ZM483.849 34.872C485.737 33.144 488.009 32.28 490.665 32.28C491.625 32.28 492.484 32.44 493.241 32.76C493.999 33.0693 494.639 33.5067 495.161 34.072C495.684 34.6267 496.079 35.2933 496.345 36.072C496.623 36.8507 496.761 37.704 496.761 38.632V49H494.969C494.596 49 494.308 48.9467 494.105 48.84C493.903 48.7227 493.743 48.4933 493.625 48.152L493.273 46.968C492.857 47.3413 492.452 47.672 492.057 47.96C491.663 48.2373 491.252 48.472 490.825 48.664C490.399 48.856 489.94 49 489.449 49.096C488.969 49.2027 488.436 49.256 487.849 49.256C487.156 49.256 486.516 49.1653 485.929 48.984C485.343 48.792 484.836 48.5093 484.409 48.136C483.983 47.7627 483.652 47.2987 483.417 46.744C483.183 46.1893 483.065 45.544 483.065 44.808C483.065 44.392 483.135 43.9813 483.273 43.576C483.412 43.16 483.636 42.7653 483.945 42.392C484.265 42.0187 484.676 41.6667 485.177 41.336C485.679 41.0053 486.292 40.7173 487.017 40.472C487.753 40.2267 488.607 40.0293 489.577 39.88C490.548 39.72 491.657 39.624 492.905 39.592V38.632C492.905 37.5333 492.671 36.7227 492.201 36.2C491.732 35.6667 491.055 35.4 490.169 35.4C489.529 35.4 488.996 35.4747 488.569 35.624C488.153 35.7733 487.785 35.944 487.465 36.136C487.145 36.3173 486.852 36.4827 486.585 36.632C486.329 36.7813 486.041 36.856 485.721 36.856C485.444 36.856 485.209 36.7867 485.017 36.648C484.825 36.4987 484.671 36.328 484.553 36.136L483.849 34.872ZM504.211 35.432C504.723 34.4507 505.331 33.6827 506.035 33.128C506.739 32.5627 507.571 32.28 508.531 32.28C509.289 32.28 509.897 32.4453 510.355 32.776L510.099 35.736C510.046 35.928 509.966 36.0667 509.859 36.152C509.763 36.2267 509.63 36.264 509.459 36.264C509.299 36.264 509.059 36.2373 508.739 36.184C508.43 36.1307 508.126 36.104 507.827 36.104C507.39 36.104 507.001 36.168 506.659 36.296C506.318 36.424 506.009 36.6107 505.731 36.856C505.465 37.0907 505.225 37.3787 505.011 37.72C504.809 38.0613 504.617 38.4507 504.435 38.888V49H500.483V32.584H502.803C503.209 32.584 503.491 32.6587 503.651 32.808C503.811 32.9467 503.918 33.2027 503.971 33.576L504.211 35.432ZM528.981 49H525.029V35.544H517.413V44.44C517.413 44.952 517.535 45.352 517.781 45.64C518.037 45.928 518.383 46.072 518.821 46.072C519.066 46.072 519.269 46.0453 519.429 45.992C519.599 45.928 519.743 45.864 519.861 45.8C519.989 45.736 520.101 45.6773 520.197 45.624C520.293 45.56 520.389 45.528 520.485 45.528C520.602 45.528 520.698 45.56 520.773 45.624C520.847 45.6773 520.927 45.7627 521.013 45.88L522.197 47.8C521.621 48.28 520.959 48.6427 520.213 48.888C519.466 49.1333 518.693 49.256 517.893 49.256C516.463 49.256 515.365 48.856 514.597 48.056C513.839 47.2453 513.461 46.1307 513.461 44.712V35.544H511.781C511.567 35.544 511.386 35.4747 511.237 35.336C511.087 35.1973 511.013 34.9893 511.013 34.712V33.144L513.653 32.696L514.485 28.232C514.538 28.0187 514.639 27.8533 514.789 27.736C514.938 27.6187 515.13 27.56 515.365 27.56H517.413V32.728H528.981V49ZM529.669 27.736C529.669 28.0773 529.599 28.4027 529.461 28.712C529.322 29.0107 529.135 29.272 528.901 29.496C528.677 29.72 528.405 29.9013 528.085 30.04C527.775 30.168 527.445 30.232 527.093 30.232C526.751 30.232 526.431 30.168 526.133 30.04C525.834 29.9013 525.573 29.72 525.349 29.496C525.125 29.272 524.943 29.0107 524.805 28.712C524.677 28.4027 524.613 28.0773 524.613 27.736C524.613 27.384 524.677 27.0587 524.805 26.76C524.943 26.4507 525.125 26.184 525.349 25.96C525.573 25.7253 525.834 25.544 526.133 25.416C526.431 25.2773 526.751 25.208 527.093 25.208C527.445 25.208 527.775 25.2773 528.085 25.416C528.405 25.544 528.677 25.7253 528.901 25.96C529.135 26.184 529.322 26.4507 529.461 26.76C529.599 27.0587 529.669 27.384 529.669 27.736ZM544.775 36.056C544.657 36.2053 544.54 36.3227 544.423 36.408C544.316 36.4933 544.156 36.536 543.943 36.536C543.74 36.536 543.543 36.4773 543.351 36.36C543.159 36.232 542.929 36.0933 542.663 35.944C542.396 35.784 542.076 35.6453 541.703 35.528C541.34 35.4 540.887 35.336 540.343 35.336C539.649 35.336 539.041 35.464 538.519 35.72C537.996 35.9653 537.559 36.3227 537.207 36.792C536.865 37.2613 536.609 37.832 536.439 38.504C536.268 39.1653 536.183 39.9173 536.183 40.76C536.183 41.6347 536.273 42.4133 536.455 43.096C536.647 43.7787 536.919 44.3547 537.271 44.824C537.623 45.2827 538.049 45.6347 538.551 45.88C539.052 46.1147 539.617 46.232 540.247 46.232C540.876 46.232 541.383 46.1573 541.767 46.008C542.161 45.848 542.492 45.6773 542.759 45.496C543.025 45.304 543.255 45.1333 543.447 44.984C543.649 44.824 543.873 44.744 544.119 44.744C544.439 44.744 544.679 44.8667 544.839 45.112L545.975 46.552C545.537 47.064 545.063 47.496 544.551 47.848C544.039 48.1893 543.505 48.4667 542.951 48.68C542.407 48.8827 541.841 49.0267 541.255 49.112C540.679 49.1973 540.103 49.24 539.527 49.24C538.513 49.24 537.559 49.0533 536.663 48.68C535.767 48.296 534.983 47.7413 534.311 47.016C533.639 46.2907 533.105 45.4053 532.711 44.36C532.327 43.304 532.135 42.104 532.135 40.76C532.135 39.5547 532.305 38.44 532.647 37.416C532.999 36.3813 533.511 35.4907 534.183 34.744C534.855 33.9867 535.687 33.3947 536.679 32.968C537.671 32.5413 538.812 32.328 540.102 32.328C541.329 32.328 542.401 32.5253 543.319 32.92C544.247 33.3147 545.079 33.88 545.815 34.616L544.775 36.056ZM552.452 25.224V49H548.5V25.224H552.452ZM566.966 38.904C566.966 38.392 566.891 37.912 566.742 37.464C566.603 37.0053 566.39 36.6053 566.102 36.264C565.814 35.9227 565.446 35.656 564.998 35.464C564.56 35.2613 564.048 35.16 563.462 35.16C562.32 35.16 561.419 35.4853 560.758 36.136C560.107 36.7867 559.691 37.7093 559.51 38.904H566.966ZM559.43 41.288C559.494 42.1307 559.643 42.8613 559.878 43.48C560.112 44.088 560.422 44.5947 560.806 45C561.19 45.3947 561.643 45.6933 562.166 45.896C562.699 46.088 563.286 46.184 563.926 46.184C564.566 46.184 565.115 46.1093 565.574 45.96C566.043 45.8107 566.448 45.6453 566.79 45.464C567.142 45.2827 567.446 45.1173 567.702 44.968C567.968 44.8187 568.224 44.744 568.47 44.744C568.8 44.744 569.046 44.8667 569.206 45.112L570.342 46.552C569.904 47.064 569.414 47.496 568.87 47.848C568.326 48.1893 567.755 48.4667 567.158 48.68C566.571 48.8827 565.968 49.0267 565.35 49.112C564.742 49.1973 564.15 49.24 563.574 49.24C562.432 49.24 561.371 49.0533 560.39 48.68C559.408 48.296 558.555 47.736 557.83 47C557.104 46.2533 556.534 45.336 556.118 44.248C555.702 43.1493 555.493 41.88 555.493 40.44C555.493 39.32 555.675 38.2693 556.038 37.288C556.4 36.296 556.918 35.4373 557.59 34.712C558.272 33.976 559.099 33.3947 560.07 32.968C561.051 32.5413 562.155 32.328 563.382 32.328C564.416 32.328 565.371 32.4933 566.246 32.824C567.12 33.1547 567.872 33.64 568.502 34.28C569.131 34.9093 569.622 35.688 569.974 36.616C570.336 37.5333 570.517 38.584 570.517 39.768C570.517 40.3653 570.454 40.7707 570.326 40.984C570.198 41.1867 569.952 41.288 569.59 41.288H559.43ZM585.265 25.224V49H581.312V25.224H585.265ZM596.466 32.328C597.682 32.328 598.786 32.5253 599.778 32.92C600.781 33.3147 601.634 33.8747 602.338 34.6C603.053 35.3253 603.602 36.2107 603.986 37.256C604.37 38.3013 604.562 39.4693 604.562 40.76C604.562 42.0613 604.37 43.2347 603.986 44.28C603.602 45.3253 603.053 46.216 602.338 46.952C601.634 47.688 600.781 48.2533 599.778 48.648C598.786 49.0427 597.682 49.24 596.466 49.24C595.239 49.24 594.125 49.0427 593.122 48.648C592.119 48.2533 591.261 47.688 590.546 46.952C589.842 46.216 589.293 45.3253 588.898 44.28C588.514 43.2347 588.322 42.0613 588.322 40.76C588.322 39.4693 588.514 38.3013 588.898 37.256C589.293 36.2107 589.842 35.3253 590.546 34.6C591.261 33.8747 592.119 33.3147 593.122 32.92C594.125 32.5253 595.239 32.328 596.466 32.328ZM596.466 46.2C597.831 46.2 598.839 45.7413 599.49 44.824C600.151 43.9067 600.482 42.5627 600.482 40.792C600.482 39.0213 600.151 37.672 599.49 36.744C598.839 35.816 597.831 35.352 596.466 35.352C595.079 35.352 594.05 35.8213 593.378 36.76C592.717 37.688 592.386 39.032 592.386 40.792C592.386 42.552 592.717 43.896 593.378 44.824C594.05 45.7413 595.079 46.2 596.466 46.2ZM617.593 35.784C617.486 35.9547 617.374 36.0773 617.257 36.152C617.14 36.216 616.99 36.248 616.809 36.248C616.617 36.248 616.409 36.1947 616.185 36.088C615.972 35.9813 615.721 35.864 615.433 35.736C615.145 35.5973 614.814 35.4747 614.441 35.368C614.078 35.2613 613.646 35.208 613.145 35.208C612.366 35.208 611.753 35.3733 611.305 35.704C610.868 36.0347 610.649 36.4667 610.649 37C610.649 37.352 610.761 37.6507 610.985 37.896C611.22 38.1307 611.524 38.3387 611.897 38.52C612.281 38.7013 612.713 38.8667 613.193 39.016C613.673 39.1547 614.158 39.3093 614.649 39.48C615.15 39.6507 615.641 39.848 616.121 40.072C616.601 40.2853 617.028 40.5627 617.401 40.904C617.785 41.2347 618.089 41.6347 618.313 42.104C618.548 42.5733 618.665 43.1387 618.665 43.8C618.665 44.5893 618.521 45.32 618.233 45.992C617.956 46.6533 617.54 47.2293 616.985 47.72C616.43 48.2 615.742 48.5787 614.921 48.856C614.11 49.1227 613.172 49.256 612.105 49.256C611.54 49.256 610.985 49.2027 610.441 49.096C609.908 49 609.39 48.8613 608.889 48.68C608.398 48.4987 607.94 48.2853 607.513 48.04C607.097 47.7947 606.729 47.528 606.409 47.24L607.321 45.736C607.438 45.5547 607.577 45.416 607.737 45.32C607.897 45.224 608.1 45.176 608.345 45.176C608.59 45.176 608.82 45.2453 609.033 45.384C609.257 45.5227 609.513 45.672 609.801 45.832C610.089 45.992 610.425 46.1413 610.809 46.28C611.204 46.4187 611.7 46.488 612.297 46.488C612.766 46.488 613.166 46.4347 613.497 46.328C613.838 46.2107 614.116 46.0613 614.329 45.88C614.553 45.6987 614.713 45.4907 614.809 45.256C614.916 45.0107 614.969 44.76 614.969 44.504C614.969 44.12 614.852 43.8053 614.617 43.56C614.393 43.3147 614.089 43.1013 613.705 42.92C613.332 42.7387 612.9 42.5787 612.409 42.44C611.929 42.2907 611.433 42.1307 610.921 41.96C610.42 41.7893 609.924 41.592 609.433 41.368C608.953 41.1333 608.521 40.84 608.137 40.488C607.764 40.136 607.46 39.704 607.225 39.192C607.001 38.68 606.889 38.0613 606.889 37.336C606.889 36.664 607.022 36.024 607.289 35.416C607.556 34.808 607.945 34.28 608.457 33.832C608.98 33.3733 609.625 33.0107 610.393 32.744C611.172 32.4667 612.068 32.328 613.081 32.328C614.212 32.328 615.241 32.5147 616.169 32.888C617.097 33.2613 617.87 33.752 618.489 34.36L617.593 35.784ZM632.216 38.904C632.216 38.392 632.141 37.912 631.992 37.464C631.853 37.0053 631.64 36.6053 631.352 36.264C631.064 35.9227 630.696 35.656 630.248 35.464C629.81 35.2613 629.298 35.16 628.712 35.16C627.57 35.16 626.669 35.4853 626.008 36.136C625.357 36.7867 624.941 37.7093 624.76 38.904H632.216ZM624.68 41.288C624.744 42.1307 624.893 42.8613 625.128 43.48C625.362 44.088 625.672 44.5947 626.056 45C626.44 45.3947 626.893 45.6933 627.416 45.896C627.949 46.088 628.536 46.184 629.176 46.184C629.816 46.184 630.365 46.1093 630.824 45.96C631.293 45.8107 631.698 45.6453 632.04 45.464C632.392 45.2827 632.696 45.1173 632.952 44.968C633.218 44.8187 633.474 44.744 633.72 44.744C634.05 44.744 634.296 44.8667 634.456 45.112L635.592 46.552C635.154 47.064 634.664 47.496 634.12 47.848C633.576 48.1893 633.005 48.4667 632.408 48.68C631.821 48.8827 631.218 49.0267 630.6 49.112C629.992 49.1973 629.4 49.24 628.824 49.24C627.682 49.24 626.621 49.0533 625.64 48.68C624.658 48.296 623.805 47.736 623.08 47C622.354 46.2533 621.784 45.336 621.368 44.248C620.952 43.1493 620.743 41.88 620.743 40.44C620.743 39.32 620.925 38.2693 621.288 37.288C621.65 36.296 622.168 35.4373 622.84 34.712C623.522 33.976 624.349 33.3947 625.32 32.968C626.301 32.5413 627.405 32.328 628.632 32.328C629.666 32.328 630.621 32.4933 631.496 32.824C632.37 33.1547 633.122 33.64 633.752 34.28C634.381 34.9093 634.872 35.688 635.224 36.616C635.586 37.5333 635.767 38.584 635.767 39.768C635.767 40.3653 635.704 40.7707 635.576 40.984C635.448 41.1867 635.202 41.288 634.84 41.288H624.68ZM648.749 35.784C648.643 35.9547 648.531 36.0773 648.413 36.152C648.296 36.216 648.147 36.248 647.965 36.248C647.773 36.248 647.565 36.1947 647.341 36.088C647.128 35.9813 646.877 35.864 646.589 35.736C646.301 35.5973 645.971 35.4747 645.597 35.368C645.235 35.2613 644.803 35.208 644.301 35.208C643.523 35.208 642.909 35.3733 642.461 35.704C642.024 36.0347 641.805 36.4667 641.805 37C641.805 37.352 641.917 37.6507 642.141 37.896C642.376 38.1307 642.68 38.3387 643.053 38.52C643.437 38.7013 643.869 38.8667 644.349 39.016C644.829 39.1547 645.315 39.3093 645.805 39.48C646.307 39.6507 646.797 39.848 647.277 40.072C647.757 40.2853 648.184 40.5627 648.557 40.904C648.941 41.2347 649.245 41.6347 649.469 42.104C649.704 42.5733 649.821 43.1387 649.821 43.8C649.821 44.5893 649.677 45.32 649.389 45.992C649.112 46.6533 648.696 47.2293 648.141 47.72C647.587 48.2 646.899 48.5787 646.077 48.856C645.267 49.1227 644.328 49.256 643.261 49.256C642.696 49.256 642.141 49.2027 641.597 49.096C641.064 49 640.547 48.8613 640.045 48.68C639.555 48.4987 639.096 48.2853 638.669 48.04C638.253 47.7947 637.885 47.528 637.565 47.24L638.477 45.736C638.595 45.5547 638.733 45.416 638.893 45.32C639.053 45.224 639.256 45.176 639.501 45.176C639.747 45.176 639.976 45.2453 640.189 45.384C640.413 45.5227 640.669 45.672 640.957 45.832C641.245 45.992 641.581 46.1413 641.965 46.28C642.36 46.4187 642.856 46.488 643.453 46.488C643.923 46.488 644.323 46.4347 644.653 46.328C644.995 46.2107 645.272 46.0613 645.485 45.88C645.709 45.6987 645.869 45.4907 645.965 45.256C646.072 45.0107 646.125 44.76 646.125 44.504C646.125 44.12 646.008 43.8053 645.773 43.56C645.549 43.3147 645.245 43.1013 644.861 42.92C644.488 42.7387 644.056 42.5787 643.565 42.44C643.085 42.2907 642.589 42.1307 642.077 41.96C641.576 41.7893 641.08 41.592 640.589 41.368C640.109 41.1333 639.677 40.84 639.293 40.488C638.92 40.136 638.616 39.704 638.381 39.192C638.157 38.68 638.045 38.0613 638.045 37.336C638.045 36.664 638.179 36.024 638.445 35.416C638.712 34.808 639.101 34.28 639.613 33.832C640.136 33.3733 640.781 33.0107 641.549 32.744C642.328 32.4667 643.224 32.328 644.237 32.328C645.368 32.328 646.397 32.5147 647.325 32.888C648.253 33.2613 649.027 33.752 649.645 34.36L648.749 35.784ZM140.528 76.904C140.528 76.392 140.453 75.912 140.304 75.464C140.165 75.0053 139.952 74.6053 139.664 74.264C139.376 73.9227 139.008 73.656 138.56 73.464C138.123 73.2613 137.611 73.16 137.024 73.16C135.883 73.16 134.981 73.4853 134.32 74.136C133.669 74.7867 133.253 75.7093 133.072 76.904H140.528ZM132.992 79.288C133.056 80.1307 133.205 80.8613 133.44 81.48C133.675 82.088 133.984 82.5947 134.368 83C134.752 83.3947 135.205 83.6933 135.728 83.896C136.261 84.088 136.848 84.184 137.488 84.184C138.128 84.184 138.677 84.1093 139.136 83.96C139.605 83.8107 140.011 83.6453 140.352 83.464C140.704 83.2827 141.008 83.1173 141.264 82.968C141.531 82.8187 141.787 82.744 142.032 82.744C142.363 82.744 142.608 82.8667 142.768 83.112L143.904 84.552C143.467 85.064 142.976 85.496 142.432 85.848C141.888 86.1893 141.317 86.4667 140.72 86.68C140.133 86.8827 139.531 87.0267 138.912 87.112C138.304 87.1973 137.712 87.24 137.136 87.24C135.995 87.24 134.933 87.0533 133.952 86.68C132.971 86.296 132.117 85.736 131.392 85C130.667 84.2533 130.096 83.336 129.68 82.248C129.264 81.1493 129.056 79.88 129.056 78.44C129.056 77.32 129.237 76.2693 129.6 75.288C129.963 74.296 130.48 73.4373 131.152 72.712C131.835 71.976 132.661 71.3947 133.632 70.968C134.613 70.5413 135.717 70.328 136.944 70.328C137.979 70.328 138.933 70.4933 139.808 70.824C140.683 71.1547 141.435 71.64 142.064 72.28C142.693 72.9093 143.184 73.688 143.536 74.616C143.899 75.5333 144.08 76.584 144.08 77.768C144.08 78.3653 144.016 78.7707 143.888 78.984C143.76 79.1867 143.515 79.288 143.152 79.288H132.992ZM150.742 72.6C151.072 72.2693 151.419 71.9653 151.782 71.688C152.155 71.4 152.544 71.16 152.95 70.968C153.366 70.7653 153.808 70.6107 154.278 70.504C154.747 70.3867 155.259 70.328 155.814 70.328C156.71 70.328 157.504 70.4827 158.198 70.792C158.891 71.0907 159.467 71.5173 159.926 72.072C160.395 72.616 160.747 73.272 160.982 74.04C161.227 74.7973 161.35 75.6347 161.35 76.552V87H157.398V76.552C157.398 75.5493 157.168 74.776 156.71 74.232C156.251 73.6773 155.552 73.4 154.614 73.4C153.931 73.4 153.291 73.5547 152.694 73.864C152.096 74.1733 151.531 74.5947 150.998 75.128V87H147.046V70.584H149.462C149.974 70.584 150.31 70.824 150.47 71.304L150.742 72.6ZM175.684 76.904C175.684 76.392 175.61 75.912 175.46 75.464C175.322 75.0053 175.108 74.6053 174.82 74.264C174.532 73.9227 174.164 73.656 173.716 73.464C173.279 73.2613 172.767 73.16 172.18 73.16C171.039 73.16 170.138 73.4853 169.476 74.136C168.826 74.7867 168.41 75.7093 168.228 76.904H175.684ZM168.148 79.288C168.212 80.1307 168.362 80.8613 168.596 81.48C168.831 82.088 169.14 82.5947 169.524 83C169.908 83.3947 170.362 83.6933 170.884 83.896C171.418 84.088 172.004 84.184 172.644 84.184C173.284 84.184 173.834 84.1093 174.292 83.96C174.762 83.8107 175.167 83.6453 175.508 83.464C175.86 83.2827 176.164 83.1173 176.42 82.968C176.687 82.8187 176.943 82.744 177.188 82.744C177.519 82.744 177.764 82.8667 177.924 83.112L179.06 84.552C178.623 85.064 178.132 85.496 177.588 85.848C177.044 86.1893 176.474 86.4667 175.876 86.68C175.29 86.8827 174.687 87.0267 174.068 87.112C173.46 87.1973 172.868 87.24 172.292 87.24C171.151 87.24 170.09 87.0533 169.108 86.68C168.127 86.296 167.274 85.736 166.548 85C165.823 84.2533 165.252 83.336 164.836 82.248C164.42 81.1493 164.212 79.88 164.212 78.44C164.212 77.32 164.394 76.2693 164.756 75.288C165.119 74.296 165.636 73.4373 166.308 72.712C166.991 71.976 167.818 71.3947 168.788 70.968C169.77 70.5413 170.874 70.328 172.1 70.328C173.135 70.328 174.09 70.4933 174.964 70.824C175.839 71.1547 176.591 71.64 177.22 72.28C177.85 72.9093 178.34 73.688 178.692 74.616C179.055 75.5333 179.236 76.584 179.236 77.768C179.236 78.3653 179.172 78.7707 179.044 78.984C178.916 79.1867 178.671 79.288 178.308 79.288H168.148ZM185.93 73.432C186.442 72.4507 187.05 71.6827 187.754 71.128C188.458 70.5627 189.29 70.28 190.25 70.28C191.007 70.28 191.615 70.4453 192.074 70.776L191.818 73.736C191.765 73.928 191.685 74.0667 191.578 74.152C191.482 74.2267 191.349 74.264 191.178 74.264C191.018 74.264 190.778 74.2373 190.458 74.184C190.149 74.1307 189.845 74.104 189.546 74.104C189.109 74.104 188.719 74.168 188.378 74.296C188.037 74.424 187.727 74.6107 187.45 74.856C187.183 75.0907 186.943 75.3787 186.73 75.72C186.527 76.0613 186.335 76.4507 186.154 76.888V87H182.202V70.584H184.522C184.927 70.584 185.21 70.6587 185.37 70.808C185.53 70.9467 185.637 71.2027 185.69 71.576L185.93 73.432ZM199.952 78.392C200.443 78.392 200.869 78.328 201.232 78.2C201.595 78.0613 201.893 77.8747 202.128 77.64C202.373 77.4053 202.555 77.1227 202.672 76.792C202.8 76.4613 202.864 76.0987 202.864 75.704C202.864 74.8933 202.619 74.2533 202.128 73.784C201.648 73.304 200.923 73.064 199.952 73.064C198.981 73.064 198.251 73.304 197.76 73.784C197.28 74.2533 197.04 74.8933 197.04 75.704C197.04 76.088 197.099 76.4453 197.216 76.776C197.344 77.1067 197.525 77.3947 197.76 77.64C198.005 77.8747 198.309 78.0613 198.672 78.2C199.045 78.328 199.472 78.392 199.952 78.392ZM204.416 87.736C204.416 87.416 204.32 87.1547 204.128 86.952C203.936 86.7493 203.675 86.5947 203.344 86.488C203.013 86.3707 202.624 86.2853 202.176 86.232C201.739 86.1787 201.269 86.1413 200.768 86.12C200.277 86.088 199.765 86.0613 199.232 86.04C198.709 86.0187 198.197 85.976 197.696 85.912C197.259 86.1573 196.901 86.4453 196.624 86.776C196.357 87.1067 196.224 87.4907 196.224 87.928C196.224 88.216 196.293 88.4827 196.432 88.728C196.581 88.984 196.811 89.2027 197.12 89.384C197.44 89.5653 197.851 89.704 198.352 89.8C198.853 89.9067 199.467 89.96 200.192 89.96C200.928 89.96 201.563 89.9013 202.096 89.784C202.629 89.6773 203.067 89.5227 203.408 89.32C203.76 89.128 204.016 88.8933 204.176 88.616C204.336 88.3493 204.416 88.056 204.416 87.736ZM208.352 71.144V72.616C208.352 73.0853 208.069 73.3733 207.504 73.48L206.032 73.752C206.256 74.3173 206.368 74.936 206.368 75.608C206.368 76.4187 206.203 77.1547 205.872 77.816C205.552 78.4667 205.104 79.0213 204.528 79.48C203.952 79.9387 203.269 80.296 202.48 80.552C201.701 80.7973 200.859 80.92 199.952 80.92C199.632 80.92 199.323 80.904 199.024 80.872C198.725 80.84 198.432 80.7973 198.144 80.744C197.632 81.0533 197.376 81.4 197.376 81.784C197.376 82.1147 197.525 82.36 197.824 82.52C198.133 82.6693 198.539 82.776 199.04 82.84C199.541 82.904 200.112 82.9467 200.752 82.968C201.392 82.9787 202.048 83.0107 202.72 83.064C203.392 83.1173 204.048 83.2133 204.688 83.352C205.328 83.48 205.899 83.688 206.4 83.976C206.901 84.264 207.301 84.6587 207.6 85.16C207.909 85.6507 208.064 86.2853 208.064 87.064C208.064 87.7893 207.883 88.4933 207.52 89.176C207.168 89.8587 206.651 90.4667 205.968 91C205.296 91.5333 204.464 91.96 203.472 92.28C202.491 92.6107 201.371 92.776 200.112 92.776C198.875 92.776 197.797 92.6533 196.88 92.408C195.963 92.1733 195.2 91.8533 194.592 91.448C193.984 91.0533 193.531 90.5947 193.232 90.072C192.933 89.5493 192.784 89.0053 192.784 88.44C192.784 87.672 193.013 87.032 193.472 86.52C193.941 85.9973 194.581 85.5813 195.392 85.272C194.955 85.048 194.608 84.7493 194.352 84.376C194.096 84.0027 193.968 83.512 193.968 82.904C193.968 82.6587 194.011 82.408 194.096 82.152C194.192 81.8853 194.325 81.624 194.496 81.368C194.677 81.112 194.901 80.872 195.168 80.648C195.435 80.4133 195.749 80.2053 196.112 80.024C195.28 79.576 194.624 78.9787 194.144 78.232C193.675 77.4853 193.44 76.6107 193.44 75.608C193.44 74.7973 193.6 74.0667 193.92 73.416C194.251 72.7547 194.704 72.1947 195.28 71.736C195.867 71.2667 196.555 70.9093 197.344 70.664C198.144 70.4187 199.013 70.296 199.952 70.296C200.656 70.296 201.317 70.3707 201.936 70.52C202.555 70.6587 203.12 70.8667 203.632 71.144H208.352ZM225.77 70.584L216.826 91.512C216.709 91.7893 216.554 91.9973 216.362 92.136C216.181 92.2853 215.898 92.36 215.514 92.36H212.57L215.642 85.768L209.002 70.584H212.474C212.784 70.584 213.024 70.6587 213.194 70.808C213.376 70.9573 213.509 71.128 213.594 71.32L217.082 79.832C217.2 80.12 217.296 80.408 217.37 80.696C217.456 80.984 217.536 81.2773 217.61 81.576C217.706 81.2773 217.802 80.984 217.898 80.696C217.994 80.3973 218.101 80.104 218.218 79.816L221.514 71.32C221.6 71.1067 221.738 70.9307 221.93 70.792C222.133 70.6533 222.357 70.584 222.602 70.584H225.77ZM243.374 79.992C242.233 80.0453 241.273 80.1467 240.494 80.296C239.715 80.4347 239.091 80.616 238.622 80.84C238.153 81.064 237.817 81.3253 237.614 81.624C237.411 81.9227 237.31 82.248 237.31 82.6C237.31 83.2933 237.513 83.7893 237.918 84.088C238.334 84.3867 238.873 84.536 239.534 84.536C240.345 84.536 241.043 84.392 241.63 84.104C242.227 83.8053 242.809 83.3573 243.374 82.76V79.992ZM234.318 72.872C236.206 71.144 238.478 70.28 241.134 70.28C242.094 70.28 242.953 70.44 243.71 70.76C244.467 71.0693 245.107 71.5067 245.63 72.072C246.153 72.6267 246.547 73.2933 246.814 74.072C247.091 74.8507 247.23 75.704 247.23 76.632V87H245.438C245.065 87 244.777 86.9467 244.574 86.84C244.371 86.7227 244.211 86.4933 244.094 86.152L243.742 84.968C243.326 85.3413 242.921 85.672 242.526 85.96C242.131 86.2373 241.721 86.472 241.294 86.664C240.867 86.856 240.409 87 239.918 87.096C239.438 87.2027 238.905 87.256 238.318 87.256C237.625 87.256 236.985 87.1653 236.398 86.984C235.811 86.792 235.305 86.5093 234.878 86.136C234.451 85.7627 234.121 85.2987 233.886 84.744C233.651 84.1893 233.534 83.544 233.534 82.808C233.534 82.392 233.603 81.9813 233.742 81.576C233.881 81.16 234.105 80.7653 234.414 80.392C234.734 80.0187 235.145 79.6667 235.646 79.336C236.147 79.0053 236.761 78.7173 237.486 78.472C238.222 78.2267 239.075 78.0293 240.046 77.88C241.017 77.72 242.126 77.624 243.374 77.592V76.632C243.374 75.5333 243.139 74.7227 242.67 74.2C242.201 73.6667 241.523 73.4 240.638 73.4C239.998 73.4 239.465 73.4747 239.038 73.624C238.622 73.7733 238.254 73.944 237.934 74.136C237.614 74.3173 237.321 74.4827 237.054 74.632C236.798 74.7813 236.51 74.856 236.19 74.856C235.913 74.856 235.678 74.7867 235.486 74.648C235.294 74.4987 235.139 74.328 235.022 74.136L234.318 72.872ZM254.648 72.6C254.979 72.2693 255.325 71.9653 255.688 71.688C256.061 71.4 256.451 71.16 256.856 70.968C257.272 70.7653 257.715 70.6107 258.184 70.504C258.653 70.3867 259.165 70.328 259.72 70.328C260.616 70.328 261.411 70.4827 262.104 70.792C262.797 71.0907 263.373 71.5173 263.832 72.072C264.301 72.616 264.653 73.272 264.888 74.04C265.133 74.7973 265.256 75.6347 265.256 76.552V87H261.304V76.552C261.304 75.5493 261.075 74.776 260.616 74.232C260.157 73.6773 259.459 73.4 258.52 73.4C257.837 73.4 257.197 73.5547 256.6 73.864C256.003 74.1733 255.437 74.5947 254.904 75.128V87H250.952V70.584H253.368C253.88 70.584 254.216 70.824 254.376 71.304L254.648 72.6ZM279.319 74.776C278.871 74.232 278.38 73.848 277.847 73.624C277.324 73.4 276.759 73.288 276.151 73.288C275.553 73.288 275.015 73.4 274.535 73.624C274.055 73.848 273.644 74.1893 273.303 74.648C272.961 75.096 272.7 75.672 272.519 76.376C272.337 77.0693 272.247 77.8907 272.247 78.84C272.247 79.8 272.321 80.616 272.471 81.288C272.631 81.9493 272.855 82.4933 273.143 82.92C273.431 83.336 273.783 83.64 274.199 83.832C274.615 84.0133 275.079 84.104 275.591 84.104C276.412 84.104 277.111 83.9333 277.687 83.592C278.263 83.2507 278.807 82.7653 279.319 82.136V74.776ZM283.271 63.224V87H280.855C280.332 87 280.001 86.76 279.863 86.28L279.527 84.696C278.865 85.4533 278.103 86.0667 277.239 86.536C276.385 87.0053 275.388 87.24 274.247 87.24C273.351 87.24 272.529 87.0533 271.783 86.68C271.036 86.3067 270.391 85.768 269.847 85.064C269.313 84.3493 268.897 83.4693 268.599 82.424C268.311 81.3787 268.167 80.184 268.167 78.84C268.167 77.624 268.332 76.4933 268.663 75.448C268.993 74.4027 269.468 73.496 270.087 72.728C270.705 71.96 271.447 71.3627 272.311 70.936C273.175 70.4987 274.145 70.28 275.223 70.28C276.14 70.28 276.924 70.424 277.575 70.712C278.225 71 278.807 71.3893 279.319 71.88V63.224H283.271ZM298.68 73.432C299.192 72.4507 299.8 71.6827 300.504 71.128C301.208 70.5627 302.04 70.28 303 70.28C303.757 70.28 304.365 70.4453 304.824 70.776L304.568 73.736C304.515 73.928 304.435 74.0667 304.328 74.152C304.232 74.2267 304.099 74.264 303.928 74.264C303.768 74.264 303.528 74.2373 303.208 74.184C302.899 74.1307 302.595 74.104 302.296 74.104C301.859 74.104 301.469 74.168 301.128 74.296C300.787 74.424 300.477 74.6107 300.2 74.856C299.933 75.0907 299.693 75.3787 299.48 75.72C299.277 76.0613 299.085 76.4507 298.904 76.888V87H294.952V70.584H297.272C297.677 70.584 297.96 70.6587 298.12 70.808C298.28 70.9467 298.387 71.2027 298.44 71.576L298.68 73.432ZM316.997 76.904C316.997 76.392 316.922 75.912 316.773 75.464C316.634 75.0053 316.421 74.6053 316.133 74.264C315.845 73.9227 315.477 73.656 315.029 73.464C314.591 73.2613 314.079 73.16 313.493 73.16C312.351 73.16 311.45 73.4853 310.789 74.136C310.138 74.7867 309.722 75.7093 309.541 76.904H316.997ZM309.461 79.288C309.525 80.1307 309.674 80.8613 309.909 81.48C310.143 82.088 310.453 82.5947 310.837 83C311.221 83.3947 311.674 83.6933 312.197 83.896C312.73 84.088 313.317 84.184 313.957 84.184C314.597 84.184 315.146 84.1093 315.605 83.96C316.074 83.8107 316.479 83.6453 316.821 83.464C317.173 83.2827 317.477 83.1173 317.733 82.968C317.999 82.8187 318.255 82.744 318.501 82.744C318.831 82.744 319.077 82.8667 319.237 83.112L320.373 84.552C319.935 85.064 319.445 85.496 318.901 85.848C318.357 86.1893 317.786 86.4667 317.189 86.68C316.602 86.8827 315.999 87.0267 315.381 87.112C314.773 87.1973 314.181 87.24 313.605 87.24C312.463 87.24 311.402 87.0533 310.421 86.68C309.439 86.296 308.586 85.736 307.861 85C307.135 84.2533 306.565 83.336 306.149 82.248C305.733 81.1493 305.525 79.88 305.525 78.44C305.525 77.32 305.706 76.2693 306.069 75.288C306.431 74.296 306.949 73.4373 307.621 72.712C308.303 71.976 309.13 71.3947 310.101 70.968C311.082 70.5413 312.186 70.328 313.413 70.328C314.447 70.328 315.402 70.4933 316.277 70.824C317.151 71.1547 317.903 71.64 318.533 72.28C319.162 72.9093 319.653 73.688 320.005 74.616C320.367 75.5333 320.549 76.584 320.549 77.768C320.549 78.3653 320.485 78.7707 320.357 78.984C320.229 79.1867 319.983 79.288 319.621 79.288H309.461ZM328.83 87.256C327.401 87.256 326.302 86.856 325.534 86.056C324.777 85.2453 324.398 84.1307 324.398 82.712V73.544H322.718C322.505 73.544 322.324 73.4747 322.174 73.336C322.025 73.1973 321.95 72.9893 321.95 72.712V71.144L324.59 70.712L325.422 66.232C325.476 66.0187 325.577 65.8533 325.726 65.736C325.876 65.6187 326.068 65.56 326.302 65.56H328.35V70.728H332.734V73.544H328.35V82.44C328.35 82.952 328.473 83.352 328.718 83.64C328.974 83.928 329.321 84.072 329.758 84.072C330.004 84.072 330.206 84.0453 330.366 83.992C330.537 83.928 330.681 83.864 330.798 83.8C330.926 83.736 331.038 83.6773 331.134 83.624C331.23 83.56 331.326 83.528 331.422 83.528C331.54 83.528 331.636 83.56 331.71 83.624C331.785 83.6773 331.865 83.7627 331.95 83.88L333.134 85.8C332.558 86.28 331.897 86.6427 331.15 86.888C330.404 87.1333 329.63 87.256 328.83 87.256ZM349.409 70.584V87H346.993C346.47 87 346.139 86.76 346.001 86.28L345.729 84.968C345.057 85.6507 344.315 86.2053 343.505 86.632C342.694 87.048 341.739 87.256 340.641 87.256C339.745 87.256 338.95 87.1067 338.257 86.808C337.574 86.4987 336.998 86.0667 336.529 85.512C336.059 84.9573 335.702 84.3013 335.457 83.544C335.222 82.776 335.105 81.9333 335.105 81.016V70.584H339.057V81.016C339.057 82.0187 339.286 82.7973 339.745 83.352C340.214 83.896 340.913 84.168 341.841 84.168C342.523 84.168 343.163 84.0187 343.761 83.72C344.358 83.4107 344.923 82.9893 345.457 82.456V70.584H349.409ZM357.055 73.432C357.567 72.4507 358.175 71.6827 358.879 71.128C359.583 70.5627 360.415 70.28 361.375 70.28C362.132 70.28 362.74 70.4453 363.199 70.776L362.943 73.736C362.89 73.928 362.81 74.0667 362.703 74.152C362.607 74.2267 362.474 74.264 362.303 74.264C362.143 74.264 361.903 74.2373 361.583 74.184C361.274 74.1307 360.97 74.104 360.671 74.104C360.234 74.104 359.844 74.168 359.503 74.296C359.162 74.424 358.852 74.6107 358.575 74.856C358.308 75.0907 358.068 75.3787 357.855 75.72C357.652 76.0613 357.46 76.4507 357.279 76.888V87H353.327V70.584H355.647C356.052 70.584 356.335 70.6587 356.495 70.808C356.655 70.9467 356.762 71.2027 356.815 71.576L357.055 73.432ZM368.961 72.6C369.291 72.2693 369.638 71.9653 370.001 71.688C370.374 71.4 370.763 71.16 371.169 70.968C371.585 70.7653 372.027 70.6107 372.497 70.504C372.966 70.3867 373.478 70.328 374.033 70.328C374.929 70.328 375.723 70.4827 376.417 70.792C377.11 71.0907 377.686 71.5173 378.145 72.072C378.614 72.616 378.966 73.272 379.201 74.04C379.446 74.7973 379.569 75.6347 379.569 76.552V87H375.617V76.552C375.617 75.5493 375.387 74.776 374.929 74.232C374.47 73.6773 373.771 73.4 372.833 73.4C372.15 73.4 371.51 73.5547 370.913 73.864C370.315 74.1733 369.75 74.5947 369.217 75.128V87H365.265V70.584H367.681C368.193 70.584 368.529 70.824 368.689 71.304L368.961 72.6ZM393.343 73.784C393.236 73.9547 393.124 74.0773 393.007 74.152C392.89 74.216 392.74 74.248 392.559 74.248C392.367 74.248 392.159 74.1947 391.935 74.088C391.722 73.9813 391.471 73.864 391.183 73.736C390.895 73.5973 390.564 73.4747 390.191 73.368C389.828 73.2613 389.396 73.208 388.895 73.208C388.116 73.208 387.503 73.3733 387.055 73.704C386.618 74.0347 386.399 74.4667 386.399 75C386.399 75.352 386.511 75.6507 386.735 75.896C386.97 76.1307 387.274 76.3387 387.647 76.52C388.031 76.7013 388.463 76.8667 388.943 77.016C389.423 77.1547 389.908 77.3093 390.399 77.48C390.9 77.6507 391.391 77.848 391.871 78.072C392.351 78.2853 392.778 78.5627 393.151 78.904C393.535 79.2347 393.839 79.6347 394.063 80.104C394.298 80.5733 394.415 81.1387 394.415 81.8C394.415 82.5893 394.271 83.32 393.983 83.992C393.706 84.6533 393.29 85.2293 392.735 85.72C392.18 86.2 391.492 86.5787 390.671 86.856C389.86 87.1227 388.922 87.256 387.855 87.256C387.29 87.256 386.735 87.2027 386.191 87.096C385.658 87 385.14 86.8613 384.639 86.68C384.148 86.4987 383.69 86.2853 383.263 86.04C382.847 85.7947 382.479 85.528 382.159 85.24L383.071 83.736C383.188 83.5547 383.327 83.416 383.487 83.32C383.647 83.224 383.85 83.176 384.095 83.176C384.34 83.176 384.57 83.2453 384.783 83.384C385.007 83.5227 385.263 83.672 385.551 83.832C385.839 83.992 386.175 84.1413 386.559 84.28C386.954 84.4187 387.45 84.488 388.047 84.488C388.516 84.488 388.916 84.4347 389.247 84.328C389.588 84.2107 389.866 84.0613 390.079 83.88C390.303 83.6987 390.463 83.4907 390.559 83.256C390.666 83.0107 390.719 82.76 390.719 82.504C390.719 82.12 390.602 81.8053 390.367 81.56C390.143 81.3147 389.839 81.1013 389.455 80.92C389.082 80.7387 388.65 80.5787 388.159 80.44C387.679 80.2907 387.183 80.1307 386.671 79.96C386.17 79.7893 385.674 79.592 385.183 79.368C384.703 79.1333 384.271 78.84 383.887 78.488C383.514 78.136 383.21 77.704 382.975 77.192C382.751 76.68 382.639 76.0613 382.639 75.336C382.639 74.664 382.772 74.024 383.039 73.416C383.306 72.808 383.695 72.28 384.207 71.832C384.73 71.3733 385.375 71.0107 386.143 70.744C386.922 70.4667 387.818 70.328 388.831 70.328C389.962 70.328 390.991 70.5147 391.919 70.888C392.847 71.2613 393.62 71.752 394.239 72.36L393.343 73.784ZM410.643 87.256C409.213 87.256 408.115 86.856 407.347 86.056C406.589 85.2453 406.211 84.1307 406.211 82.712V73.544H404.531C404.317 73.544 404.136 73.4747 403.987 73.336C403.837 73.1973 403.763 72.9893 403.763 72.712V71.144L406.403 70.712L407.235 66.232C407.288 66.0187 407.389 65.8533 407.539 65.736C407.688 65.6187 407.88 65.56 408.115 65.56H410.163V70.728H414.547V73.544H410.163V82.44C410.163 82.952 410.285 83.352 410.531 83.64C410.787 83.928 411.133 84.072 411.571 84.072C411.816 84.072 412.019 84.0453 412.179 83.992C412.349 83.928 412.493 83.864 412.611 83.8C412.739 83.736 412.851 83.6773 412.947 83.624C413.043 83.56 413.139 83.528 413.235 83.528C413.352 83.528 413.448 83.56 413.523 83.624C413.597 83.6773 413.677 83.7627 413.763 83.88L414.947 85.8C414.371 86.28 413.709 86.6427 412.963 86.888C412.216 87.1333 411.443 87.256 410.643 87.256ZM424.216 70.328C425.432 70.328 426.536 70.5253 427.528 70.92C428.531 71.3147 429.384 71.8747 430.088 72.6C430.803 73.3253 431.352 74.2107 431.736 75.256C432.12 76.3013 432.312 77.4693 432.312 78.76C432.312 80.0613 432.12 81.2347 431.736 82.28C431.352 83.3253 430.803 84.216 430.088 84.952C429.384 85.688 428.531 86.2533 427.528 86.648C426.536 87.0427 425.432 87.24 424.216 87.24C422.989 87.24 421.875 87.0427 420.872 86.648C419.869 86.2533 419.011 85.688 418.296 84.952C417.592 84.216 417.043 83.3253 416.648 82.28C416.264 81.2347 416.072 80.0613 416.072 78.76C416.072 77.4693 416.264 76.3013 416.648 75.256C417.043 74.2107 417.592 73.3253 418.296 72.6C419.011 71.8747 419.869 71.3147 420.872 70.92C421.875 70.5253 422.989 70.328 424.216 70.328ZM424.216 84.2C425.581 84.2 426.589 83.7413 427.24 82.824C427.901 81.9067 428.232 80.5627 428.232 78.792C428.232 77.0213 427.901 75.672 427.24 74.744C426.589 73.816 425.581 73.352 424.216 73.352C422.829 73.352 421.8 73.8213 421.128 74.76C420.467 75.688 420.136 77.032 420.136 78.792C420.136 80.552 420.467 81.896 421.128 82.824C421.8 83.7413 422.829 84.2 424.216 84.2ZM447.204 70.584V87H443.236V70.584H447.204ZM447.748 65.8C447.748 66.1413 447.679 66.4613 447.54 66.76C447.402 67.0587 447.215 67.32 446.98 67.544C446.756 67.768 446.49 67.9493 446.18 68.088C445.871 68.216 445.54 68.28 445.188 68.28C444.847 68.28 444.522 68.216 444.212 68.088C443.914 67.9493 443.652 67.768 443.428 67.544C443.204 67.32 443.023 67.0587 442.884 66.76C442.756 66.4613 442.692 66.1413 442.692 65.8C442.692 65.448 442.756 65.1173 442.884 64.808C443.023 64.4987 443.204 64.232 443.428 64.008C443.652 63.784 443.914 63.608 444.212 63.48C444.522 63.3413 444.847 63.272 445.188 63.272C445.54 63.272 445.871 63.3413 446.18 63.48C446.49 63.608 446.756 63.784 446.98 64.008C447.215 64.232 447.402 64.4987 447.54 64.808C447.679 65.1173 447.748 65.448 447.748 65.8ZM456.705 87.256C455.276 87.256 454.177 86.856 453.409 86.056C452.652 85.2453 452.273 84.1307 452.273 82.712V73.544H450.593C450.38 73.544 450.199 73.4747 450.049 73.336C449.9 73.1973 449.825 72.9893 449.825 72.712V71.144L452.465 70.712L453.297 66.232C453.351 66.0187 453.452 65.8533 453.601 65.736C453.751 65.6187 453.943 65.56 454.177 65.56H456.225V70.728H460.609V73.544H456.225V82.44C456.225 82.952 456.348 83.352 456.593 83.64C456.849 83.928 457.196 84.072 457.633 84.072C457.879 84.072 458.081 84.0453 458.241 83.992C458.412 83.928 458.556 83.864 458.673 83.8C458.801 83.736 458.913 83.6773 459.009 83.624C459.105 83.56 459.201 83.528 459.297 83.528C459.415 83.528 459.511 83.56 459.585 83.624C459.66 83.6773 459.74 83.7627 459.825 83.88L461.009 85.8C460.433 86.28 459.772 86.6427 459.025 86.888C458.279 87.1333 457.505 87.256 456.705 87.256ZM473.156 73.784C473.049 73.9547 472.937 74.0773 472.82 74.152C472.702 74.216 472.553 74.248 472.372 74.248C472.18 74.248 471.972 74.1947 471.748 74.088C471.534 73.9813 471.284 73.864 470.996 73.736C470.708 73.5973 470.377 73.4747 470.003 73.368C469.641 73.2613 469.209 73.208 468.708 73.208C467.929 73.208 467.316 73.3733 466.868 73.704C466.43 74.0347 466.212 74.4667 466.212 75C466.212 75.352 466.324 75.6507 466.548 75.896C466.782 76.1307 467.086 76.3387 467.46 76.52C467.844 76.7013 468.276 76.8667 468.756 77.016C469.236 77.1547 469.721 77.3093 470.212 77.48C470.713 77.6507 471.204 77.848 471.684 78.072C472.164 78.2853 472.59 78.5627 472.964 78.904C473.348 79.2347 473.652 79.6347 473.876 80.104C474.11 80.5733 474.228 81.1387 474.228 81.8C474.228 82.5893 474.084 83.32 473.796 83.992C473.518 84.6533 473.102 85.2293 472.548 85.72C471.993 86.2 471.305 86.5787 470.484 86.856C469.673 87.1227 468.734 87.256 467.668 87.256C467.102 87.256 466.548 87.2027 466.004 87.096C465.47 87 464.953 86.8613 464.452 86.68C463.961 86.4987 463.502 86.2853 463.076 86.04C462.66 85.7947 462.292 85.528 461.972 85.24L462.884 83.736C463.001 83.5547 463.14 83.416 463.299 83.32C463.459 83.224 463.662 83.176 463.908 83.176C464.153 83.176 464.382 83.2453 464.596 83.384C464.82 83.5227 465.076 83.672 465.364 83.832C465.652 83.992 465.988 84.1413 466.372 84.28C466.766 84.4187 467.262 84.488 467.86 84.488C468.329 84.488 468.729 84.4347 469.06 84.328C469.401 84.2107 469.678 84.0613 469.892 83.88C470.116 83.6987 470.275 83.4907 470.372 83.256C470.478 83.0107 470.532 82.76 470.532 82.504C470.532 82.12 470.414 81.8053 470.18 81.56C469.956 81.3147 469.652 81.1013 469.267 80.92C468.894 80.7387 468.462 80.5787 467.972 80.44C467.492 80.2907 466.996 80.1307 466.484 79.96C465.982 79.7893 465.486 79.592 464.996 79.368C464.516 79.1333 464.084 78.84 463.7 78.488C463.326 78.136 463.022 77.704 462.788 77.192C462.564 76.68 462.452 76.0613 462.452 75.336C462.452 74.664 462.585 74.024 462.852 73.416C463.118 72.808 463.508 72.28 464.02 71.832C464.542 71.3733 465.188 71.0107 465.956 70.744C466.734 70.4667 467.63 70.328 468.644 70.328C469.774 70.328 470.804 70.5147 471.732 70.888C472.66 71.2613 473.433 71.752 474.052 72.36L473.156 73.784ZM490.983 78.392C491.474 78.392 491.901 78.328 492.263 78.2C492.626 78.0613 492.925 77.8747 493.159 77.64C493.405 77.4053 493.586 77.1227 493.703 76.792C493.831 76.4613 493.895 76.0987 493.895 75.704C493.895 74.8933 493.65 74.2533 493.159 73.784C492.679 73.304 491.954 73.064 490.983 73.064C490.013 73.064 489.282 73.304 488.791 73.784C488.311 74.2533 488.071 74.8933 488.071 75.704C488.071 76.088 488.13 76.4453 488.247 76.776C488.375 77.1067 488.557 77.3947 488.791 77.64C489.037 77.8747 489.341 78.0613 489.703 78.2C490.077 78.328 490.503 78.392 490.983 78.392ZM495.447 87.736C495.447 87.416 495.351 87.1547 495.159 86.952C494.967 86.7493 494.706 86.5947 494.375 86.488C494.045 86.3707 493.655 86.2853 493.207 86.232C492.77 86.1787 492.301 86.1413 491.799 86.12C491.309 86.088 490.797 86.0613 490.263 86.04C489.741 86.0187 489.229 85.976 488.727 85.912C488.29 86.1573 487.933 86.4453 487.655 86.776C487.389 87.1067 487.255 87.4907 487.255 87.928C487.255 88.216 487.325 88.4827 487.463 88.728C487.613 88.984 487.842 89.2027 488.151 89.384C488.471 89.5653 488.882 89.704 489.383 89.8C489.885 89.9067 490.498 89.96 491.223 89.96C491.959 89.96 492.594 89.9013 493.127 89.784C493.661 89.6773 494.098 89.5227 494.439 89.32C494.791 89.128 495.047 88.8933 495.207 88.616C495.367 88.3493 495.447 88.056 495.447 87.736ZM499.383 71.144V72.616C499.383 73.0853 499.101 73.3733 498.535 73.48L497.063 73.752C497.287 74.3173 497.399 74.936 497.399 75.608C497.399 76.4187 497.234 77.1547 496.903 77.816C496.583 78.4667 496.135 79.0213 495.559 79.48C494.983 79.9387 494.301 80.296 493.511 80.552C492.733 80.7973 491.89 80.92 490.983 80.92C490.663 80.92 490.354 80.904 490.055 80.872C489.757 80.84 489.463 80.7973 489.175 80.744C488.663 81.0533 488.407 81.4 488.407 81.784C488.407 82.1147 488.557 82.36 488.855 82.52C489.165 82.6693 489.57 82.776 490.071 82.84C490.573 82.904 491.143 82.9467 491.783 82.968C492.423 82.9787 493.079 83.0107 493.751 83.064C494.423 83.1173 495.079 83.2133 495.719 83.352C496.359 83.48 496.93 83.688 497.431 83.976C497.933 84.264 498.333 84.6587 498.631 85.16C498.941 85.6507 499.095 86.2853 499.095 87.064C499.095 87.7893 498.914 88.4933 498.551 89.176C498.199 89.8587 497.682 90.4667 496.999 91C496.327 91.5333 495.495 91.96 494.503 92.28C493.522 92.6107 492.402 92.776 491.143 92.776C489.906 92.776 488.829 92.6533 487.911 92.408C486.994 92.1733 486.231 91.8533 485.623 91.448C485.015 91.0533 484.562 90.5947 484.263 90.072C483.965 89.5493 483.815 89.0053 483.815 88.44C483.815 87.672 484.045 87.032 484.503 86.52C484.973 85.9973 485.613 85.5813 486.423 85.272C485.986 85.048 485.639 84.7493 485.383 84.376C485.127 84.0027 484.999 83.512 484.999 82.904C484.999 82.6587 485.042 82.408 485.127 82.152C485.223 81.8853 485.357 81.624 485.527 81.368C485.709 81.112 485.933 80.872 486.199 80.648C486.466 80.4133 486.781 80.2053 487.143 80.024C486.311 79.576 485.655 78.9787 485.175 78.232C484.706 77.4853 484.471 76.6107 484.471 75.608C484.471 74.7973 484.631 74.0667 484.951 73.416C485.282 72.7547 485.735 72.1947 486.311 71.736C486.898 71.2667 487.586 70.9093 488.375 70.664C489.175 70.4187 490.045 70.296 490.983 70.296C491.687 70.296 492.349 70.3707 492.967 70.52C493.586 70.6587 494.151 70.8667 494.663 71.144H499.383ZM505.618 73.432C506.13 72.4507 506.738 71.6827 507.442 71.128C508.146 70.5627 508.978 70.28 509.938 70.28C510.695 70.28 511.303 70.4453 511.762 70.776L511.506 73.736C511.452 73.928 511.372 74.0667 511.266 74.152C511.17 74.2267 511.036 74.264 510.866 74.264C510.706 74.264 510.466 74.2373 510.146 74.184C509.836 74.1307 509.532 74.104 509.234 74.104C508.796 74.104 508.407 74.168 508.066 74.296C507.724 74.424 507.415 74.6107 507.138 74.856C506.871 75.0907 506.631 75.3787 506.418 75.72C506.215 76.0613 506.023 76.4507 505.842 76.888V87H501.89V70.584H504.21C504.615 70.584 504.898 70.6587 505.058 70.808C505.218 70.9467 505.324 71.2027 505.378 71.576L505.618 73.432ZM520.622 70.328C521.838 70.328 522.942 70.5253 523.934 70.92C524.937 71.3147 525.79 71.8747 526.494 72.6C527.209 73.3253 527.758 74.2107 528.142 75.256C528.526 76.3013 528.718 77.4693 528.718 78.76C528.718 80.0613 528.526 81.2347 528.142 82.28C527.758 83.3253 527.209 84.216 526.494 84.952C525.79 85.688 524.937 86.2533 523.934 86.648C522.942 87.0427 521.838 87.24 520.622 87.24C519.396 87.24 518.281 87.0427 517.278 86.648C516.276 86.2533 515.417 85.688 514.702 84.952C513.998 84.216 513.449 83.3253 513.054 82.28C512.67 81.2347 512.478 80.0613 512.478 78.76C512.478 77.4693 512.67 76.3013 513.054 75.256C513.449 74.2107 513.998 73.3253 514.702 72.6C515.417 71.8747 516.276 71.3147 517.278 70.92C518.281 70.5253 519.396 70.328 520.622 70.328ZM520.622 84.2C521.988 84.2 522.996 83.7413 523.646 82.824C524.308 81.9067 524.638 80.5627 524.638 78.792C524.638 77.0213 524.308 75.672 523.646 74.744C522.996 73.816 521.988 73.352 520.622 73.352C519.236 73.352 518.206 73.8213 517.534 74.76C516.873 75.688 516.542 77.032 516.542 78.792C516.542 80.552 516.873 81.896 517.534 82.824C518.206 83.7413 519.236 84.2 520.622 84.2ZM545.877 70.584V87H543.461C542.939 87 542.608 86.76 542.469 86.28L542.197 84.968C541.525 85.6507 540.784 86.2053 539.973 86.632C539.163 87.048 538.208 87.256 537.109 87.256C536.213 87.256 535.419 87.1067 534.725 86.808C534.043 86.4987 533.467 86.0667 532.997 85.512C532.528 84.9573 532.171 84.3013 531.925 83.544C531.691 82.776 531.573 81.9333 531.573 81.016V70.584H535.525V81.016C535.525 82.0187 535.755 82.7973 536.213 83.352C536.683 83.896 537.381 84.168 538.309 84.168C538.992 84.168 539.632 84.0187 540.229 83.72C540.827 83.4107 541.392 82.9893 541.925 82.456V70.584H545.877ZM553.492 72.6C553.822 72.2693 554.169 71.9653 554.532 71.688C554.905 71.4 555.294 71.16 555.7 70.968C556.116 70.7653 556.558 70.6107 557.028 70.504C557.497 70.3867 558.009 70.328 558.564 70.328C559.46 70.328 560.254 70.4827 560.948 70.792C561.641 71.0907 562.217 71.5173 562.676 72.072C563.145 72.616 563.497 73.272 563.732 74.04C563.977 74.7973 564.1 75.6347 564.1 76.552V87H560.148V76.552C560.148 75.5493 559.918 74.776 559.46 74.232C559.001 73.6773 558.302 73.4 557.364 73.4C556.681 73.4 556.041 73.5547 555.444 73.864C554.846 74.1733 554.281 74.5947 553.748 75.128V87H549.796V70.584H552.212C552.724 70.584 553.06 70.824 553.22 71.304L553.492 72.6ZM578.162 74.776C577.714 74.232 577.224 73.848 576.69 73.624C576.168 73.4 575.602 73.288 574.994 73.288C574.397 73.288 573.858 73.4 573.378 73.624C572.898 73.848 572.488 74.1893 572.146 74.648C571.805 75.096 571.544 75.672 571.362 76.376C571.181 77.0693 571.09 77.8907 571.09 78.84C571.09 79.8 571.165 80.616 571.314 81.288C571.474 81.9493 571.698 82.4933 571.986 82.92C572.274 83.336 572.626 83.64 573.042 83.832C573.458 84.0133 573.922 84.104 574.434 84.104C575.256 84.104 575.954 83.9333 576.53 83.592C577.106 83.2507 577.65 82.7653 578.162 82.136V74.776ZM582.114 63.224V87H579.698C579.176 87 578.845 86.76 578.706 86.28L578.37 84.696C577.709 85.4533 576.946 86.0667 576.082 86.536C575.229 87.0053 574.232 87.24 573.09 87.24C572.194 87.24 571.373 87.0533 570.626 86.68C569.88 86.3067 569.234 85.768 568.69 85.064C568.157 84.3493 567.741 83.4693 567.442 82.424C567.154 81.3787 567.01 80.184 567.01 78.84C567.01 77.624 567.176 76.4933 567.506 75.448C567.837 74.4027 568.312 73.496 568.93 72.728C569.549 71.96 570.29 71.3627 571.154 70.936C572.018 70.4987 572.989 70.28 574.066 70.28C574.984 70.28 575.768 70.424 576.418 70.712C577.069 71 577.65 71.3893 578.162 71.88V63.224H582.114ZM139.968 111.784C139.861 111.955 139.749 112.077 139.632 112.152C139.515 112.216 139.365 112.248 139.184 112.248C138.992 112.248 138.784 112.195 138.56 112.088C138.347 111.981 138.096 111.864 137.808 111.736C137.52 111.597 137.189 111.475 136.816 111.368C136.453 111.261 136.021 111.208 135.52 111.208C134.741 111.208 134.128 111.373 133.68 111.704C133.243 112.035 133.024 112.467 133.024 113C133.024 113.352 133.136 113.651 133.36 113.896C133.595 114.131 133.899 114.339 134.272 114.52C134.656 114.701 135.088 114.867 135.568 115.016C136.048 115.155 136.533 115.309 137.024 115.48C137.525 115.651 138.016 115.848 138.496 116.072C138.976 116.285 139.403 116.563 139.776 116.904C140.16 117.235 140.464 117.635 140.688 118.104C140.923 118.573 141.04 119.139 141.04 119.8C141.04 120.589 140.896 121.32 140.608 121.992C140.331 122.653 139.915 123.229 139.36 123.72C138.805 124.2 138.117 124.579 137.296 124.856C136.485 125.123 135.547 125.256 134.48 125.256C133.915 125.256 133.36 125.203 132.816 125.096C132.283 125 131.765 124.861 131.264 124.68C130.773 124.499 130.315 124.285 129.888 124.04C129.472 123.795 129.104 123.528 128.784 123.24L129.696 121.736C129.813 121.555 129.952 121.416 130.112 121.32C130.272 121.224 130.475 121.176 130.72 121.176C130.965 121.176 131.195 121.245 131.408 121.384C131.632 121.523 131.888 121.672 132.176 121.832C132.464 121.992 132.8 122.141 133.184 122.28C133.579 122.419 134.075 122.488 134.672 122.488C135.141 122.488 135.541 122.435 135.872 122.328C136.213 122.211 136.491 122.061 136.704 121.88C136.928 121.699 137.088 121.491 137.184 121.256C137.291 121.011 137.344 120.76 137.344 120.504C137.344 120.12 137.227 119.805 136.992 119.56C136.768 119.315 136.464 119.101 136.08 118.92C135.707 118.739 135.275 118.579 134.784 118.44C134.304 118.291 133.808 118.131 133.296 117.96C132.795 117.789 132.299 117.592 131.808 117.368C131.328 117.133 130.896 116.84 130.512 116.488C130.139 116.136 129.835 115.704 129.6 115.192C129.376 114.68 129.264 114.061 129.264 113.336C129.264 112.664 129.397 112.024 129.664 111.416C129.931 110.808 130.32 110.28 130.832 109.832C131.355 109.373 132 109.011 132.768 108.744C133.547 108.467 134.443 108.328 135.456 108.328C136.587 108.328 137.616 108.515 138.544 108.888C139.472 109.261 140.245 109.752 140.864 110.36L139.968 111.784ZM149.487 125.256C148.057 125.256 146.959 124.856 146.191 124.056C145.433 123.245 145.055 122.131 145.055 120.712V111.544H143.375C143.161 111.544 142.98 111.475 142.831 111.336C142.681 111.197 142.607 110.989 142.607 110.712V109.144L145.247 108.712L146.079 104.232C146.132 104.019 146.233 103.853 146.383 103.736C146.532 103.619 146.724 103.56 146.959 103.56H149.007V108.728H153.391V111.544H149.007V120.44C149.007 120.952 149.129 121.352 149.375 121.64C149.631 121.928 149.977 122.072 150.415 122.072C150.66 122.072 150.863 122.045 151.023 121.992C151.193 121.928 151.337 121.864 151.455 121.8C151.583 121.736 151.695 121.677 151.791 121.624C151.887 121.56 151.983 121.528 152.079 121.528C152.196 121.528 152.292 121.56 152.367 121.624C152.441 121.677 152.521 121.763 152.607 121.88L153.791 123.8C153.215 124.28 152.553 124.643 151.807 124.888C151.06 125.133 150.287 125.256 149.487 125.256ZM164.593 117.992C163.451 118.045 162.491 118.147 161.713 118.296C160.934 118.435 160.31 118.616 159.841 118.84C159.371 119.064 159.035 119.325 158.833 119.624C158.63 119.923 158.529 120.248 158.529 120.6C158.529 121.293 158.731 121.789 159.137 122.088C159.553 122.387 160.091 122.536 160.753 122.536C161.563 122.536 162.262 122.392 162.849 122.104C163.446 121.805 164.027 121.357 164.593 120.76V117.992ZM155.537 110.872C157.425 109.144 159.697 108.28 162.353 108.28C163.313 108.28 164.171 108.44 164.929 108.76C165.686 109.069 166.326 109.507 166.849 110.072C167.371 110.627 167.766 111.293 168.033 112.072C168.31 112.851 168.449 113.704 168.449 114.632V125H166.657C166.283 125 165.995 124.947 165.793 124.84C165.59 124.723 165.43 124.493 165.313 124.152L164.961 122.968C164.545 123.341 164.139 123.672 163.745 123.96C163.35 124.237 162.939 124.472 162.513 124.664C162.086 124.856 161.627 125 161.137 125.096C160.657 125.203 160.123 125.256 159.537 125.256C158.843 125.256 158.203 125.165 157.617 124.984C157.03 124.792 156.523 124.509 156.097 124.136C155.67 123.763 155.339 123.299 155.105 122.744C154.87 122.189 154.753 121.544 154.753 120.808C154.753 120.392 154.822 119.981 154.961 119.576C155.099 119.16 155.323 118.765 155.633 118.392C155.953 118.019 156.363 117.667 156.865 117.336C157.366 117.005 157.979 116.717 158.705 116.472C159.441 116.227 160.294 116.029 161.265 115.88C162.235 115.72 163.345 115.624 164.593 115.592V114.632C164.593 113.533 164.358 112.723 163.889 112.2C163.419 111.667 162.742 111.4 161.857 111.4C161.217 111.4 160.683 111.475 160.257 111.624C159.841 111.773 159.473 111.944 159.153 112.136C158.833 112.317 158.539 112.483 158.273 112.632C158.017 112.781 157.729 112.856 157.409 112.856C157.131 112.856 156.897 112.787 156.705 112.648C156.513 112.499 156.358 112.328 156.241 112.136L155.537 110.872ZM177.424 125.256C175.995 125.256 174.896 124.856 174.128 124.056C173.371 123.245 172.992 122.131 172.992 120.712V111.544H171.312C171.099 111.544 170.917 111.475 170.768 111.336C170.619 111.197 170.544 110.989 170.544 110.712V109.144L173.184 108.712L174.016 104.232C174.069 104.019 174.171 103.853 174.32 103.736C174.469 103.619 174.661 103.56 174.896 103.56H176.944V108.728H181.328V111.544H176.944V120.44C176.944 120.952 177.067 121.352 177.312 121.64C177.568 121.928 177.915 122.072 178.352 122.072C178.597 122.072 178.8 122.045 178.96 121.992C179.131 121.928 179.275 121.864 179.392 121.8C179.52 121.736 179.632 121.677 179.728 121.624C179.824 121.56 179.92 121.528 180.016 121.528C180.133 121.528 180.229 121.56 180.304 121.624C180.379 121.677 180.459 121.763 180.544 121.88L181.728 123.8C181.152 124.28 180.491 124.643 179.744 124.888C178.997 125.133 178.224 125.256 177.424 125.256ZM194.309 114.904C194.309 114.392 194.235 113.912 194.085 113.464C193.947 113.005 193.733 112.605 193.445 112.264C193.157 111.923 192.789 111.656 192.341 111.464C191.904 111.261 191.392 111.16 190.805 111.16C189.664 111.16 188.763 111.485 188.101 112.136C187.451 112.787 187.035 113.709 186.853 114.904H194.309ZM186.773 117.288C186.837 118.131 186.987 118.861 187.221 119.48C187.456 120.088 187.765 120.595 188.149 121C188.533 121.395 188.987 121.693 189.509 121.896C190.043 122.088 190.629 122.184 191.269 122.184C191.909 122.184 192.459 122.109 192.917 121.96C193.387 121.811 193.792 121.645 194.133 121.464C194.485 121.283 194.789 121.117 195.045 120.968C195.312 120.819 195.568 120.744 195.813 120.744C196.144 120.744 196.389 120.867 196.549 121.112L197.685 122.552C197.248 123.064 196.757 123.496 196.213 123.848C195.669 124.189 195.099 124.467 194.501 124.68C193.915 124.883 193.312 125.027 192.693 125.112C192.085 125.197 191.493 125.24 190.917 125.24C189.776 125.24 188.715 125.053 187.733 124.68C186.752 124.296 185.899 123.736 185.173 123C184.448 122.253 183.877 121.336 183.461 120.248C183.045 119.149 182.837 117.88 182.837 116.44C182.837 115.32 183.019 114.269 183.381 113.288C183.744 112.296 184.261 111.437 184.933 110.712C185.616 109.976 186.443 109.395 187.413 108.968C188.395 108.541 189.499 108.328 190.725 108.328C191.76 108.328 192.715 108.493 193.589 108.824C194.464 109.155 195.216 109.64 195.845 110.28C196.475 110.909 196.965 111.688 197.317 112.616C197.68 113.533 197.861 114.584 197.861 115.768C197.861 116.365 197.797 116.771 197.669 116.984C197.541 117.187 197.296 117.288 196.933 117.288H186.773ZM200.251 122.824C200.251 122.493 200.31 122.179 200.427 121.88C200.555 121.581 200.726 121.325 200.939 121.112C201.152 120.899 201.408 120.728 201.707 120.6C202.006 120.472 202.326 120.408 202.667 120.408C203.008 120.408 203.323 120.472 203.611 120.6C203.91 120.728 204.166 120.899 204.379 121.112C204.603 121.325 204.779 121.581 204.907 121.88C205.035 122.179 205.099 122.493 205.099 122.824C205.099 123.165 205.035 123.485 204.907 123.784C204.779 124.072 204.603 124.323 204.379 124.536C204.166 124.749 203.91 124.915 203.611 125.032C203.323 125.16 203.008 125.224 202.667 125.224C202.326 125.224 202.006 125.16 201.707 125.032C201.408 124.915 201.152 124.749 200.939 124.536C200.726 124.323 200.555 124.072 200.427 123.784C200.31 123.485 200.251 123.165 200.251 122.824Z" fill="#21242C"/>
<defs>
<clipPath id="clip0_1_57">
<rect width="679" height="150" fill="white"/>
</clipPath>
<clipPath id="clip1_1_57">
<rect width="97" height="150" fill="white"/>
</clipPath>
</defs>
</svg>
