<svg width="679" height="150" viewBox="0 0 679 150" fill="none" xmlns="http://www.w3.org/2000/svg">
<g clip-path="url(#clip0_1_35)">
<g clip-path="url(#clip1_1_35)">
<path d="M20 4H93V146H20C11.1634 146 4 138.837 4 130V20C4 11.1634 11.1634 4 20 4Z" fill="#14BF96" stroke="#14BF96" stroke-width="8"/>
<path d="M59.3047 102.93C59.3047 103.711 59.1354 104.258 58.7969 104.57C58.4844 104.857 57.9375 105 57.1562 105H49.1094C48.3281 105 47.7682 104.857 47.4297 104.57C47.1172 104.258 46.9609 103.711 46.9609 102.93V62.0312L41.5312 64.7656C41.0104 65.0521 40.5417 65.1693 40.125 65.1172C39.3177 64.987 38.4323 64.7786 37.4688 64.4922C36.5312 64.2057 35.4896 63.8151 34.3438 63.3203C33.9531 63.0859 33.7188 62.8776 33.6406 62.6953C33.5365 62.513 33.5365 62.2135 33.6406 61.7969C34.2396 59.5052 34.9557 57.6302 35.7891 56.1719C36.0495 55.8073 36.4271 55.5078 36.9219 55.2734L51.8438 47.7344H59.3047V102.93Z" fill="white"/>
</g>
<mask id="path-3-inside-1_1_35" fill="white">
<path d="M97 0H659C670.046 0 679 8.95431 679 20V130C679 141.046 670.046 150 659 150H97V0Z"/>
</mask>
<path d="M97 0H659C670.046 0 679 8.95431 679 20V130C679 141.046 670.046 150 659 150H97V0Z" fill="white"/>
<path d="M97 -8H659C674.464 -8 687 4.53603 687 20H671C671 13.3726 665.627 8 659 8H97V-8ZM687 130C687 145.464 674.464 158 659 158H97V142H659C665.627 142 671 136.627 671 130H687ZM97 150V0V150ZM659 -8C674.464 -8 687 4.53603 687 20V130C687 145.464 674.464 158 659 158V142C665.627 142 671 136.627 671 130V20C671 13.3726 665.627 8 659 8V-8Z" fill="#14BF96" mask="url(#path-3-inside-1_1_35)"/>
<path d="M144.736 29.4H137.76V49H133.456V29.4H126.48V25.864H144.736V29.4ZM150.81 34.344C151.45 33.7467 152.154 33.2613 152.922 32.888C153.69 32.5147 154.592 32.328 155.626 32.328C156.522 32.328 157.317 32.4827 158.01 32.792C158.704 33.0907 159.28 33.5173 159.738 34.072C160.208 34.616 160.56 35.272 160.794 36.04C161.04 36.7973 161.162 37.6347 161.162 38.552V49H157.21V38.552C157.21 37.5493 156.981 36.776 156.522 36.232C156.064 35.6773 155.365 35.4 154.426 35.4C153.744 35.4 153.104 35.5547 152.506 35.864C151.909 36.1733 151.344 36.5947 150.81 37.128V49H146.858V25.224H150.81V34.344ZM175.497 38.904C175.497 38.392 175.422 37.912 175.273 37.464C175.134 37.0053 174.921 36.6053 174.633 36.264C174.345 35.9227 173.977 35.656 173.529 35.464C173.091 35.2613 172.579 35.16 171.993 35.16C170.851 35.16 169.95 35.4853 169.289 36.136C168.638 36.7867 168.222 37.7093 168.041 38.904H175.497ZM167.961 41.288C168.025 42.1307 168.174 42.8613 168.409 43.48C168.643 44.088 168.953 44.5947 169.337 45C169.721 45.3947 170.174 45.6933 170.697 45.896C171.23 46.088 171.817 46.184 172.457 46.184C173.097 46.184 173.646 46.1093 174.105 45.96C174.574 45.8107 174.979 45.6453 175.321 45.464C175.673 45.2827 175.977 45.1173 176.233 44.968C176.499 44.8187 176.755 44.744 177.001 44.744C177.331 44.744 177.577 44.8667 177.737 45.112L178.873 46.552C178.435 47.064 177.945 47.496 177.401 47.848C176.857 48.1893 176.286 48.4667 175.689 48.68C175.102 48.8827 174.499 49.0267 173.881 49.112C173.273 49.1973 172.681 49.24 172.105 49.24C170.963 49.24 169.902 49.0533 168.921 48.68C167.939 48.296 167.086 47.736 166.361 47C165.635 46.2533 165.065 45.336 164.649 44.248C164.233 43.1493 164.025 41.88 164.025 40.44C164.025 39.32 164.206 38.2693 164.569 37.288C164.931 36.296 165.449 35.4373 166.121 34.712C166.803 33.976 167.63 33.3947 168.601 32.968C169.582 32.5413 170.686 32.328 171.913 32.328C172.947 32.328 173.902 32.4933 174.777 32.824C175.651 33.1547 176.403 33.64 177.033 34.28C177.662 34.9093 178.153 35.688 178.505 36.616C178.867 37.5333 179.049 38.584 179.049 39.768C179.049 40.3653 178.985 40.7707 178.857 40.984C178.729 41.1867 178.483 41.288 178.121 41.288H167.961ZM198.468 41.992C197.326 42.0453 196.366 42.1467 195.588 42.296C194.809 42.4347 194.185 42.616 193.716 42.84C193.246 43.064 192.91 43.3253 192.708 43.624C192.505 43.9227 192.404 44.248 192.404 44.6C192.404 45.2933 192.606 45.7893 193.012 46.088C193.428 46.3867 193.966 46.536 194.628 46.536C195.438 46.536 196.137 46.392 196.724 46.104C197.321 45.8053 197.902 45.3573 198.468 44.76V41.992ZM189.412 34.872C191.3 33.144 193.572 32.28 196.228 32.28C197.188 32.28 198.046 32.44 198.804 32.76C199.561 33.0693 200.201 33.5067 200.724 34.072C201.246 34.6267 201.641 35.2933 201.908 36.072C202.185 36.8507 202.324 37.704 202.324 38.632V49H200.532C200.158 49 199.87 48.9467 199.668 48.84C199.465 48.7227 199.305 48.4933 199.188 48.152L198.836 46.968C198.42 47.3413 198.014 47.672 197.62 47.96C197.225 48.2373 196.814 48.472 196.388 48.664C195.961 48.856 195.502 49 195.012 49.096C194.532 49.2027 193.998 49.256 193.412 49.256C192.718 49.256 192.078 49.1653 191.492 48.984C190.905 48.792 190.398 48.5093 189.972 48.136C189.545 47.7627 189.214 47.2987 188.98 46.744C188.745 46.1893 188.628 45.544 188.628 44.808C188.628 44.392 188.697 43.9813 188.836 43.576C188.974 43.16 189.198 42.7653 189.508 42.392C189.828 42.0187 190.238 41.6667 190.74 41.336C191.241 41.0053 191.854 40.7173 192.58 40.472C193.316 40.2267 194.169 40.0293 195.14 39.88C196.11 39.72 197.22 39.624 198.468 39.592V38.632C198.468 37.5333 198.233 36.7227 197.764 36.2C197.294 35.6667 196.617 35.4 195.732 35.4C195.092 35.4 194.558 35.4747 194.132 35.624C193.716 35.7733 193.348 35.944 193.028 36.136C192.708 36.3173 192.414 36.4827 192.148 36.632C191.892 36.7813 191.604 36.856 191.284 36.856C191.006 36.856 190.772 36.7867 190.58 36.648C190.388 36.4987 190.233 36.328 190.116 36.136L189.412 34.872ZM209.998 44.744C210.446 45.288 210.931 45.672 211.454 45.896C211.987 46.12 212.547 46.232 213.134 46.232C213.742 46.232 214.286 46.1253 214.766 45.912C215.256 45.688 215.672 45.3467 216.014 44.888C216.355 44.4187 216.616 43.8267 216.798 43.112C216.979 42.3867 217.07 41.5227 217.07 40.52C217.07 38.7173 216.771 37.416 216.174 36.616C215.576 35.8053 214.718 35.4 213.598 35.4C212.84 35.4 212.179 35.576 211.614 35.928C211.048 36.2693 210.51 36.7547 209.998 37.384V44.744ZM209.998 34.6C210.659 33.9067 211.39 33.3573 212.19 32.952C213 32.536 213.923 32.328 214.958 32.328C215.907 32.328 216.76 32.5147 217.518 32.888C218.286 33.2613 218.936 33.8 219.47 34.504C220.014 35.1973 220.43 36.04 220.718 37.032C221.006 38.024 221.15 39.1387 221.15 40.376C221.15 41.7093 220.984 42.92 220.654 44.008C220.323 45.096 219.848 46.0293 219.23 46.808C218.622 47.576 217.886 48.1733 217.022 48.6C216.158 49.0267 215.198 49.24 214.142 49.24C213.63 49.24 213.166 49.1867 212.75 49.08C212.334 48.984 211.95 48.8453 211.598 48.664C211.246 48.4827 210.92 48.264 210.622 48.008C210.334 47.7413 210.056 47.448 209.79 47.128L209.614 48.232C209.55 48.5093 209.438 48.7067 209.278 48.824C209.128 48.9413 208.92 49 208.654 49H206.046V25.224H209.998V34.6ZM228.298 32.584V49H224.33V32.584H228.298ZM228.842 27.8C228.842 28.1413 228.773 28.4613 228.634 28.76C228.495 29.0587 228.309 29.32 228.074 29.544C227.85 29.768 227.583 29.9493 227.274 30.088C226.965 30.216 226.634 30.28 226.282 30.28C225.941 30.28 225.615 30.216 225.306 30.088C225.007 29.9493 224.746 29.768 224.522 29.544C224.298 29.32 224.117 29.0587 223.978 28.76C223.85 28.4613 223.786 28.1413 223.786 27.8C223.786 27.448 223.85 27.1173 223.978 26.808C224.117 26.4987 224.298 26.232 224.522 26.008C224.746 25.784 225.007 25.608 225.306 25.48C225.615 25.3413 225.941 25.272 226.282 25.272C226.634 25.272 226.965 25.3413 227.274 25.48C227.583 25.608 227.85 25.784 228.074 26.008C228.309 26.232 228.495 26.4987 228.634 26.808C228.773 27.1173 228.842 27.448 228.842 27.8ZM236.327 25.224V49H232.375V25.224H236.327ZM244.361 32.584V49H240.393V32.584H244.361ZM244.905 27.8C244.905 28.1413 244.835 28.4613 244.697 28.76C244.558 29.0587 244.371 29.32 244.137 29.544C243.913 29.768 243.646 29.9493 243.337 30.088C243.027 30.216 242.697 30.28 242.345 30.28C242.003 30.28 241.678 30.216 241.369 30.088C241.07 29.9493 240.809 29.768 240.585 29.544C240.361 29.32 240.179 29.0587 240.041 28.76C239.913 28.4613 239.849 28.1413 239.849 27.8C239.849 27.448 239.913 27.1173 240.041 26.808C240.179 26.4987 240.361 26.232 240.585 26.008C240.809 25.784 241.07 25.608 241.369 25.48C241.678 25.3413 242.003 25.272 242.345 25.272C242.697 25.272 243.027 25.3413 243.337 25.48C243.646 25.608 243.913 25.784 244.137 26.008C244.371 26.232 244.558 26.4987 244.697 26.808C244.835 27.1173 244.905 27.448 244.905 27.8ZM253.862 49.256C252.432 49.256 251.334 48.856 250.566 48.056C249.808 47.2453 249.43 46.1307 249.43 44.712V35.544H247.75C247.536 35.544 247.355 35.4747 247.206 35.336C247.056 35.1973 246.982 34.9893 246.982 34.712V33.144L249.622 32.712L250.454 28.232C250.507 28.0187 250.608 27.8533 250.758 27.736C250.907 27.6187 251.099 27.56 251.334 27.56H253.382V32.728H257.766V35.544H253.382V44.44C253.382 44.952 253.504 45.352 253.75 45.64C254.006 45.928 254.352 46.072 254.79 46.072C255.035 46.072 255.238 46.0453 255.398 45.992C255.568 45.928 255.712 45.864 255.83 45.8C255.958 45.736 256.07 45.6773 256.166 45.624C256.262 45.56 256.358 45.528 256.454 45.528C256.571 45.528 256.667 45.56 256.742 45.624C256.816 45.6773 256.896 45.7627 256.982 45.88L258.166 47.8C257.59 48.28 256.928 48.6427 256.182 48.888C255.435 49.1333 254.662 49.256 253.862 49.256ZM275.208 32.584L266.264 53.512C266.146 53.7893 265.992 53.9973 265.8 54.136C265.618 54.2853 265.336 54.36 264.952 54.36H262.008L265.08 47.768L258.44 32.584H261.912C262.221 32.584 262.461 32.6587 262.632 32.808C262.813 32.9573 262.946 33.128 263.032 33.32L266.52 41.832C266.637 42.12 266.733 42.408 266.808 42.696C266.893 42.984 266.973 43.2773 267.048 43.576C267.144 43.2773 267.24 42.984 267.336 42.696C267.432 42.3973 267.538 42.104 267.656 41.816L270.952 33.32C271.037 33.1067 271.176 32.9307 271.368 32.792C271.57 32.6533 271.794 32.584 272.04 32.584H275.208ZM291.404 32.328C292.62 32.328 293.724 32.5253 294.716 32.92C295.718 33.3147 296.572 33.8747 297.276 34.6C297.99 35.3253 298.539 36.2107 298.924 37.256C299.308 38.3013 299.5 39.4693 299.5 40.76C299.5 42.0613 299.308 43.2347 298.924 44.28C298.539 45.3253 297.99 46.216 297.276 46.952C296.572 47.688 295.718 48.2533 294.716 48.648C293.724 49.0427 292.62 49.24 291.404 49.24C290.177 49.24 289.062 49.0427 288.06 48.648C287.057 48.2533 286.198 47.688 285.484 46.952C284.78 46.216 284.23 45.3253 283.836 44.28C283.452 43.2347 283.26 42.0613 283.26 40.76C283.26 39.4693 283.452 38.3013 283.836 37.256C284.23 36.2107 284.78 35.3253 285.484 34.6C286.198 33.8747 287.057 33.3147 288.06 32.92C289.062 32.5253 290.177 32.328 291.404 32.328ZM291.404 46.2C292.769 46.2 293.777 45.7413 294.428 44.824C295.089 43.9067 295.42 42.5627 295.42 40.792C295.42 39.0213 295.089 37.672 294.428 36.744C293.777 35.816 292.769 35.352 291.404 35.352C290.017 35.352 288.988 35.8213 288.316 36.76C287.654 37.688 287.324 39.032 287.324 40.792C287.324 42.552 287.654 43.896 288.316 44.824C288.988 45.7413 290.017 46.2 291.404 46.2ZM303.26 49V35.56L301.836 35.336C301.527 35.272 301.276 35.1653 301.084 35.016C300.903 34.856 300.812 34.632 300.812 34.344V32.728H303.26V31.512C303.26 30.5733 303.399 29.7307 303.676 28.984C303.964 28.2373 304.37 27.6027 304.892 27.08C305.426 26.5573 306.071 26.1573 306.828 25.88C307.586 25.6027 308.439 25.464 309.388 25.464C310.146 25.464 310.85 25.5653 311.5 25.768L311.42 27.752C311.41 27.9013 311.367 28.024 311.292 28.12C311.218 28.2053 311.116 28.2747 310.988 28.328C310.871 28.3707 310.732 28.4027 310.572 28.424C310.412 28.4347 310.242 28.44 310.06 28.44C309.591 28.44 309.17 28.4933 308.796 28.6C308.434 28.696 308.124 28.872 307.868 29.128C307.612 29.3733 307.415 29.704 307.276 30.12C307.148 30.5253 307.084 31.032 307.084 31.64V32.728H311.356V35.544H307.212V49H303.26ZM329.437 41.992C328.295 42.0453 327.335 42.1467 326.557 42.296C325.778 42.4347 325.154 42.616 324.685 42.84C324.215 43.064 323.879 43.3253 323.677 43.624C323.474 43.9227 323.373 44.248 323.373 44.6C323.373 45.2933 323.575 45.7893 323.981 46.088C324.397 46.3867 324.935 46.536 325.597 46.536C326.407 46.536 327.106 46.392 327.693 46.104C328.29 45.8053 328.871 45.3573 329.437 44.76V41.992ZM320.381 34.872C322.269 33.144 324.541 32.28 327.197 32.28C328.157 32.28 329.015 32.44 329.773 32.76C330.53 33.0693 331.17 33.5067 331.693 34.072C332.215 34.6267 332.61 35.2933 332.877 36.072C333.154 36.8507 333.293 37.704 333.293 38.632V49H331.501C331.127 49 330.839 48.9467 330.637 48.84C330.434 48.7227 330.274 48.4933 330.157 48.152L329.805 46.968C329.389 47.3413 328.983 47.672 328.589 47.96C328.194 48.2373 327.783 48.472 327.357 48.664C326.93 48.856 326.471 49 325.981 49.096C325.501 49.2027 324.967 49.256 324.381 49.256C323.687 49.256 323.047 49.1653 322.461 48.984C321.874 48.792 321.367 48.5093 320.941 48.136C320.514 47.7627 320.183 47.2987 319.949 46.744C319.714 46.1893 319.597 45.544 319.597 44.808C319.597 44.392 319.666 43.9813 319.805 43.576C319.943 43.16 320.167 42.7653 320.477 42.392C320.797 42.0187 321.207 41.6667 321.709 41.336C322.21 41.0053 322.823 40.7173 323.549 40.472C324.285 40.2267 325.138 40.0293 326.109 39.88C327.079 39.72 328.189 39.624 329.437 39.592V38.632C329.437 37.5333 329.202 36.7227 328.733 36.2C328.263 35.6667 327.586 35.4 326.701 35.4C326.061 35.4 325.527 35.4747 325.101 35.624C324.685 35.7733 324.317 35.944 323.997 36.136C323.677 36.3173 323.383 36.4827 323.117 36.632C322.861 36.7813 322.573 36.856 322.253 36.856C321.975 36.856 321.741 36.7867 321.549 36.648C321.357 36.4987 321.202 36.328 321.085 36.136L320.381 34.872ZM348.748 44.744C349.196 45.288 349.681 45.672 350.204 45.896C350.737 46.12 351.313 46.232 351.932 46.232C352.529 46.232 353.068 46.12 353.548 45.896C354.028 45.672 354.433 45.3307 354.764 44.872C355.105 44.4133 355.366 43.8373 355.548 43.144C355.729 42.44 355.82 41.6133 355.82 40.664C355.82 39.704 355.74 38.8933 355.58 38.232C355.43 37.56 355.212 37.016 354.924 36.6C354.636 36.184 354.284 35.88 353.868 35.688C353.462 35.496 352.998 35.4 352.476 35.4C351.654 35.4 350.956 35.576 350.38 35.928C349.804 36.2693 349.26 36.7547 348.748 37.384V44.744ZM348.54 34.824C349.212 34.0667 349.974 33.4533 350.828 32.984C351.681 32.5147 352.684 32.28 353.836 32.28C354.732 32.28 355.548 32.4667 356.284 32.84C357.03 33.2133 357.67 33.7573 358.204 34.472C358.748 35.176 359.164 36.0507 359.452 37.096C359.75 38.1307 359.9 39.32 359.9 40.664C359.9 41.8907 359.734 43.0267 359.404 44.072C359.073 45.1173 358.598 46.024 357.98 46.792C357.372 47.56 356.63 48.1627 355.756 48.6C354.892 49.0267 353.921 49.24 352.844 49.24C351.926 49.24 351.142 49.1013 350.492 48.824C349.841 48.536 349.26 48.1413 348.748 47.64V54.36H344.796V32.584H347.212C347.724 32.584 348.06 32.824 348.22 33.304L348.54 34.824ZM371.655 41.992C370.514 42.0453 369.554 42.1467 368.775 42.296C367.997 42.4347 367.373 42.616 366.903 42.84C366.434 43.064 366.098 43.3253 365.895 43.624C365.693 43.9227 365.591 44.248 365.591 44.6C365.591 45.2933 365.794 45.7893 366.199 46.088C366.615 46.3867 367.154 46.536 367.815 46.536C368.626 46.536 369.325 46.392 369.911 46.104C370.509 45.8053 371.09 45.3573 371.655 44.76V41.992ZM362.599 34.872C364.487 33.144 366.759 32.28 369.415 32.28C370.375 32.28 371.234 32.44 371.991 32.76C372.749 33.0693 373.389 33.5067 373.911 34.072C374.434 34.6267 374.829 35.2933 375.095 36.072C375.373 36.8507 375.511 37.704 375.511 38.632V49H373.719C373.346 49 373.058 48.9467 372.855 48.84C372.653 48.7227 372.493 48.4933 372.375 48.152L372.023 46.968C371.607 47.3413 371.202 47.672 370.807 47.96C370.413 48.2373 370.002 48.472 369.575 48.664C369.149 48.856 368.69 49 368.199 49.096C367.719 49.2027 367.186 49.256 366.599 49.256C365.906 49.256 365.266 49.1653 364.679 48.984C364.093 48.792 363.586 48.5093 363.159 48.136C362.733 47.7627 362.402 47.2987 362.167 46.744C361.933 46.1893 361.815 45.544 361.815 44.808C361.815 44.392 361.885 43.9813 362.023 43.576C362.162 43.16 362.386 42.7653 362.695 42.392C363.015 42.0187 363.426 41.6667 363.927 41.336C364.429 41.0053 365.042 40.7173 365.767 40.472C366.503 40.2267 367.357 40.0293 368.327 39.88C369.298 39.72 370.407 39.624 371.655 39.592V38.632C371.655 37.5333 371.421 36.7227 370.951 36.2C370.482 35.6667 369.805 35.4 368.919 35.4C368.279 35.4 367.746 35.4747 367.319 35.624C366.903 35.7733 366.535 35.944 366.215 36.136C365.895 36.3173 365.602 36.4827 365.335 36.632C365.079 36.7813 364.791 36.856 364.471 36.856C364.194 36.856 363.959 36.7867 363.767 36.648C363.575 36.4987 363.421 36.328 363.303 36.136L362.599 34.872ZM382.961 35.432C383.473 34.4507 384.081 33.6827 384.785 33.128C385.489 32.5627 386.321 32.28 387.281 32.28C388.039 32.28 388.647 32.4453 389.105 32.776L388.849 35.736C388.796 35.928 388.716 36.0667 388.609 36.152C388.513 36.2267 388.38 36.264 388.209 36.264C388.049 36.264 387.809 36.2373 387.489 36.184C387.18 36.1307 386.876 36.104 386.577 36.104C386.14 36.104 385.751 36.168 385.409 36.296C385.068 36.424 384.759 36.6107 384.481 36.856C384.215 37.0907 383.975 37.3787 383.761 37.72C383.559 38.0613 383.367 38.4507 383.185 38.888V49H379.233V32.584H381.553C381.959 32.584 382.241 32.6587 382.401 32.808C382.561 32.9467 382.668 33.2027 382.721 33.576L382.961 35.432ZM407.731 49H403.779V35.544H396.163V44.44C396.163 44.952 396.285 45.352 396.531 45.64C396.787 45.928 397.133 46.072 397.571 46.072C397.816 46.072 398.019 46.0453 398.179 45.992C398.349 45.928 398.493 45.864 398.611 45.8C398.739 45.736 398.851 45.6773 398.947 45.624C399.043 45.56 399.139 45.528 399.235 45.528C399.352 45.528 399.448 45.56 399.523 45.624C399.597 45.6773 399.677 45.7627 399.763 45.88L400.947 47.8C400.371 48.28 399.709 48.6427 398.963 48.888C398.216 49.1333 397.443 49.256 396.643 49.256C395.213 49.256 394.115 48.856 393.347 48.056C392.589 47.2453 392.211 46.1307 392.211 44.712V35.544H390.531C390.317 35.544 390.136 35.4747 389.987 35.336C389.837 35.1973 389.763 34.9893 389.763 34.712V33.144L392.403 32.696L393.235 28.232C393.288 28.0187 393.389 27.8533 393.539 27.736C393.688 27.6187 393.88 27.56 394.115 27.56H396.163V32.728H407.731V49ZM408.419 27.736C408.419 28.0773 408.349 28.4027 408.211 28.712C408.072 29.0107 407.885 29.272 407.651 29.496C407.427 29.72 407.155 29.9013 406.835 30.04C406.525 30.168 406.195 30.232 405.843 30.232C405.501 30.232 405.181 30.168 404.883 30.04C404.584 29.9013 404.323 29.72 404.099 29.496C403.875 29.272 403.693 29.0107 403.555 28.712C403.427 28.4027 403.363 28.0773 403.363 27.736C403.363 27.384 403.427 27.0587 403.555 26.76C403.693 26.4507 403.875 26.184 404.099 25.96C404.323 25.7253 404.584 25.544 404.883 25.416C405.181 25.2773 405.501 25.208 405.843 25.208C406.195 25.208 406.525 25.2773 406.835 25.416C407.155 25.544 407.427 25.7253 407.651 25.96C407.885 26.184 408.072 26.4507 408.211 26.76C408.349 27.0587 408.419 27.384 408.419 27.736ZM423.525 36.056C423.407 36.2053 423.29 36.3227 423.173 36.408C423.066 36.4933 422.906 36.536 422.693 36.536C422.49 36.536 422.293 36.4773 422.101 36.36C421.909 36.232 421.679 36.0933 421.413 35.944C421.146 35.784 420.826 35.6453 420.453 35.528C420.09 35.4 419.637 35.336 419.093 35.336C418.399 35.336 417.791 35.464 417.269 35.72C416.746 35.9653 416.309 36.3227 415.957 36.792C415.615 37.2613 415.359 37.832 415.189 38.504C415.018 39.1653 414.933 39.9173 414.933 40.76C414.933 41.6347 415.023 42.4133 415.205 43.096C415.397 43.7787 415.669 44.3547 416.021 44.824C416.373 45.2827 416.799 45.6347 417.301 45.88C417.802 46.1147 418.367 46.232 418.997 46.232C419.626 46.232 420.133 46.1573 420.517 46.008C420.911 45.848 421.242 45.6773 421.509 45.496C421.775 45.304 422.005 45.1333 422.197 44.984C422.399 44.824 422.623 44.744 422.869 44.744C423.189 44.744 423.429 44.8667 423.589 45.112L424.725 46.552C424.287 47.064 423.813 47.496 423.301 47.848C422.789 48.1893 422.255 48.4667 421.701 48.68C421.157 48.8827 420.591 49.0267 420.005 49.112C419.429 49.1973 418.853 49.24 418.277 49.24C417.263 49.24 416.309 49.0533 415.413 48.68C414.517 48.296 413.733 47.7413 413.061 47.016C412.389 46.2907 411.855 45.4053 411.461 44.36C411.077 43.304 410.885 42.104 410.885 40.76C410.885 39.5547 411.055 38.44 411.397 37.416C411.749 36.3813 412.261 35.4907 412.933 34.744C413.605 33.9867 414.437 33.3947 415.429 32.968C416.421 32.5413 417.562 32.328 418.852 32.328C420.079 32.328 421.151 32.5253 422.069 32.92C422.997 33.3147 423.829 33.88 424.565 34.616L423.525 36.056ZM431.202 25.224V49H427.25V25.224H431.202ZM445.716 38.904C445.716 38.392 445.641 37.912 445.492 37.464C445.353 37.0053 445.14 36.6053 444.852 36.264C444.564 35.9227 444.196 35.656 443.748 35.464C443.31 35.2613 442.798 35.16 442.212 35.16C441.07 35.16 440.169 35.4853 439.508 36.136C438.857 36.7867 438.441 37.7093 438.26 38.904H445.716ZM438.18 41.288C438.244 42.1307 438.393 42.8613 438.628 43.48C438.862 44.088 439.172 44.5947 439.556 45C439.94 45.3947 440.393 45.6933 440.916 45.896C441.449 46.088 442.036 46.184 442.676 46.184C443.316 46.184 443.865 46.1093 444.324 45.96C444.793 45.8107 445.198 45.6453 445.54 45.464C445.892 45.2827 446.196 45.1173 446.452 44.968C446.718 44.8187 446.974 44.744 447.22 44.744C447.55 44.744 447.796 44.8667 447.956 45.112L449.092 46.552C448.654 47.064 448.164 47.496 447.62 47.848C447.076 48.1893 446.505 48.4667 445.908 48.68C445.321 48.8827 444.718 49.0267 444.1 49.112C443.492 49.1973 442.9 49.24 442.324 49.24C441.182 49.24 440.121 49.0533 439.14 48.68C438.158 48.296 437.305 47.736 436.58 47C435.854 46.2533 435.284 45.336 434.868 44.248C434.452 43.1493 434.243 41.88 434.243 40.44C434.243 39.32 434.425 38.2693 434.788 37.288C435.15 36.296 435.668 35.4373 436.34 34.712C437.022 33.976 437.849 33.3947 438.82 32.968C439.801 32.5413 440.905 32.328 442.132 32.328C443.166 32.328 444.121 32.4933 444.996 32.824C445.87 33.1547 446.622 33.64 447.252 34.28C447.881 34.9093 448.372 35.688 448.724 36.616C449.086 37.5333 449.267 38.584 449.267 39.768C449.267 40.3653 449.204 40.7707 449.076 40.984C448.948 41.1867 448.702 41.288 448.34 41.288H438.18ZM465.487 49.256C464.057 49.256 462.959 48.856 462.191 48.056C461.433 47.2453 461.055 46.1307 461.055 44.712V35.544H459.375C459.161 35.544 458.98 35.4747 458.831 35.336C458.681 35.1973 458.607 34.9893 458.607 34.712V33.144L461.247 32.712L462.079 28.232C462.132 28.0187 462.233 27.8533 462.383 27.736C462.532 27.6187 462.724 27.56 462.959 27.56H465.007V32.728H469.391V35.544H465.007V44.44C465.007 44.952 465.129 45.352 465.375 45.64C465.631 45.928 465.977 46.072 466.415 46.072C466.66 46.072 466.863 46.0453 467.023 45.992C467.193 45.928 467.337 45.864 467.455 45.8C467.583 45.736 467.695 45.6773 467.791 45.624C467.887 45.56 467.983 45.528 468.079 45.528C468.196 45.528 468.292 45.56 468.367 45.624C468.441 45.6773 468.521 45.7627 468.607 45.88L469.791 47.8C469.215 48.28 468.553 48.6427 467.807 48.888C467.06 49.1333 466.287 49.256 465.487 49.256ZM479.06 32.328C480.276 32.328 481.38 32.5253 482.372 32.92C483.374 33.3147 484.228 33.8747 484.932 34.6C485.646 35.3253 486.196 36.2107 486.58 37.256C486.964 38.3013 487.156 39.4693 487.156 40.76C487.156 42.0613 486.964 43.2347 486.58 44.28C486.196 45.3253 485.646 46.216 484.932 46.952C484.228 47.688 483.374 48.2533 482.372 48.648C481.38 49.0427 480.276 49.24 479.06 49.24C477.833 49.24 476.718 49.0427 475.716 48.648C474.713 48.2533 473.854 47.688 473.14 46.952C472.436 46.216 471.886 45.3253 471.492 44.28C471.108 43.2347 470.916 42.0613 470.916 40.76C470.916 39.4693 471.108 38.3013 471.492 37.256C471.886 36.2107 472.436 35.3253 473.14 34.6C473.854 33.8747 474.713 33.3147 475.716 32.92C476.718 32.5253 477.833 32.328 479.06 32.328ZM479.06 46.2C480.425 46.2 481.433 45.7413 482.084 44.824C482.745 43.9067 483.076 42.5627 483.076 40.792C483.076 39.0213 482.745 37.672 482.084 36.744C481.433 35.816 480.425 35.352 479.06 35.352C477.673 35.352 476.644 35.8213 475.972 36.76C475.31 37.688 474.98 39.032 474.98 40.792C474.98 42.552 475.31 43.896 475.972 44.824C476.644 45.7413 477.673 46.2 479.06 46.2ZM508.528 38.904C508.528 38.392 508.453 37.912 508.304 37.464C508.165 37.0053 507.952 36.6053 507.664 36.264C507.376 35.9227 507.008 35.656 506.56 35.464C506.123 35.2613 505.611 35.16 505.024 35.16C503.883 35.16 502.981 35.4853 502.32 36.136C501.669 36.7867 501.253 37.7093 501.072 38.904H508.528ZM500.992 41.288C501.056 42.1307 501.205 42.8613 501.44 43.48C501.675 44.088 501.984 44.5947 502.368 45C502.752 45.3947 503.205 45.6933 503.728 45.896C504.261 46.088 504.848 46.184 505.488 46.184C506.128 46.184 506.677 46.1093 507.136 45.96C507.605 45.8107 508.011 45.6453 508.352 45.464C508.704 45.2827 509.008 45.1173 509.264 44.968C509.531 44.8187 509.787 44.744 510.032 44.744C510.363 44.744 510.608 44.8667 510.768 45.112L511.904 46.552C511.467 47.064 510.976 47.496 510.432 47.848C509.888 48.1893 509.317 48.4667 508.72 48.68C508.133 48.8827 507.531 49.0267 506.912 49.112C506.304 49.1973 505.712 49.24 505.136 49.24C503.995 49.24 502.933 49.0533 501.952 48.68C500.971 48.296 500.117 47.736 499.392 47C498.667 46.2533 498.096 45.336 497.68 44.248C497.264 43.1493 497.056 41.88 497.056 40.44C497.056 39.32 497.237 38.2693 497.6 37.288C497.963 36.296 498.48 35.4373 499.152 34.712C499.835 33.976 500.661 33.3947 501.632 32.968C502.613 32.5413 503.717 32.328 504.944 32.328C505.979 32.328 506.933 32.4933 507.808 32.824C508.683 33.1547 509.435 33.64 510.064 34.28C510.693 34.9093 511.184 35.688 511.536 36.616C511.899 37.5333 512.08 38.584 512.08 39.768C512.08 40.3653 512.016 40.7707 511.888 40.984C511.76 41.1867 511.515 41.288 511.152 41.288H500.992ZM529.452 49H525.644C525.356 49 525.121 48.9253 524.94 48.776C524.769 48.6267 524.625 48.456 524.508 48.264L521.036 42.552C520.982 42.7333 520.918 42.904 520.844 43.064C520.78 43.224 520.705 43.3733 520.62 43.512L517.548 48.264C517.43 48.4453 517.286 48.616 517.116 48.776C516.945 48.9253 516.732 49 516.476 49H512.94L518.572 40.536L513.164 32.584H516.972C517.26 32.584 517.473 32.6267 517.612 32.712C517.75 32.7867 517.873 32.9147 517.98 33.096L521.42 38.568C521.537 38.2053 521.702 37.848 521.916 37.496L524.684 33.176C524.918 32.7813 525.222 32.584 525.596 32.584H529.228L523.836 40.36L529.452 49ZM535.611 32.584V49H531.643V32.584H535.611ZM536.155 27.8C536.155 28.1413 536.085 28.4613 535.947 28.76C535.808 29.0587 535.621 29.32 535.387 29.544C535.163 29.768 534.896 29.9493 534.587 30.088C534.277 30.216 533.947 30.28 533.595 30.28C533.253 30.28 532.928 30.216 532.619 30.088C532.32 29.9493 532.059 29.768 531.835 29.544C531.611 29.32 531.429 29.0587 531.291 28.76C531.163 28.4613 531.099 28.1413 531.099 27.8C531.099 27.448 531.163 27.1173 531.291 26.808C531.429 26.4987 531.611 26.232 531.835 26.008C532.059 25.784 532.32 25.608 532.619 25.48C532.928 25.3413 533.253 25.272 533.595 25.272C533.947 25.272 534.277 25.3413 534.587 25.48C534.896 25.608 535.163 25.784 535.387 26.008C535.621 26.232 535.808 26.4987 535.947 26.808C536.085 27.1173 536.155 27.448 536.155 27.8ZM549.656 35.784C549.549 35.9547 549.437 36.0773 549.32 36.152C549.202 36.216 549.053 36.248 548.872 36.248C548.68 36.248 548.472 36.1947 548.248 36.088C548.034 35.9813 547.784 35.864 547.496 35.736C547.208 35.5973 546.877 35.4747 546.503 35.368C546.141 35.2613 545.709 35.208 545.208 35.208C544.429 35.208 543.816 35.3733 543.368 35.704C542.93 36.0347 542.712 36.4667 542.712 37C542.712 37.352 542.824 37.6507 543.048 37.896C543.282 38.1307 543.586 38.3387 543.96 38.52C544.344 38.7013 544.776 38.8667 545.256 39.016C545.736 39.1547 546.221 39.3093 546.712 39.48C547.213 39.6507 547.704 39.848 548.184 40.072C548.664 40.2853 549.09 40.5627 549.464 40.904C549.848 41.2347 550.152 41.6347 550.376 42.104C550.61 42.5733 550.728 43.1387 550.728 43.8C550.728 44.5893 550.584 45.32 550.296 45.992C550.018 46.6533 549.602 47.2293 549.048 47.72C548.493 48.2 547.805 48.5787 546.984 48.856C546.173 49.1227 545.234 49.256 544.168 49.256C543.602 49.256 543.048 49.2027 542.504 49.096C541.97 49 541.453 48.8613 540.952 48.68C540.461 48.4987 540.002 48.2853 539.576 48.04C539.16 47.7947 538.792 47.528 538.472 47.24L539.384 45.736C539.501 45.5547 539.64 45.416 539.799 45.32C539.959 45.224 540.162 45.176 540.408 45.176C540.653 45.176 540.882 45.2453 541.096 45.384C541.32 45.5227 541.576 45.672 541.864 45.832C542.152 45.992 542.488 46.1413 542.872 46.28C543.266 46.4187 543.762 46.488 544.36 46.488C544.829 46.488 545.229 46.4347 545.56 46.328C545.901 46.2107 546.178 46.0613 546.392 45.88C546.616 45.6987 546.775 45.4907 546.872 45.256C546.978 45.0107 547.032 44.76 547.032 44.504C547.032 44.12 546.914 43.8053 546.68 43.56C546.456 43.3147 546.152 43.1013 545.767 42.92C545.394 42.7387 544.962 42.5787 544.472 42.44C543.992 42.2907 543.496 42.1307 542.984 41.96C542.482 41.7893 541.986 41.592 541.496 41.368C541.016 41.1333 540.584 40.84 540.2 40.488C539.826 40.136 539.522 39.704 539.288 39.192C539.064 38.68 538.952 38.0613 538.952 37.336C538.952 36.664 539.085 36.024 539.352 35.416C539.618 34.808 540.008 34.28 540.52 33.832C541.042 33.3733 541.688 33.0107 542.456 32.744C543.234 32.4667 544.13 32.328 545.144 32.328C546.274 32.328 547.304 32.5147 548.232 32.888C549.16 33.2613 549.933 33.752 550.552 34.36L549.656 35.784ZM559.174 49.256C557.745 49.256 556.646 48.856 555.878 48.056C555.121 47.2453 554.742 46.1307 554.742 44.712V35.544H553.062C552.849 35.544 552.667 35.4747 552.518 35.336C552.369 35.1973 552.294 34.9893 552.294 34.712V33.144L554.934 32.712L555.766 28.232C555.819 28.0187 555.921 27.8533 556.07 27.736C556.219 27.6187 556.411 27.56 556.646 27.56H558.694V32.728H563.078V35.544H558.694V44.44C558.694 44.952 558.817 45.352 559.062 45.64C559.318 45.928 559.665 46.072 560.102 46.072C560.347 46.072 560.55 46.0453 560.71 45.992C560.881 45.928 561.025 45.864 561.142 45.8C561.27 45.736 561.382 45.6773 561.478 45.624C561.574 45.56 561.67 45.528 561.766 45.528C561.883 45.528 561.979 45.56 562.054 45.624C562.129 45.6773 562.209 45.7627 562.294 45.88L563.478 47.8C562.902 48.28 562.241 48.6427 561.494 48.888C560.747 49.1333 559.974 49.256 559.174 49.256ZM577.486 32.584V49H573.518V32.584H577.486ZM578.03 27.8C578.03 28.1413 577.96 28.4613 577.822 28.76C577.683 29.0587 577.496 29.32 577.262 29.544C577.038 29.768 576.771 29.9493 576.462 30.088C576.152 30.216 575.822 30.28 575.47 30.28C575.128 30.28 574.803 30.216 574.494 30.088C574.195 29.9493 573.934 29.768 573.71 29.544C573.486 29.32 573.304 29.0587 573.166 28.76C573.038 28.4613 572.974 28.1413 572.974 27.8C572.974 27.448 573.038 27.1173 573.166 26.808C573.304 26.4987 573.486 26.232 573.71 26.008C573.934 25.784 574.195 25.608 574.494 25.48C574.803 25.3413 575.128 25.272 575.47 25.272C575.822 25.272 576.152 25.3413 576.462 25.48C576.771 25.608 577.038 25.784 577.262 26.008C577.496 26.232 577.683 26.4987 577.822 26.808C577.96 27.1173 578.03 27.448 578.03 27.8ZM585.211 34.6C585.541 34.2693 585.888 33.9653 586.251 33.688C586.624 33.4 587.013 33.16 587.419 32.968C587.835 32.7653 588.277 32.6107 588.747 32.504C589.216 32.3867 589.728 32.328 590.283 32.328C591.179 32.328 591.973 32.4827 592.667 32.792C593.36 33.0907 593.936 33.5173 594.395 34.072C594.864 34.616 595.216 35.272 595.451 36.04C595.696 36.7973 595.819 37.6347 595.819 38.552V49H591.867V38.552C591.867 37.5493 591.637 36.776 591.179 36.232C590.72 35.6773 590.021 35.4 589.083 35.4C588.4 35.4 587.76 35.5547 587.163 35.864C586.565 36.1733 586 36.5947 585.467 37.128V49H581.515V32.584H583.931C584.443 32.584 584.779 32.824 584.939 33.304L585.211 34.6ZM127.952 87V70.584H130.368C130.88 70.584 131.216 70.824 131.376 71.304L131.632 72.52C131.92 72.2 132.219 71.9067 132.528 71.64C132.848 71.3733 133.184 71.144 133.536 70.952C133.899 70.76 134.283 70.6107 134.688 70.504C135.104 70.3867 135.557 70.328 136.048 70.328C137.083 70.328 137.931 70.6107 138.592 71.176C139.264 71.7307 139.765 72.472 140.096 73.4C140.352 72.856 140.672 72.392 141.056 72.008C141.44 71.6133 141.861 71.2933 142.32 71.048C142.779 70.8027 143.264 70.6213 143.776 70.504C144.299 70.3867 144.821 70.328 145.344 70.328C146.251 70.328 147.056 70.4667 147.76 70.744C148.464 71.0213 149.056 71.4267 149.536 71.96C150.016 72.4933 150.379 73.144 150.624 73.912C150.88 74.68 151.008 75.56 151.008 76.552V87H147.056V76.552C147.056 75.5067 146.827 74.7227 146.368 74.2C145.909 73.6667 145.237 73.4 144.352 73.4C143.947 73.4 143.568 73.4693 143.216 73.608C142.875 73.7467 142.571 73.9493 142.304 74.216C142.048 74.472 141.845 74.7973 141.696 75.192C141.547 75.5867 141.472 76.04 141.472 76.552V87H137.504V76.552C137.504 75.4533 137.28 74.6533 136.832 74.152C136.395 73.6507 135.749 73.4 134.896 73.4C134.32 73.4 133.781 73.544 133.28 73.832C132.789 74.1093 132.331 74.4933 131.904 74.984V87H127.952ZM168.909 70.584V87H166.493C165.97 87 165.639 86.76 165.501 86.28L165.229 84.968C164.557 85.6507 163.815 86.2053 163.005 86.632C162.194 87.048 161.239 87.256 160.141 87.256C159.245 87.256 158.45 87.1067 157.757 86.808C157.074 86.4987 156.498 86.0667 156.029 85.512C155.559 84.9573 155.202 84.3013 154.957 83.544C154.722 82.776 154.605 81.9333 154.605 81.016V70.584H158.557V81.016C158.557 82.0187 158.786 82.7973 159.245 83.352C159.714 83.896 160.413 84.168 161.341 84.168C162.023 84.168 162.663 84.0187 163.261 83.72C163.858 83.4107 164.423 82.9893 164.957 82.456V70.584H168.909ZM176.827 63.224V87H172.875V63.224H176.827ZM197.325 87H193.373V73.544H185.757V82.44C185.757 82.952 185.879 83.352 186.125 83.64C186.381 83.928 186.727 84.072 187.165 84.072C187.41 84.072 187.613 84.0453 187.773 83.992C187.943 83.928 188.087 83.864 188.205 83.8C188.333 83.736 188.445 83.6773 188.541 83.624C188.637 83.56 188.733 83.528 188.829 83.528C188.946 83.528 189.042 83.56 189.117 83.624C189.191 83.6773 189.271 83.7627 189.357 83.88L190.541 85.8C189.965 86.28 189.303 86.6427 188.557 86.888C187.81 87.1333 187.037 87.256 186.237 87.256C184.807 87.256 183.709 86.856 182.941 86.056C182.183 85.2453 181.805 84.1307 181.805 82.712V73.544H180.125C179.911 73.544 179.73 73.4747 179.581 73.336C179.431 73.1973 179.357 72.9893 179.357 72.712V71.144L181.997 70.696L182.829 66.232C182.882 66.0187 182.983 65.8533 183.133 65.736C183.282 65.6187 183.474 65.56 183.709 65.56H185.757V70.728H197.325V87ZM198.013 65.736C198.013 66.0773 197.943 66.4027 197.805 66.712C197.666 67.0107 197.479 67.272 197.245 67.496C197.021 67.72 196.749 67.9013 196.429 68.04C196.119 68.168 195.789 68.232 195.437 68.232C195.095 68.232 194.775 68.168 194.477 68.04C194.178 67.9013 193.917 67.72 193.693 67.496C193.469 67.272 193.287 67.0107 193.149 66.712C193.021 66.4027 192.957 66.0773 192.957 65.736C192.957 65.384 193.021 65.0587 193.149 64.76C193.287 64.4507 193.469 64.184 193.693 63.96C193.917 63.7253 194.178 63.544 194.477 63.416C194.775 63.2773 195.095 63.208 195.437 63.208C195.789 63.208 196.119 63.2773 196.429 63.416C196.749 63.544 197.021 63.7253 197.245 63.96C197.479 64.184 197.666 64.4507 197.805 64.76C197.943 65.0587 198.013 65.384 198.013 65.736ZM205.31 82.744C205.758 83.288 206.244 83.672 206.766 83.896C207.3 84.12 207.876 84.232 208.494 84.232C209.092 84.232 209.63 84.12 210.11 83.896C210.59 83.672 210.996 83.3307 211.326 82.872C211.668 82.4133 211.929 81.8373 212.11 81.144C212.292 80.44 212.382 79.6133 212.382 78.664C212.382 77.704 212.302 76.8933 212.142 76.232C211.993 75.56 211.774 75.016 211.486 74.6C211.198 74.184 210.846 73.88 210.43 73.688C210.025 73.496 209.561 73.4 209.038 73.4C208.217 73.4 207.518 73.576 206.942 73.928C206.366 74.2693 205.822 74.7547 205.31 75.384V82.744ZM205.102 72.824C205.774 72.0667 206.537 71.4533 207.39 70.984C208.244 70.5147 209.246 70.28 210.398 70.28C211.294 70.28 212.11 70.4667 212.846 70.84C213.593 71.2133 214.233 71.7573 214.766 72.472C215.31 73.176 215.726 74.0507 216.014 75.096C216.313 76.1307 216.462 77.32 216.462 78.664C216.462 79.8907 216.297 81.0267 215.966 82.072C215.636 83.1173 215.161 84.024 214.542 84.792C213.934 85.56 213.193 86.1627 212.318 86.6C211.454 87.0267 210.484 87.24 209.406 87.24C208.489 87.24 207.705 87.1013 207.054 86.824C206.404 86.536 205.822 86.1413 205.31 85.64V92.36H201.358V70.584H203.774C204.286 70.584 204.622 70.824 204.782 71.304L205.102 72.824ZM223.546 63.224V87H219.594V63.224H223.546ZM238.059 76.904C238.059 76.392 237.985 75.912 237.835 75.464C237.697 75.0053 237.483 74.6053 237.195 74.264C236.907 73.9227 236.539 73.656 236.091 73.464C235.654 73.2613 235.142 73.16 234.555 73.16C233.414 73.16 232.513 73.4853 231.851 74.136C231.201 74.7867 230.785 75.7093 230.603 76.904H238.059ZM230.523 79.288C230.587 80.1307 230.737 80.8613 230.971 81.48C231.206 82.088 231.515 82.5947 231.899 83C232.283 83.3947 232.737 83.6933 233.259 83.896C233.793 84.088 234.379 84.184 235.019 84.184C235.659 84.184 236.209 84.1093 236.667 83.96C237.137 83.8107 237.542 83.6453 237.883 83.464C238.235 83.2827 238.539 83.1173 238.795 82.968C239.062 82.8187 239.318 82.744 239.563 82.744C239.894 82.744 240.139 82.8667 240.299 83.112L241.435 84.552C240.998 85.064 240.507 85.496 239.963 85.848C239.419 86.1893 238.849 86.4667 238.251 86.68C237.665 86.8827 237.062 87.0267 236.443 87.112C235.835 87.1973 235.243 87.24 234.667 87.24C233.526 87.24 232.465 87.0533 231.483 86.68C230.502 86.296 229.649 85.736 228.923 85C228.198 84.2533 227.627 83.336 227.211 82.248C226.795 81.1493 226.587 79.88 226.587 78.44C226.587 77.32 226.769 76.2693 227.131 75.288C227.494 74.296 228.011 73.4373 228.683 72.712C229.366 71.976 230.193 71.3947 231.163 70.968C232.145 70.5413 233.249 70.328 234.475 70.328C235.51 70.328 236.465 70.4933 237.339 70.824C238.214 71.1547 238.966 71.64 239.595 72.28C240.225 72.9093 240.715 73.688 241.067 74.616C241.43 75.5333 241.611 76.584 241.611 77.768C241.611 78.3653 241.547 78.7707 241.419 78.984C241.291 79.1867 241.046 79.288 240.683 79.288H230.523ZM262.374 73.784C262.268 73.9547 262.156 74.0773 262.038 74.152C261.921 74.216 261.772 74.248 261.59 74.248C261.398 74.248 261.19 74.1947 260.966 74.088C260.753 73.9813 260.502 73.864 260.214 73.736C259.926 73.5973 259.596 73.4747 259.222 73.368C258.86 73.2613 258.428 73.208 257.926 73.208C257.148 73.208 256.534 73.3733 256.086 73.704C255.649 74.0347 255.43 74.4667 255.43 75C255.43 75.352 255.542 75.6507 255.766 75.896C256.001 76.1307 256.305 76.3387 256.678 76.52C257.062 76.7013 257.494 76.8667 257.974 77.016C258.454 77.1547 258.94 77.3093 259.43 77.48C259.932 77.6507 260.422 77.848 260.902 78.072C261.382 78.2853 261.809 78.5627 262.182 78.904C262.566 79.2347 262.87 79.6347 263.094 80.104C263.329 80.5733 263.446 81.1387 263.446 81.8C263.446 82.5893 263.302 83.32 263.014 83.992C262.737 84.6533 262.321 85.2293 261.766 85.72C261.212 86.2 260.524 86.5787 259.702 86.856C258.892 87.1227 257.953 87.256 256.886 87.256C256.321 87.256 255.766 87.2027 255.222 87.096C254.689 87 254.172 86.8613 253.67 86.68C253.18 86.4987 252.721 86.2853 252.294 86.04C251.878 85.7947 251.51 85.528 251.19 85.24L252.102 83.736C252.22 83.5547 252.358 83.416 252.518 83.32C252.678 83.224 252.881 83.176 253.126 83.176C253.372 83.176 253.601 83.2453 253.814 83.384C254.038 83.5227 254.294 83.672 254.582 83.832C254.87 83.992 255.206 84.1413 255.59 84.28C255.985 84.4187 256.481 84.488 257.078 84.488C257.548 84.488 257.948 84.4347 258.278 84.328C258.62 84.2107 258.897 84.0613 259.11 83.88C259.334 83.6987 259.494 83.4907 259.59 83.256C259.697 83.0107 259.75 82.76 259.75 82.504C259.75 82.12 259.633 81.8053 259.398 81.56C259.174 81.3147 258.87 81.1013 258.486 80.92C258.113 80.7387 257.681 80.5787 257.19 80.44C256.71 80.2907 256.214 80.1307 255.702 79.96C255.201 79.7893 254.705 79.592 254.214 79.368C253.734 79.1333 253.302 78.84 252.918 78.488C252.545 78.136 252.241 77.704 252.006 77.192C251.782 76.68 251.67 76.0613 251.67 75.336C251.67 74.664 251.804 74.024 252.07 73.416C252.337 72.808 252.726 72.28 253.238 71.832C253.761 71.3733 254.406 71.0107 255.174 70.744C255.953 70.4667 256.849 70.328 257.862 70.328C258.993 70.328 260.022 70.5147 260.95 70.888C261.878 71.2613 262.652 71.752 263.27 72.36L262.374 73.784ZM271.893 87.256C270.463 87.256 269.365 86.856 268.597 86.056C267.839 85.2453 267.461 84.1307 267.461 82.712V73.544H265.781C265.567 73.544 265.386 73.4747 265.237 73.336C265.087 73.1973 265.013 72.9893 265.013 72.712V71.144L267.653 70.712L268.485 66.232C268.538 66.0187 268.639 65.8533 268.789 65.736C268.938 65.6187 269.13 65.56 269.365 65.56H271.413V70.728H275.797V73.544H271.413V82.44C271.413 82.952 271.535 83.352 271.781 83.64C272.037 83.928 272.383 84.072 272.821 84.072C273.066 84.072 273.269 84.0453 273.429 83.992C273.599 83.928 273.743 83.864 273.861 83.8C273.989 83.736 274.101 83.6773 274.197 83.624C274.293 83.56 274.389 83.528 274.485 83.528C274.602 83.528 274.698 83.56 274.773 83.624C274.847 83.6773 274.927 83.7627 275.013 83.88L276.197 85.8C275.621 86.28 274.959 86.6427 274.213 86.888C273.466 87.1333 272.693 87.256 271.893 87.256ZM286.999 79.992C285.858 80.0453 284.898 80.1467 284.119 80.296C283.34 80.4347 282.716 80.616 282.247 80.84C281.778 81.064 281.442 81.3253 281.239 81.624C281.036 81.9227 280.935 82.248 280.935 82.6C280.935 83.2933 281.138 83.7893 281.543 84.088C281.959 84.3867 282.498 84.536 283.159 84.536C283.97 84.536 284.668 84.392 285.255 84.104C285.852 83.8053 286.434 83.3573 286.999 82.76V79.992ZM277.943 72.872C279.831 71.144 282.103 70.28 284.759 70.28C285.719 70.28 286.578 70.44 287.335 70.76C288.092 71.0693 288.732 71.5067 289.255 72.072C289.778 72.6267 290.172 73.2933 290.439 74.072C290.716 74.8507 290.855 75.704 290.855 76.632V87H289.063C288.69 87 288.402 86.9467 288.199 86.84C287.996 86.7227 287.836 86.4933 287.719 86.152L287.367 84.968C286.951 85.3413 286.546 85.672 286.151 85.96C285.756 86.2373 285.346 86.472 284.919 86.664C284.492 86.856 284.034 87 283.543 87.096C283.063 87.2027 282.53 87.256 281.943 87.256C281.25 87.256 280.61 87.1653 280.023 86.984C279.436 86.792 278.93 86.5093 278.503 86.136C278.076 85.7627 277.746 85.2987 277.511 84.744C277.276 84.1893 277.159 83.544 277.159 82.808C277.159 82.392 277.228 81.9813 277.367 81.576C277.506 81.16 277.73 80.7653 278.039 80.392C278.359 80.0187 278.77 79.6667 279.271 79.336C279.772 79.0053 280.386 78.7173 281.111 78.472C281.847 78.2267 282.7 78.0293 283.671 77.88C284.642 77.72 285.751 77.624 286.999 77.592V76.632C286.999 75.5333 286.764 74.7227 286.295 74.2C285.826 73.6667 285.148 73.4 284.263 73.4C283.623 73.4 283.09 73.4747 282.663 73.624C282.247 73.7733 281.879 73.944 281.559 74.136C281.239 74.3173 280.946 74.4827 280.679 74.632C280.423 74.7813 280.135 74.856 279.815 74.856C279.538 74.856 279.303 74.7867 279.111 74.648C278.919 74.4987 278.764 74.328 278.647 74.136L277.943 72.872ZM299.83 87.256C298.401 87.256 297.302 86.856 296.534 86.056C295.777 85.2453 295.398 84.1307 295.398 82.712V73.544H293.718C293.505 73.544 293.324 73.4747 293.174 73.336C293.025 73.1973 292.95 72.9893 292.95 72.712V71.144L295.59 70.712L296.422 66.232C296.476 66.0187 296.577 65.8533 296.726 65.736C296.876 65.6187 297.068 65.56 297.302 65.56H299.35V70.728H303.734V73.544H299.35V82.44C299.35 82.952 299.473 83.352 299.718 83.64C299.974 83.928 300.321 84.072 300.758 84.072C301.004 84.072 301.206 84.0453 301.366 83.992C301.537 83.928 301.681 83.864 301.798 83.8C301.926 83.736 302.038 83.6773 302.134 83.624C302.23 83.56 302.326 83.528 302.422 83.528C302.54 83.528 302.636 83.56 302.71 83.624C302.785 83.6773 302.865 83.7627 302.95 83.88L304.134 85.8C303.558 86.28 302.897 86.6427 302.15 86.888C301.404 87.1333 300.63 87.256 299.83 87.256ZM316.716 76.904C316.716 76.392 316.641 75.912 316.492 75.464C316.353 75.0053 316.14 74.6053 315.852 74.264C315.564 73.9227 315.196 73.656 314.748 73.464C314.31 73.2613 313.798 73.16 313.212 73.16C312.07 73.16 311.169 73.4853 310.508 74.136C309.857 74.7867 309.441 75.7093 309.26 76.904H316.716ZM309.18 79.288C309.244 80.1307 309.393 80.8613 309.628 81.48C309.862 82.088 310.172 82.5947 310.556 83C310.94 83.3947 311.393 83.6933 311.916 83.896C312.449 84.088 313.036 84.184 313.676 84.184C314.316 84.184 314.865 84.1093 315.324 83.96C315.793 83.8107 316.198 83.6453 316.54 83.464C316.892 83.2827 317.196 83.1173 317.452 82.968C317.718 82.8187 317.974 82.744 318.22 82.744C318.55 82.744 318.796 82.8667 318.956 83.112L320.092 84.552C319.654 85.064 319.164 85.496 318.62 85.848C318.076 86.1893 317.505 86.4667 316.908 86.68C316.321 86.8827 315.718 87.0267 315.1 87.112C314.492 87.1973 313.9 87.24 313.324 87.24C312.182 87.24 311.121 87.0533 310.14 86.68C309.158 86.296 308.305 85.736 307.58 85C306.854 84.2533 306.284 83.336 305.868 82.248C305.452 81.1493 305.243 79.88 305.243 78.44C305.243 77.32 305.425 76.2693 305.788 75.288C306.15 74.296 306.668 73.4373 307.34 72.712C308.022 71.976 308.849 71.3947 309.82 70.968C310.801 70.5413 311.905 70.328 313.132 70.328C314.166 70.328 315.121 70.4933 315.996 70.824C316.87 71.1547 317.622 71.64 318.252 72.28C318.881 72.9093 319.372 73.688 319.724 74.616C320.086 75.5333 320.267 76.584 320.267 77.768C320.267 78.3653 320.204 78.7707 320.076 78.984C319.948 79.1867 319.702 79.288 319.34 79.288H309.18ZM333.249 73.784C333.143 73.9547 333.031 74.0773 332.913 74.152C332.796 74.216 332.647 74.248 332.465 74.248C332.273 74.248 332.065 74.1947 331.841 74.088C331.628 73.9813 331.377 73.864 331.089 73.736C330.801 73.5973 330.471 73.4747 330.097 73.368C329.735 73.2613 329.303 73.208 328.801 73.208C328.023 73.208 327.409 73.3733 326.961 73.704C326.524 74.0347 326.305 74.4667 326.305 75C326.305 75.352 326.417 75.6507 326.641 75.896C326.876 76.1307 327.18 76.3387 327.553 76.52C327.937 76.7013 328.369 76.8667 328.849 77.016C329.329 77.1547 329.815 77.3093 330.305 77.48C330.807 77.6507 331.297 77.848 331.777 78.072C332.257 78.2853 332.684 78.5627 333.057 78.904C333.441 79.2347 333.745 79.6347 333.969 80.104C334.204 80.5733 334.321 81.1387 334.321 81.8C334.321 82.5893 334.177 83.32 333.889 83.992C333.612 84.6533 333.196 85.2293 332.641 85.72C332.087 86.2 331.399 86.5787 330.577 86.856C329.767 87.1227 328.828 87.256 327.761 87.256C327.196 87.256 326.641 87.2027 326.097 87.096C325.564 87 325.047 86.8613 324.545 86.68C324.055 86.4987 323.596 86.2853 323.169 86.04C322.753 85.7947 322.385 85.528 322.065 85.24L322.977 83.736C323.095 83.5547 323.233 83.416 323.393 83.32C323.553 83.224 323.756 83.176 324.001 83.176C324.247 83.176 324.476 83.2453 324.689 83.384C324.913 83.5227 325.169 83.672 325.457 83.832C325.745 83.992 326.081 84.1413 326.465 84.28C326.86 84.4187 327.356 84.488 327.953 84.488C328.423 84.488 328.823 84.4347 329.153 84.328C329.495 84.2107 329.772 84.0613 329.985 83.88C330.209 83.6987 330.369 83.4907 330.465 83.256C330.572 83.0107 330.625 82.76 330.625 82.504C330.625 82.12 330.508 81.8053 330.273 81.56C330.049 81.3147 329.745 81.1013 329.361 80.92C328.988 80.7387 328.556 80.5787 328.065 80.44C327.585 80.2907 327.089 80.1307 326.577 79.96C326.076 79.7893 325.58 79.592 325.089 79.368C324.609 79.1333 324.177 78.84 323.793 78.488C323.42 78.136 323.116 77.704 322.881 77.192C322.657 76.68 322.545 76.0613 322.545 75.336C322.545 74.664 322.679 74.024 322.945 73.416C323.212 72.808 323.601 72.28 324.113 71.832C324.636 71.3733 325.281 71.0107 326.049 70.744C326.828 70.4667 327.724 70.328 328.737 70.328C329.868 70.328 330.897 70.5147 331.825 70.888C332.753 71.2613 333.527 71.752 334.145 72.36L333.249 73.784ZM352.341 70.328C353.557 70.328 354.661 70.5253 355.653 70.92C356.656 71.3147 357.509 71.8747 358.213 72.6C358.928 73.3253 359.477 74.2107 359.861 75.256C360.245 76.3013 360.437 77.4693 360.437 78.76C360.437 80.0613 360.245 81.2347 359.861 82.28C359.477 83.3253 358.928 84.216 358.213 84.952C357.509 85.688 356.656 86.2533 355.653 86.648C354.661 87.0427 353.557 87.24 352.341 87.24C351.114 87.24 350 87.0427 348.997 86.648C347.994 86.2533 347.136 85.688 346.421 84.952C345.717 84.216 345.168 83.3253 344.773 82.28C344.389 81.2347 344.197 80.0613 344.197 78.76C344.197 77.4693 344.389 76.3013 344.773 75.256C345.168 74.2107 345.717 73.3253 346.421 72.6C347.136 71.8747 347.994 71.3147 348.997 70.92C350 70.5253 351.114 70.328 352.341 70.328ZM352.341 84.2C353.706 84.2 354.714 83.7413 355.365 82.824C356.026 81.9067 356.357 80.5627 356.357 78.792C356.357 77.0213 356.026 75.672 355.365 74.744C354.714 73.816 353.706 73.352 352.341 73.352C350.954 73.352 349.925 73.8213 349.253 74.76C348.592 75.688 348.261 77.032 348.261 78.792C348.261 80.552 348.592 81.896 349.253 82.824C349.925 83.7413 350.954 84.2 352.341 84.2ZM367.18 73.432C367.692 72.4507 368.3 71.6827 369.004 71.128C369.708 70.5627 370.54 70.28 371.5 70.28C372.257 70.28 372.865 70.4453 373.324 70.776L373.068 73.736C373.015 73.928 372.935 74.0667 372.828 74.152C372.732 74.2267 372.599 74.264 372.428 74.264C372.268 74.264 372.028 74.2373 371.708 74.184C371.399 74.1307 371.095 74.104 370.796 74.104C370.359 74.104 369.969 74.168 369.628 74.296C369.287 74.424 368.977 74.6107 368.7 74.856C368.433 75.0907 368.193 75.3787 367.98 75.72C367.777 76.0613 367.585 76.4507 367.404 76.888V87H363.452V70.584H365.772C366.177 70.584 366.46 70.6587 366.62 70.808C366.78 70.9467 366.887 71.2027 366.94 71.576L367.18 73.432ZM386.435 82.744C386.883 83.288 387.369 83.672 387.891 83.896C388.425 84.12 389.001 84.232 389.619 84.232C390.217 84.232 390.755 84.12 391.235 83.896C391.715 83.672 392.121 83.3307 392.451 82.872C392.793 82.4133 393.054 81.8373 393.235 81.144C393.417 80.44 393.507 79.6133 393.507 78.664C393.507 77.704 393.427 76.8933 393.267 76.232C393.118 75.56 392.899 75.016 392.611 74.6C392.323 74.184 391.971 73.88 391.555 73.688C391.15 73.496 390.686 73.4 390.163 73.4C389.342 73.4 388.643 73.576 388.067 73.928C387.491 74.2693 386.947 74.7547 386.435 75.384V82.744ZM386.227 72.824C386.899 72.0667 387.662 71.4533 388.515 70.984C389.369 70.5147 390.371 70.28 391.523 70.28C392.419 70.28 393.235 70.4667 393.971 70.84C394.718 71.2133 395.358 71.7573 395.891 72.472C396.435 73.176 396.851 74.0507 397.139 75.096C397.438 76.1307 397.587 77.32 397.587 78.664C397.587 79.8907 397.422 81.0267 397.091 82.072C396.761 83.1173 396.286 84.024 395.667 84.792C395.059 85.56 394.318 86.1627 393.443 86.6C392.579 87.0267 391.609 87.24 390.531 87.24C389.614 87.24 388.83 87.1013 388.179 86.824C387.529 86.536 386.947 86.1413 386.435 85.64V92.36H382.483V70.584H384.899C385.411 70.584 385.747 70.824 385.907 71.304L386.227 72.824ZM404.671 63.224V87H400.719V63.224H404.671ZM417.28 79.992C416.139 80.0453 415.179 80.1467 414.4 80.296C413.622 80.4347 412.998 80.616 412.528 80.84C412.059 81.064 411.723 81.3253 411.52 81.624C411.318 81.9227 411.216 82.248 411.216 82.6C411.216 83.2933 411.419 83.7893 411.824 84.088C412.24 84.3867 412.779 84.536 413.44 84.536C414.251 84.536 414.95 84.392 415.536 84.104C416.134 83.8053 416.715 83.3573 417.28 82.76V79.992ZM408.224 72.872C410.112 71.144 412.384 70.28 415.04 70.28C416 70.28 416.859 70.44 417.616 70.76C418.374 71.0693 419.014 71.5067 419.536 72.072C420.059 72.6267 420.454 73.2933 420.72 74.072C420.998 74.8507 421.136 75.704 421.136 76.632V87H419.344C418.971 87 418.683 86.9467 418.48 86.84C418.278 86.7227 418.118 86.4933 418 86.152L417.648 84.968C417.232 85.3413 416.827 85.672 416.432 85.96C416.038 86.2373 415.627 86.472 415.2 86.664C414.774 86.856 414.315 87 413.824 87.096C413.344 87.2027 412.811 87.256 412.224 87.256C411.531 87.256 410.891 87.1653 410.304 86.984C409.718 86.792 409.211 86.5093 408.784 86.136C408.358 85.7627 408.027 85.2987 407.792 84.744C407.558 84.1893 407.44 83.544 407.44 82.808C407.44 82.392 407.51 81.9813 407.648 81.576C407.787 81.16 408.011 80.7653 408.32 80.392C408.64 80.0187 409.051 79.6667 409.552 79.336C410.054 79.0053 410.667 78.7173 411.392 78.472C412.128 78.2267 412.982 78.0293 413.952 77.88C414.923 77.72 416.032 77.624 417.28 77.592V76.632C417.28 75.5333 417.046 74.7227 416.576 74.2C416.107 73.6667 415.43 73.4 414.544 73.4C413.904 73.4 413.371 73.4747 412.944 73.624C412.528 73.7733 412.16 73.944 411.84 74.136C411.52 74.3173 411.227 74.4827 410.96 74.632C410.704 74.7813 410.416 74.856 410.096 74.856C409.819 74.856 409.584 74.7867 409.392 74.648C409.2 74.4987 409.046 74.328 408.928 74.136L408.224 72.872ZM436.618 74.056C436.501 74.2053 436.384 74.3227 436.266 74.408C436.16 74.4933 436 74.536 435.786 74.536C435.584 74.536 435.386 74.4773 435.194 74.36C435.002 74.232 434.773 74.0933 434.506 73.944C434.24 73.784 433.92 73.6453 433.546 73.528C433.184 73.4 432.73 73.336 432.186 73.336C431.493 73.336 430.885 73.464 430.362 73.72C429.84 73.9653 429.402 74.3227 429.05 74.792C428.709 75.2613 428.453 75.832 428.282 76.504C428.112 77.1653 428.026 77.9173 428.026 78.76C428.026 79.6347 428.117 80.4133 428.298 81.096C428.49 81.7787 428.762 82.3547 429.114 82.824C429.466 83.2827 429.893 83.6347 430.394 83.88C430.896 84.1147 431.461 84.232 432.09 84.232C432.72 84.232 433.226 84.1573 433.61 84.008C434.005 83.848 434.336 83.6773 434.602 83.496C434.869 83.304 435.098 83.1333 435.29 82.984C435.493 82.824 435.717 82.744 435.962 82.744C436.282 82.744 436.522 82.8667 436.682 83.112L437.818 84.552C437.381 85.064 436.906 85.496 436.394 85.848C435.882 86.1893 435.349 86.4667 434.794 86.68C434.25 86.8827 433.685 87.0267 433.098 87.112C432.522 87.1973 431.946 87.24 431.37 87.24C430.357 87.24 429.402 87.0533 428.506 86.68C427.61 86.296 426.826 85.7413 426.154 85.016C425.482 84.2907 424.949 83.4053 424.554 82.36C424.17 81.304 423.978 80.104 423.978 78.76C423.978 77.5547 424.149 76.44 424.49 75.416C424.842 74.3813 425.354 73.4907 426.026 72.744C426.698 71.9867 427.53 71.3947 428.522 70.968C429.514 70.5413 430.656 70.328 431.946 70.328C433.173 70.328 434.245 70.5253 435.162 70.92C436.09 71.3147 436.922 71.88 437.658 72.616L436.618 74.056ZM450.591 76.904C450.591 76.392 450.516 75.912 450.367 75.464C450.228 75.0053 450.015 74.6053 449.727 74.264C449.439 73.9227 449.071 73.656 448.623 73.464C448.185 73.2613 447.673 73.16 447.087 73.16C445.945 73.16 445.044 73.4853 444.383 74.136C443.732 74.7867 443.316 75.7093 443.135 76.904H450.591ZM443.055 79.288C443.119 80.1307 443.268 80.8613 443.503 81.48C443.737 82.088 444.047 82.5947 444.431 83C444.815 83.3947 445.268 83.6933 445.791 83.896C446.324 84.088 446.911 84.184 447.551 84.184C448.191 84.184 448.74 84.1093 449.199 83.96C449.668 83.8107 450.073 83.6453 450.415 83.464C450.767 83.2827 451.071 83.1173 451.327 82.968C451.593 82.8187 451.849 82.744 452.095 82.744C452.425 82.744 452.671 82.8667 452.831 83.112L453.967 84.552C453.529 85.064 453.039 85.496 452.495 85.848C451.951 86.1893 451.38 86.4667 450.783 86.68C450.196 86.8827 449.593 87.0267 448.975 87.112C448.367 87.1973 447.775 87.24 447.199 87.24C446.057 87.24 444.996 87.0533 444.015 86.68C443.033 86.296 442.18 85.736 441.455 85C440.729 84.2533 440.159 83.336 439.743 82.248C439.327 81.1493 439.118 79.88 439.118 78.44C439.118 77.32 439.3 76.2693 439.663 75.288C440.025 74.296 440.543 73.4373 441.215 72.712C441.897 71.976 442.724 71.3947 443.695 70.968C444.676 70.5413 445.78 70.328 447.007 70.328C448.041 70.328 448.996 70.4933 449.871 70.824C450.745 71.1547 451.497 71.64 452.127 72.28C452.756 72.9093 453.247 73.688 453.599 74.616C453.961 75.5333 454.142 76.584 454.142 77.768C454.142 78.3653 454.079 78.7707 453.951 78.984C453.823 79.1867 453.577 79.288 453.215 79.288H443.055ZM467.124 73.784C467.018 73.9547 466.906 74.0773 466.788 74.152C466.671 74.216 466.522 74.248 466.34 74.248C466.148 74.248 465.94 74.1947 465.716 74.088C465.503 73.9813 465.252 73.864 464.964 73.736C464.676 73.5973 464.346 73.4747 463.972 73.368C463.61 73.2613 463.178 73.208 462.676 73.208C461.898 73.208 461.284 73.3733 460.836 73.704C460.399 74.0347 460.18 74.4667 460.18 75C460.18 75.352 460.292 75.6507 460.516 75.896C460.751 76.1307 461.055 76.3387 461.428 76.52C461.812 76.7013 462.244 76.8667 462.724 77.016C463.204 77.1547 463.69 77.3093 464.18 77.48C464.682 77.6507 465.172 77.848 465.652 78.072C466.132 78.2853 466.559 78.5627 466.932 78.904C467.316 79.2347 467.62 79.6347 467.844 80.104C468.079 80.5733 468.196 81.1387 468.196 81.8C468.196 82.5893 468.052 83.32 467.764 83.992C467.487 84.6533 467.071 85.2293 466.516 85.72C465.962 86.2 465.274 86.5787 464.452 86.856C463.642 87.1227 462.703 87.256 461.636 87.256C461.071 87.256 460.516 87.2027 459.972 87.096C459.439 87 458.922 86.8613 458.42 86.68C457.93 86.4987 457.471 86.2853 457.044 86.04C456.628 85.7947 456.26 85.528 455.94 85.24L456.852 83.736C456.97 83.5547 457.108 83.416 457.268 83.32C457.428 83.224 457.631 83.176 457.876 83.176C458.122 83.176 458.351 83.2453 458.564 83.384C458.788 83.5227 459.044 83.672 459.332 83.832C459.62 83.992 459.956 84.1413 460.34 84.28C460.735 84.4187 461.231 84.488 461.828 84.488C462.298 84.488 462.698 84.4347 463.028 84.328C463.37 84.2107 463.647 84.0613 463.86 83.88C464.084 83.6987 464.244 83.4907 464.34 83.256C464.447 83.0107 464.5 82.76 464.5 82.504C464.5 82.12 464.383 81.8053 464.148 81.56C463.924 81.3147 463.62 81.1013 463.236 80.92C462.863 80.7387 462.431 80.5787 461.94 80.44C461.46 80.2907 460.964 80.1307 460.452 79.96C459.951 79.7893 459.455 79.592 458.964 79.368C458.484 79.1333 458.052 78.84 457.668 78.488C457.295 78.136 456.991 77.704 456.756 77.192C456.532 76.68 456.42 76.0613 456.42 75.336C456.42 74.664 456.554 74.024 456.82 73.416C457.087 72.808 457.476 72.28 457.988 71.832C458.511 71.3733 459.156 71.0107 459.924 70.744C460.703 70.4667 461.599 70.328 462.612 70.328C463.743 70.328 464.772 70.5147 465.7 70.888C466.628 71.2613 467.402 71.752 468.02 72.36L467.124 73.784ZM487.624 79.992C486.483 80.0453 485.523 80.1467 484.744 80.296C483.965 80.4347 483.341 80.616 482.872 80.84C482.403 81.064 482.067 81.3253 481.864 81.624C481.661 81.9227 481.56 82.248 481.56 82.6C481.56 83.2933 481.763 83.7893 482.168 84.088C482.584 84.3867 483.123 84.536 483.784 84.536C484.595 84.536 485.293 84.392 485.88 84.104C486.477 83.8053 487.059 83.3573 487.624 82.76V79.992ZM478.568 72.872C480.456 71.144 482.728 70.28 485.384 70.28C486.344 70.28 487.203 70.44 487.96 70.76C488.717 71.0693 489.357 71.5067 489.88 72.072C490.403 72.6267 490.797 73.2933 491.064 74.072C491.341 74.8507 491.48 75.704 491.48 76.632V87H489.688C489.315 87 489.027 86.9467 488.824 86.84C488.621 86.7227 488.461 86.4933 488.344 86.152L487.992 84.968C487.576 85.3413 487.171 85.672 486.776 85.96C486.381 86.2373 485.971 86.472 485.544 86.664C485.117 86.856 484.659 87 484.168 87.096C483.688 87.2027 483.155 87.256 482.568 87.256C481.875 87.256 481.235 87.1653 480.648 86.984C480.061 86.792 479.555 86.5093 479.128 86.136C478.701 85.7627 478.371 85.2987 478.136 84.744C477.901 84.1893 477.784 83.544 477.784 82.808C477.784 82.392 477.853 81.9813 477.992 81.576C478.131 81.16 478.355 80.7653 478.664 80.392C478.984 80.0187 479.395 79.6667 479.896 79.336C480.397 79.0053 481.011 78.7173 481.736 78.472C482.472 78.2267 483.325 78.0293 484.296 77.88C485.267 77.72 486.376 77.624 487.624 77.592V76.632C487.624 75.5333 487.389 74.7227 486.92 74.2C486.451 73.6667 485.773 73.4 484.888 73.4C484.248 73.4 483.715 73.4747 483.288 73.624C482.872 73.7733 482.504 73.944 482.184 74.136C481.864 74.3173 481.571 74.4827 481.304 74.632C481.048 74.7813 480.76 74.856 480.44 74.856C480.163 74.856 479.928 74.7867 479.736 74.648C479.544 74.4987 479.389 74.328 479.272 74.136L478.568 72.872ZM500.455 87.256C499.026 87.256 497.927 86.856 497.159 86.056C496.402 85.2453 496.023 84.1307 496.023 82.712V73.544H494.343C494.13 73.544 493.949 73.4747 493.799 73.336C493.65 73.1973 493.575 72.9893 493.575 72.712V71.144L496.215 70.712L497.047 66.232C497.101 66.0187 497.202 65.8533 497.351 65.736C497.501 65.6187 497.693 65.56 497.927 65.56H499.975V70.728H504.359V73.544H499.975V82.44C499.975 82.952 500.098 83.352 500.343 83.64C500.599 83.928 500.946 84.072 501.383 84.072C501.629 84.072 501.831 84.0453 501.991 83.992C502.162 83.928 502.306 83.864 502.423 83.8C502.551 83.736 502.663 83.6773 502.759 83.624C502.855 83.56 502.951 83.528 503.047 83.528C503.165 83.528 503.261 83.56 503.335 83.624C503.41 83.6773 503.49 83.7627 503.575 83.88L504.759 85.8C504.183 86.28 503.522 86.6427 502.775 86.888C502.029 87.1333 501.255 87.256 500.455 87.256ZM520.143 87.256C518.713 87.256 517.615 86.856 516.847 86.056C516.089 85.2453 515.711 84.1307 515.711 82.712V73.544H514.031C513.817 73.544 513.636 73.4747 513.487 73.336C513.337 73.1973 513.263 72.9893 513.263 72.712V71.144L515.903 70.712L516.735 66.232C516.788 66.0187 516.889 65.8533 517.039 65.736C517.188 65.6187 517.38 65.56 517.615 65.56H519.663V70.728H524.047V73.544H519.663V82.44C519.663 82.952 519.785 83.352 520.031 83.64C520.287 83.928 520.633 84.072 521.071 84.072C521.316 84.072 521.519 84.0453 521.679 83.992C521.849 83.928 521.993 83.864 522.111 83.8C522.239 83.736 522.351 83.6773 522.447 83.624C522.543 83.56 522.639 83.528 522.735 83.528C522.852 83.528 522.948 83.56 523.023 83.624C523.097 83.6773 523.177 83.7627 523.263 83.88L524.447 85.8C523.871 86.28 523.209 86.6427 522.463 86.888C521.716 87.1333 520.943 87.256 520.143 87.256ZM530.529 72.344C531.169 71.7467 531.873 71.2613 532.641 70.888C533.409 70.5147 534.31 70.328 535.345 70.328C536.241 70.328 537.036 70.4827 537.729 70.792C538.422 71.0907 538.998 71.5173 539.457 72.072C539.926 72.616 540.278 73.272 540.513 74.04C540.758 74.7973 540.881 75.6347 540.881 76.552V87H536.929V76.552C536.929 75.5493 536.7 74.776 536.241 74.232C535.782 73.6773 535.084 73.4 534.145 73.4C533.462 73.4 532.822 73.5547 532.225 73.864C531.628 74.1733 531.062 74.5947 530.529 75.128V87H526.577V63.224H530.529V72.344ZM555.216 76.904C555.216 76.392 555.141 75.912 554.992 75.464C554.853 75.0053 554.64 74.6053 554.352 74.264C554.064 73.9227 553.696 73.656 553.248 73.464C552.81 73.2613 552.298 73.16 551.712 73.16C550.57 73.16 549.669 73.4853 549.008 74.136C548.357 74.7867 547.941 75.7093 547.76 76.904H555.216ZM547.68 79.288C547.744 80.1307 547.893 80.8613 548.128 81.48C548.362 82.088 548.672 82.5947 549.056 83C549.44 83.3947 549.893 83.6933 550.416 83.896C550.949 84.088 551.536 84.184 552.176 84.184C552.816 84.184 553.365 84.1093 553.824 83.96C554.293 83.8107 554.698 83.6453 555.04 83.464C555.392 83.2827 555.696 83.1173 555.952 82.968C556.218 82.8187 556.474 82.744 556.72 82.744C557.05 82.744 557.296 82.8667 557.456 83.112L558.592 84.552C558.154 85.064 557.664 85.496 557.12 85.848C556.576 86.1893 556.005 86.4667 555.408 86.68C554.821 86.8827 554.218 87.0267 553.6 87.112C552.992 87.1973 552.4 87.24 551.824 87.24C550.682 87.24 549.621 87.0533 548.64 86.68C547.658 86.296 546.805 85.736 546.08 85C545.354 84.2533 544.784 83.336 544.368 82.248C543.952 81.1493 543.743 79.88 543.743 78.44C543.743 77.32 543.925 76.2693 544.288 75.288C544.65 74.296 545.168 73.4373 545.84 72.712C546.522 71.976 547.349 71.3947 548.32 70.968C549.301 70.5413 550.405 70.328 551.632 70.328C552.666 70.328 553.621 70.4933 554.496 70.824C555.37 71.1547 556.122 71.64 556.752 72.28C557.381 72.9093 557.872 73.688 558.224 74.616C558.586 75.5333 558.767 76.584 558.767 77.768C558.767 78.3653 558.704 78.7707 558.576 78.984C558.448 79.1867 558.202 79.288 557.84 79.288H547.68ZM579.531 73.784C579.424 73.9547 579.312 74.0773 579.195 74.152C579.077 74.216 578.928 74.248 578.747 74.248C578.555 74.248 578.347 74.1947 578.123 74.088C577.909 73.9813 577.659 73.864 577.371 73.736C577.083 73.5973 576.752 73.4747 576.378 73.368C576.016 73.2613 575.584 73.208 575.083 73.208C574.304 73.208 573.691 73.3733 573.243 73.704C572.805 74.0347 572.587 74.4667 572.587 75C572.587 75.352 572.699 75.6507 572.923 75.896C573.157 76.1307 573.461 76.3387 573.835 76.52C574.219 76.7013 574.651 76.8667 575.131 77.016C575.611 77.1547 576.096 77.3093 576.587 77.48C577.088 77.6507 577.579 77.848 578.059 78.072C578.539 78.2853 578.965 78.5627 579.339 78.904C579.723 79.2347 580.027 79.6347 580.251 80.104C580.485 80.5733 580.603 81.1387 580.603 81.8C580.603 82.5893 580.459 83.32 580.171 83.992C579.893 84.6533 579.477 85.2293 578.923 85.72C578.368 86.2 577.68 86.5787 576.859 86.856C576.048 87.1227 575.109 87.256 574.043 87.256C573.477 87.256 572.923 87.2027 572.379 87.096C571.845 87 571.328 86.8613 570.827 86.68C570.336 86.4987 569.877 86.2853 569.451 86.04C569.035 85.7947 568.667 85.528 568.347 85.24L569.259 83.736C569.376 83.5547 569.515 83.416 569.674 83.32C569.834 83.224 570.037 83.176 570.283 83.176C570.528 83.176 570.757 83.2453 570.971 83.384C571.195 83.5227 571.451 83.672 571.739 83.832C572.027 83.992 572.363 84.1413 572.747 84.28C573.141 84.4187 573.637 84.488 574.235 84.488C574.704 84.488 575.104 84.4347 575.435 84.328C575.776 84.2107 576.053 84.0613 576.267 83.88C576.491 83.6987 576.65 83.4907 576.747 83.256C576.853 83.0107 576.907 82.76 576.907 82.504C576.907 82.12 576.789 81.8053 576.555 81.56C576.331 81.3147 576.027 81.1013 575.642 80.92C575.269 80.7387 574.837 80.5787 574.347 80.44C573.867 80.2907 573.371 80.1307 572.859 79.96C572.357 79.7893 571.861 79.592 571.371 79.368C570.891 79.1333 570.459 78.84 570.075 78.488C569.701 78.136 569.397 77.704 569.163 77.192C568.939 76.68 568.827 76.0613 568.827 75.336C568.827 74.664 568.96 74.024 569.227 73.416C569.493 72.808 569.883 72.28 570.395 71.832C570.917 71.3733 571.563 71.0107 572.331 70.744C573.109 70.4667 574.005 70.328 575.019 70.328C576.149 70.328 577.179 70.5147 578.107 70.888C579.035 71.2613 579.808 71.752 580.427 72.36L579.531 73.784ZM592.249 79.992C591.108 80.0453 590.148 80.1467 589.369 80.296C588.59 80.4347 587.966 80.616 587.497 80.84C587.028 81.064 586.692 81.3253 586.489 81.624C586.286 81.9227 586.185 82.248 586.185 82.6C586.185 83.2933 586.388 83.7893 586.793 84.088C587.209 84.3867 587.748 84.536 588.409 84.536C589.22 84.536 589.918 84.392 590.505 84.104C591.102 83.8053 591.684 83.3573 592.249 82.76V79.992ZM583.193 72.872C585.081 71.144 587.353 70.28 590.009 70.28C590.969 70.28 591.828 70.44 592.585 70.76C593.342 71.0693 593.982 71.5067 594.505 72.072C595.028 72.6267 595.422 73.2933 595.689 74.072C595.966 74.8507 596.105 75.704 596.105 76.632V87H594.313C593.94 87 593.652 86.9467 593.449 86.84C593.246 86.7227 593.086 86.4933 592.969 86.152L592.617 84.968C592.201 85.3413 591.796 85.672 591.401 85.96C591.006 86.2373 590.596 86.472 590.169 86.664C589.742 86.856 589.284 87 588.793 87.096C588.313 87.2027 587.78 87.256 587.193 87.256C586.5 87.256 585.86 87.1653 585.273 86.984C584.686 86.792 584.18 86.5093 583.753 86.136C583.326 85.7627 582.996 85.2987 582.761 84.744C582.526 84.1893 582.409 83.544 582.409 82.808C582.409 82.392 582.478 81.9813 582.617 81.576C582.756 81.16 582.98 80.7653 583.289 80.392C583.609 80.0187 584.02 79.6667 584.521 79.336C585.022 79.0053 585.636 78.7173 586.361 78.472C587.097 78.2267 587.95 78.0293 588.921 77.88C589.892 77.72 591.001 77.624 592.249 77.592V76.632C592.249 75.5333 592.014 74.7227 591.545 74.2C591.076 73.6667 590.398 73.4 589.513 73.4C588.873 73.4 588.34 73.4747 587.913 73.624C587.497 73.7733 587.129 73.944 586.809 74.136C586.489 74.3173 586.196 74.4827 585.929 74.632C585.673 74.7813 585.385 74.856 585.065 74.856C584.788 74.856 584.553 74.7867 584.361 74.648C584.169 74.4987 584.014 74.328 583.897 74.136L583.193 72.872ZM599.827 87V70.584H602.243C602.755 70.584 603.091 70.824 603.251 71.304L603.507 72.52C603.795 72.2 604.094 71.9067 604.403 71.64C604.723 71.3733 605.059 71.144 605.411 70.952C605.774 70.76 606.158 70.6107 606.563 70.504C606.979 70.3867 607.432 70.328 607.923 70.328C608.958 70.328 609.806 70.6107 610.467 71.176C611.139 71.7307 611.64 72.472 611.971 73.4C612.227 72.856 612.547 72.392 612.931 72.008C613.315 71.6133 613.736 71.2933 614.195 71.048C614.654 70.8027 615.139 70.6213 615.651 70.504C616.174 70.3867 616.696 70.328 617.219 70.328C618.126 70.328 618.931 70.4667 619.635 70.744C620.339 71.0213 620.931 71.4267 621.411 71.96C621.891 72.4933 622.254 73.144 622.499 73.912C622.755 74.68 622.883 75.56 622.883 76.552V87H618.931V76.552C618.931 75.5067 618.702 74.7227 618.243 74.2C617.784 73.6667 617.112 73.4 616.227 73.4C615.822 73.4 615.443 73.4693 615.091 73.608C614.75 73.7467 614.446 73.9493 614.179 74.216C613.923 74.472 613.72 74.7973 613.571 75.192C613.422 75.5867 613.347 76.04 613.347 76.552V87H609.379V76.552C609.379 75.4533 609.155 74.6533 608.707 74.152C608.27 73.6507 607.624 73.4 606.771 73.4C606.195 73.4 605.656 73.544 605.155 73.832C604.664 74.1093 604.206 74.4933 603.779 74.984V87H599.827ZM637.216 76.904C637.216 76.392 637.141 75.912 636.992 75.464C636.853 75.0053 636.64 74.6053 636.352 74.264C636.064 73.9227 635.696 73.656 635.248 73.464C634.81 73.2613 634.298 73.16 633.712 73.16C632.57 73.16 631.669 73.4853 631.008 74.136C630.357 74.7867 629.941 75.7093 629.76 76.904H637.216ZM629.68 79.288C629.744 80.1307 629.893 80.8613 630.128 81.48C630.362 82.088 630.672 82.5947 631.056 83C631.44 83.3947 631.893 83.6933 632.416 83.896C632.949 84.088 633.536 84.184 634.176 84.184C634.816 84.184 635.365 84.1093 635.824 83.96C636.293 83.8107 636.698 83.6453 637.04 83.464C637.392 83.2827 637.696 83.1173 637.952 82.968C638.218 82.8187 638.474 82.744 638.72 82.744C639.05 82.744 639.296 82.8667 639.456 83.112L640.592 84.552C640.154 85.064 639.664 85.496 639.12 85.848C638.576 86.1893 638.005 86.4667 637.408 86.68C636.821 86.8827 636.218 87.0267 635.6 87.112C634.992 87.1973 634.4 87.24 633.824 87.24C632.682 87.24 631.621 87.0533 630.64 86.68C629.658 86.296 628.805 85.736 628.08 85C627.354 84.2533 626.784 83.336 626.368 82.248C625.952 81.1493 625.743 79.88 625.743 78.44C625.743 77.32 625.925 76.2693 626.288 75.288C626.65 74.296 627.168 73.4373 627.84 72.712C628.522 71.976 629.349 71.3947 630.32 70.968C631.301 70.5413 632.405 70.328 633.632 70.328C634.666 70.328 635.621 70.4933 636.496 70.824C637.37 71.1547 638.122 71.64 638.752 72.28C639.381 72.9093 639.872 73.688 640.224 74.616C640.586 75.5333 640.767 76.584 640.767 77.768C640.767 78.3653 640.704 78.7707 640.576 78.984C640.448 79.1867 640.202 79.288 639.84 79.288H629.68ZM144.512 125H140.56V111.544H132.944V120.44C132.944 120.952 133.067 121.352 133.312 121.64C133.568 121.928 133.915 122.072 134.352 122.072C134.597 122.072 134.8 122.045 134.96 121.992C135.131 121.928 135.275 121.864 135.392 121.8C135.52 121.736 135.632 121.677 135.728 121.624C135.824 121.56 135.92 121.528 136.016 121.528C136.133 121.528 136.229 121.56 136.304 121.624C136.379 121.677 136.459 121.763 136.544 121.88L137.728 123.8C137.152 124.28 136.491 124.643 135.744 124.888C134.997 125.133 134.224 125.256 133.424 125.256C131.995 125.256 130.896 124.856 130.128 124.056C129.371 123.245 128.992 122.131 128.992 120.712V111.544H127.312C127.099 111.544 126.917 111.475 126.768 111.336C126.619 111.197 126.544 110.989 126.544 110.712V109.144L129.184 108.696L130.016 104.232C130.069 104.019 130.171 103.853 130.32 103.736C130.469 103.619 130.661 103.56 130.896 103.56H132.944V108.728H144.512V125ZM145.2 103.736C145.2 104.077 145.131 104.403 144.992 104.712C144.853 105.011 144.667 105.272 144.432 105.496C144.208 105.72 143.936 105.901 143.616 106.04C143.307 106.168 142.976 106.232 142.624 106.232C142.283 106.232 141.963 106.168 141.664 106.04C141.365 105.901 141.104 105.72 140.88 105.496C140.656 105.272 140.475 105.011 140.336 104.712C140.208 104.403 140.144 104.077 140.144 103.736C140.144 103.384 140.208 103.059 140.336 102.76C140.475 102.451 140.656 102.184 140.88 101.96C141.104 101.725 141.365 101.544 141.664 101.416C141.963 101.277 142.283 101.208 142.624 101.208C142.976 101.208 143.307 101.277 143.616 101.416C143.936 101.544 144.208 101.725 144.432 101.96C144.667 102.184 144.853 102.451 144.992 102.76C145.131 103.059 145.2 103.384 145.2 103.736ZM148.546 125V108.584H150.962C151.474 108.584 151.81 108.824 151.97 109.304L152.226 110.52C152.514 110.2 152.812 109.907 153.122 109.64C153.442 109.373 153.778 109.144 154.13 108.952C154.492 108.76 154.876 108.611 155.282 108.504C155.698 108.387 156.151 108.328 156.642 108.328C157.676 108.328 158.524 108.611 159.186 109.176C159.858 109.731 160.359 110.472 160.69 111.4C160.946 110.856 161.266 110.392 161.65 110.008C162.034 109.613 162.455 109.293 162.914 109.048C163.372 108.803 163.858 108.621 164.37 108.504C164.892 108.387 165.415 108.328 165.938 108.328C166.844 108.328 167.65 108.467 168.354 108.744C169.058 109.021 169.65 109.427 170.13 109.96C170.61 110.493 170.972 111.144 171.218 111.912C171.474 112.68 171.602 113.56 171.602 114.552V125H167.65V114.552C167.65 113.507 167.42 112.723 166.962 112.2C166.503 111.667 165.831 111.4 164.946 111.4C164.54 111.4 164.162 111.469 163.81 111.608C163.468 111.747 163.164 111.949 162.898 112.216C162.642 112.472 162.439 112.797 162.29 113.192C162.14 113.587 162.066 114.04 162.066 114.552V125H158.098V114.552C158.098 113.453 157.874 112.653 157.426 112.152C156.988 111.651 156.343 111.4 155.49 111.4C154.914 111.4 154.375 111.544 153.874 111.832C153.383 112.109 152.924 112.493 152.498 112.984V125H148.546ZM185.934 114.904C185.934 114.392 185.86 113.912 185.71 113.464C185.572 113.005 185.358 112.605 185.07 112.264C184.782 111.923 184.414 111.656 183.966 111.464C183.529 111.261 183.017 111.16 182.43 111.16C181.289 111.16 180.388 111.485 179.726 112.136C179.076 112.787 178.66 113.709 178.478 114.904H185.934ZM178.398 117.288C178.462 118.131 178.612 118.861 178.846 119.48C179.081 120.088 179.39 120.595 179.774 121C180.158 121.395 180.612 121.693 181.134 121.896C181.668 122.088 182.254 122.184 182.894 122.184C183.534 122.184 184.084 122.109 184.542 121.96C185.012 121.811 185.417 121.645 185.758 121.464C186.11 121.283 186.414 121.117 186.67 120.968C186.937 120.819 187.193 120.744 187.438 120.744C187.769 120.744 188.014 120.867 188.174 121.112L189.31 122.552C188.873 123.064 188.382 123.496 187.838 123.848C187.294 124.189 186.724 124.467 186.126 124.68C185.54 124.883 184.937 125.027 184.318 125.112C183.71 125.197 183.118 125.24 182.542 125.24C181.401 125.24 180.34 125.053 179.358 124.68C178.377 124.296 177.524 123.736 176.798 123C176.073 122.253 175.502 121.336 175.086 120.248C174.67 119.149 174.462 117.88 174.462 116.44C174.462 115.32 174.644 114.269 175.006 113.288C175.369 112.296 175.886 111.437 176.558 110.712C177.241 109.976 178.068 109.395 179.038 108.968C180.02 108.541 181.124 108.328 182.35 108.328C183.385 108.328 184.34 108.493 185.214 108.824C186.089 109.155 186.841 109.64 187.47 110.28C188.1 110.909 188.59 111.688 188.942 112.616C189.305 113.533 189.486 114.584 189.486 115.768C189.486 116.365 189.422 116.771 189.294 116.984C189.166 117.187 188.921 117.288 188.558 117.288H178.398ZM191.876 122.824C191.876 122.493 191.935 122.179 192.052 121.88C192.18 121.581 192.351 121.325 192.564 121.112C192.777 120.899 193.033 120.728 193.332 120.6C193.631 120.472 193.951 120.408 194.292 120.408C194.633 120.408 194.948 120.472 195.236 120.6C195.535 120.728 195.791 120.899 196.004 121.112C196.228 121.325 196.404 121.581 196.532 121.88C196.66 122.179 196.724 122.493 196.724 122.824C196.724 123.165 196.66 123.485 196.532 123.784C196.404 124.072 196.228 124.323 196.004 124.536C195.791 124.749 195.535 124.915 195.236 125.032C194.948 125.16 194.633 125.224 194.292 125.224C193.951 125.224 193.631 125.16 193.332 125.032C193.033 124.915 192.777 124.749 192.564 124.536C192.351 124.323 192.18 124.072 192.052 123.784C191.935 123.485 191.876 123.165 191.876 122.824Z" fill="#21242C"/>
</g>
<defs>
<clipPath id="clip0_1_35">
<rect width="679" height="150" fill="white"/>
</clipPath>
<clipPath id="clip1_1_35">
<rect width="97" height="150" fill="white"/>
</clipPath>
</defs>
</svg>
