<svg width="679" height="150" viewBox="0 0 679 150" fill="none" xmlns="http://www.w3.org/2000/svg">
<g clip-path="url(#clip0_140_3903)">
<g clip-path="url(#clip1_140_3903)">
<path d="M4 20C4 11.1634 11.1634 4 20 4H93V146H20C11.1634 146 4 138.837 4 130V20Z" fill="#14BF96" stroke="#14BF96" stroke-width="8"/>
<path d="M59.3047 102.93C59.3047 103.711 59.1354 104.258 58.7969 104.57C58.4844 104.857 57.9375 105 57.1562 105H49.1094C48.3281 105 47.7682 104.857 47.4297 104.57C47.1172 104.258 46.9609 103.711 46.9609 102.93V62.0312L41.5312 64.7656C41.0104 65.0521 40.5417 65.1693 40.125 65.1172C39.3177 64.987 38.4323 64.7786 37.4688 64.4922C36.5312 64.2057 35.4896 63.8151 34.3438 63.3203C33.9531 63.0859 33.7188 62.8776 33.6406 62.6953C33.5365 62.513 33.5365 62.2135 33.6406 61.7969C34.2396 59.5052 34.9557 57.6302 35.7891 56.1719C36.0495 55.8073 36.4271 55.5078 36.9219 55.2734L51.8438 47.7344H59.3047V102.93Z" fill="white"/>
</g>
<mask id="path-3-inside-1_140_3903" fill="white">
<path d="M97 0H659C670.046 0 679 8.95431 679 20V130C679 141.046 670.046 150 659 150H97V0Z"/>
</mask>
<path d="M97 0H659C670.046 0 679 8.95431 679 20V130C679 141.046 670.046 150 659 150H97V0Z" fill="white"/>
<path d="M97 -8H659C674.464 -8 687 4.53603 687 20H671C671 13.3726 665.627 8 659 8H97V-8ZM687 130C687 145.464 674.464 158 659 158H97V142H659C665.627 142 671 136.627 671 130H687ZM97 150V0V150ZM659 -8C674.464 -8 687 4.53603 687 20V130C687 145.464 674.464 158 659 158V142C665.627 142 671 136.627 671 130V20C671 13.3726 665.627 8 659 8V-8Z" fill="#14BF96" mask="url(#path-3-inside-1_140_3903)"/>
</g>
<defs>
<clipPath id="clip0_140_3903">
<rect width="679" height="150" fill="white"/>
</clipPath>
<clipPath id="clip1_140_3903">
<rect width="97" height="150" fill="white"/>
</clipPath>
</defs>
</svg>
