<svg width="197" height="111" viewBox="0 0 197 111" fill="none" xmlns="http://www.w3.org/2000/svg">
<rect x="4" y="4" width="189" height="103" rx="26" fill="#1F3E78"/>
<rect x="4" y="4" width="189" height="103" rx="26" stroke="white" stroke-width="8"/>
<path d="M59.5361 70.9131C59.5361 71.3232 59.4541 71.6104 59.29 71.7744C59.1396 71.9248 58.8662 72 58.4697 72H54.3477C53.9648 72 53.6914 71.9248 53.5273 71.7744C53.3633 71.6104 53.2812 71.3232 53.2812 70.9131V44.9297C53.2812 44.123 53.4385 43.5352 53.7529 43.166C54.0674 42.7832 54.6211 42.5918 55.4141 42.5918H57.3213C58.0186 42.5918 58.6748 42.6875 59.29 42.8789C59.9189 43.0566 60.582 43.4668 61.2793 44.1094C61.9902 44.752 62.8105 45.75 63.7402 47.1035C64.6836 48.4434 65.8184 50.2754 67.1445 52.5996C68.416 54.8145 69.4346 56.585 70.2002 57.9111C70.9795 59.2373 71.5811 60.249 72.0049 60.9463C72.4287 61.6436 72.7432 62.1426 72.9482 62.4434C73.167 62.7441 73.3447 62.9902 73.4814 63.1816V45.873C73.4814 45.4766 73.543 45.1758 73.666 44.9707C74.2539 44.0684 75.0674 43.1182 76.1064 42.1201C76.3115 41.9561 76.4824 41.874 76.6191 41.874C76.7695 41.874 76.9336 41.9561 77.1113 42.1201C77.6719 42.6396 78.1436 43.1387 78.5264 43.6172C78.9229 44.082 79.2646 44.5332 79.5518 44.9707C79.6748 45.1895 79.7363 45.4902 79.7363 45.873V70.2979C79.7363 70.9131 79.6201 71.3506 79.3877 71.6104C79.1553 71.8701 78.7314 72 78.1162 72H76.1475C75.5596 72 74.958 71.9043 74.3428 71.7129C73.7275 71.5078 73.0303 71.0566 72.251 70.3594C71.4717 69.6484 70.5488 68.5479 69.4824 67.0576C68.416 65.5674 67.1309 63.5303 65.627 60.9463C64.3555 58.7451 63.3369 56.9951 62.5713 55.6963C61.8193 54.3975 61.2451 53.4199 60.8486 52.7637C60.4521 52.0938 60.165 51.6289 59.9873 51.3691C59.8096 51.0957 59.6592 50.8906 59.5361 50.7539V70.9131ZM95.4658 72.5127C93.1553 72.5127 91.1455 72.1436 89.4365 71.4053C87.7275 70.6533 86.4014 69.4912 85.458 67.9189C84.5146 66.3467 84.043 64.3164 84.043 61.8281C84.043 58.0957 85 55.2725 86.9141 53.3584C88.8281 51.4443 91.3711 50.4873 94.543 50.4873C96.6074 50.4873 98.3506 50.8564 99.7725 51.5947C101.208 52.333 102.295 53.3516 103.033 54.6504C103.785 55.9492 104.161 57.4326 104.161 59.1006C104.161 60.7275 103.744 61.8623 102.91 62.5049C102.076 63.1475 100.859 63.4688 99.2598 63.4688H90.4619C90.5713 64.877 91.084 65.9502 92 66.6885C92.9297 67.4268 94.1875 67.7959 95.7734 67.7959C97.0312 67.7959 98.0361 67.6113 98.7881 67.2422C99.5537 66.8594 100.087 66.5586 100.388 66.3398C100.647 66.1484 100.941 66.0596 101.27 66.0732C101.529 66.0732 101.898 66.1279 102.377 66.2373C102.869 66.333 103.354 66.5176 103.833 66.791C104.175 66.9688 104.346 67.2148 104.346 67.5293C104.346 67.707 104.312 67.96 104.243 68.2881C104.202 68.4795 104.134 68.7598 104.038 69.1289C103.942 69.4844 103.819 69.8193 103.669 70.1338C103.587 70.2842 103.457 70.4277 103.279 70.5645C103.006 70.7559 102.562 71.0088 101.946 71.3232C101.345 71.6377 100.518 71.9111 99.4648 72.1436C98.4121 72.3896 97.0791 72.5127 95.4658 72.5127ZM90.4209 59.2646H97.1064C97.8037 59.2646 98.1523 58.9434 98.1523 58.3008C98.1523 57.3301 97.8447 56.5166 97.2295 55.8604C96.6279 55.1904 95.7188 54.8555 94.502 54.8555C93.1758 54.8555 92.1982 55.2793 91.5693 56.127C90.9541 56.9746 90.5713 58.0205 90.4209 59.2646ZM117.532 64.8838C116.083 65.7178 115.078 66.627 114.518 67.6113C113.957 68.5957 113.677 69.8057 113.677 71.2412C113.677 71.5283 113.636 71.7266 113.554 71.8359C113.472 71.9453 113.294 72 113.021 72H108.242C107.641 72 107.34 71.6104 107.34 70.8311C107.34 68.9717 107.716 67.3105 108.468 65.8477C109.233 64.3848 110.573 63.0791 112.487 61.9307C111.038 61.124 109.896 60.0303 109.062 58.6494C108.242 57.2686 107.832 55.8057 107.832 54.2607V53.9326C107.832 53.6045 107.9 53.3516 108.037 53.1738C108.611 52.4219 109.452 51.6084 110.56 50.7334C110.751 50.5967 110.922 50.5283 111.072 50.5283C111.25 50.5283 111.421 50.5967 111.585 50.7334C112.173 51.1846 112.665 51.6084 113.062 52.0049C113.472 52.4014 113.82 52.791 114.107 53.1738C114.244 53.3516 114.312 53.6045 114.312 53.9326V54.2607C114.312 56.2158 115.447 57.7266 117.717 58.793C118.756 58.2188 119.487 57.5557 119.911 56.8037C120.349 56.0518 120.567 55.2041 120.567 54.2607V53.9326C120.567 53.6045 120.636 53.3516 120.772 53.1738C121.319 52.4219 122.14 51.6084 123.233 50.7334C123.411 50.5967 123.575 50.5283 123.726 50.5283C123.903 50.5283 124.067 50.5967 124.218 50.7334C124.792 51.1846 125.277 51.6084 125.674 52.0049C126.07 52.4014 126.405 52.791 126.679 53.1738C126.815 53.3516 126.884 53.6045 126.884 53.9326V54.2607C126.884 55.9561 126.508 57.4189 125.756 58.6494C125.004 59.8799 124.02 60.8984 122.803 61.7051C124.498 62.6621 125.735 63.9268 126.515 65.499C127.294 67.0576 127.684 68.835 127.684 70.8311C127.684 71.2959 127.629 71.6104 127.52 71.7744C127.41 71.9248 127.171 72 126.802 72H121.921C121.442 72 121.203 71.6719 121.203 71.0156C121.203 70.127 121.114 69.334 120.937 68.6367C120.772 67.9395 120.431 67.29 119.911 66.6885C119.392 66.0732 118.599 65.4717 117.532 64.8838ZM140.193 72.5127C135.627 72.5127 133.344 70.1406 133.344 65.3965V55.7783H131.026C130.616 55.7783 130.329 55.6963 130.165 55.5322C130.015 55.3545 129.939 55.0605 129.939 54.6504V52.1279C129.939 51.7178 130.015 51.4307 130.165 51.2666C130.329 51.0889 130.616 51 131.026 51H133.344V47.6982C133.344 47.3701 133.412 47.1172 133.549 46.9395C134.123 46.1875 134.964 45.374 136.071 44.499C136.263 44.3623 136.434 44.2939 136.584 44.2939C136.748 44.2939 136.912 44.3623 137.076 44.499C137.664 44.9502 138.156 45.374 138.553 45.7705C138.963 46.167 139.312 46.5566 139.599 46.9395C139.735 47.1172 139.804 47.3701 139.804 47.6982V51H143.434C143.844 51 144.124 51.0889 144.274 51.2666C144.438 51.4307 144.521 51.7178 144.521 52.1279V54.6504C144.521 55.0605 144.438 55.3545 144.274 55.5322C144.124 55.6963 143.844 55.7783 143.434 55.7783H139.804V64.2686C139.804 66.4561 140.597 67.5498 142.183 67.5498C142.429 67.5498 142.654 67.5293 142.859 67.4883C143.064 67.4336 143.242 67.3789 143.393 67.3242C143.68 67.2148 143.878 67.1738 143.987 67.2012C144.11 67.2285 144.22 67.3789 144.315 67.6523L145.505 70.8311C145.628 71.1729 145.546 71.4189 145.259 71.5693C145.054 71.665 144.555 71.8428 143.762 72.1025C142.982 72.376 141.793 72.5127 140.193 72.5127Z" fill="white"/>
</svg>
