<svg width="159" height="159" viewBox="0 0 159 159" fill="none" xmlns="http://www.w3.org/2000/svg">
<g clip-path="url(#clip0_103_8537)">
<circle cx="79.2" cy="79.2" r="74.7" fill="#1865F2" stroke="white" stroke-width="9"/>
</g>
<path d="M72.3526 34.5748C74.508 27.9413 83.8925 27.9413 86.0478 34.5748L92.3343 53.9225C93.2982 56.8891 96.0627 58.8976 99.1819 58.8976H119.525C126.5 58.8976 129.4 67.8228 123.757 71.9225L107.299 83.8801C104.776 85.7135 103.72 88.9633 104.684 91.9299L110.97 111.278C113.125 117.911 105.533 123.427 99.8905 119.327L83.4323 107.37C80.9088 105.536 77.4917 105.536 74.9682 107.37L58.51 119.327C52.8673 123.427 45.275 117.911 47.4304 111.278L53.7168 91.9299C54.6807 88.9633 53.6248 85.7135 51.1013 83.8801L34.6431 71.9225C29.0003 67.8228 31.9003 58.8976 38.8752 58.8976H59.2186C62.3378 58.8976 65.1023 56.8891 66.0662 53.9225L72.3526 34.5748Z" fill="white"/>
<defs>
<clipPath id="clip0_103_8537">
<rect width="158.4" height="158.4" fill="white"/>
</clipPath>
</defs>
</svg>
